<svg width="36" height="36" viewBox="0 0 36 36" fill="none" xmlns="http://www.w3.org/2000/svg">
<path d="M0 18C0 8.05887 8.05887 0 18 0V0C27.9411 0 36 8.05887 36 18V18C36 27.9411 27.9411 36 18 36V36C8.05887 36 0 27.9411 0 18V18Z" fill="#F5F8FF"/>
<path fill-rule="evenodd" clip-rule="evenodd" d="M25.6446 11.085L14.9046 21.45L12.0546 18.405C11.5296 17.91 10.7046 17.88 10.1046 18.3C9.51963 18.735 9.35463 19.5 9.71463 20.115L13.0896 25.605C13.4196 26.115 13.9896 26.43 14.6346 26.43C15.2496 26.43 15.8346 26.115 16.1646 25.605C16.7046 24.9 27.0096 12.615 27.0096 12.615C28.3596 11.235 26.7246 10.02 25.6446 11.07V11.085Z" fill="#5868FA"/>
</svg>
