<svg width="48" height="48" viewBox="0 0 48 48" fill="none" xmlns="http://www.w3.org/2000/svg">
<rect width="48" height="48" rx="24" fill="#F5F8FF"/>
<path d="M28.0196 29.5192C28.0196 29.0732 28.2871 28.6386 28.6856 28.438L29.9236 27.9197L30.413 26.7456C30.5526 26.4627 30.7714 26.2646 31.0211 26.1438L31.0239 20.0057C31.0239 19.4527 30.5755 19.0043 30.0225 19.0043C29.4695 19.0043 29.0211 19.4527 29.0211 20.0057L29.0206 23.5107C29.0206 23.7872 28.7969 24.0114 28.5205 24.0114C28.2441 24.0114 28.0176 23.7872 28.0176 23.5107L28.0196 18.0028C28.0196 17.4499 27.5712 17.0014 27.0182 17.0014C26.4652 17.0014 26.0168 17.4499 26.0168 18.0028L26.0148 23.5107C26.0148 23.7872 25.7924 24.0114 25.516 24.0114C25.2395 24.0114 25.0123 23.786 25.0123 23.5107L25.0154 17.0014C25.0154 16.4484 24.5669 16 24.014 16C23.461 16 23.0125 16.4484 23.0125 17.0014L23.0094 23.5107C23.0094 23.786 22.7872 24.0114 22.5118 24.0114C22.2364 24.0114 22.008 23.786 22.008 23.5107L22.0111 18.0028C22.0111 17.4499 21.5627 17.0014 21.0097 17.0014C20.4567 17.0014 20.0083 17.4499 20.0083 18.0028V26.7465L18.14 24.8782C17.8959 24.6341 17.5736 24.5121 17.2544 24.5121C16.5872 24.5121 16.0026 25.0503 16.0026 25.7639C16.0026 26.084 16.1248 26.4044 16.3694 26.6489L19.9088 30.1883C21.0911 31.3718 22.6652 32.0227 24.3363 32.0227H25.5161C26.853 32.0227 28.0794 31.5433 29.0336 30.7481L28.7504 30.63C28.2888 30.3985 28.0196 29.9667 28.0196 29.5192ZM24.9465 27.629L24.014 27.9889L23.6253 28.9208C23.579 28.9872 23.5571 29.0185 23.5132 29.0185C23.4694 29.0185 23.4203 28.9874 23.4013 28.949L23.0125 27.9889L22.0803 27.6002C22.0142 27.5821 22.0111 27.5601 22.0111 27.4882C22.0111 27.4455 22.0422 27.3953 22.0802 27.3762L23.0125 27.0156L23.4012 26.0834C23.4194 26.0173 23.4694 26.0142 23.5132 26.0142C23.5571 26.0142 23.6061 26.0452 23.6252 26.0836L24.014 27.0156L24.9462 27.4043C24.9841 27.4225 25.0154 27.4725 25.0154 27.4882C25.0154 27.5601 24.9841 27.5821 24.9465 27.629ZM16.5033 23.0099C16.5746 23.0099 16.658 22.9581 16.6898 22.8942L17.3376 21.341L18.8914 20.6929C18.9548 20.6612 19.0066 20.5773 19.0067 20.5065C18.9787 20.4344 18.9537 20.353 18.8911 20.3186L17.3389 19.674L16.6898 18.1186C16.6579 18.0545 16.5747 18.0028 16.5033 18.0028C16.432 18.0028 16.3484 18.0545 16.3168 18.1186L15.669 19.6708L14.1154 20.3186C14.052 20.353 14.0001 20.4344 14 20.4782C14.0001 20.549 14.052 20.6332 14.1154 20.665L15.6667 21.3118L16.3167 22.8662C16.3484 22.9567 16.432 23.0099 16.5033 23.0099ZM34 29.5192C33.9999 29.448 33.9481 29.3642 33.8846 29.3324L32.3334 28.6856L31.6834 27.1312C31.678 27.0688 31.5966 27.0156 31.5246 27.0156C31.4532 27.0156 31.3694 27.0673 31.3376 27.1313L30.6898 28.6844L29.1364 29.3325C29.0729 29.3643 29.0212 29.4478 29.021 29.519C29.0212 29.5897 29.073 29.674 29.1364 29.7057L30.6876 30.3526L31.3376 31.907C31.3713 31.9695 31.4526 32.0227 31.5246 32.0227C31.5959 32.0227 31.679 31.9709 31.7108 31.907L32.3586 30.3538L33.9123 29.7057C33.975 29.6725 34 29.5912 34 29.5192Z" fill="#5868FA"/>
</svg>
