<svg width="48" height="48" viewBox="0 0 48 48" fill="none" xmlns="http://www.w3.org/2000/svg">
<rect width="48" height="48" rx="24" fill="#F5F8FF"/>
<path d="M31.7778 24.8889H16.2222C14.9948 24.8889 14 25.8837 14 27.1111V28.2222C14 30.0632 15.4924 31.5556 17.3333 31.5556H30.6667C32.5076 31.5556 34 30.0632 34 28.2222V27.1111C34 25.8854 33.0035 24.8889 31.7778 24.8889ZM19 27.6667C19 28.5868 18.2535 29.3333 17.3333 29.3333C16.4132 29.3333 15.6667 28.5868 15.6667 27.6667V26.5556C15.6667 26.2465 15.9142 26 16.2222 26H18.4444C18.7526 26 19 26.2474 19 26.5556V27.6667ZM23.4444 27.6667C23.4444 28.5868 22.6979 29.3333 21.7778 29.3333C20.8576 29.3333 20.1111 28.5868 20.1111 27.6667V26.5556C20.1111 26.2465 20.3576 26 20.6667 26H22.8889C23.197 26 23.4444 26.2474 23.4444 26.5556V27.6667ZM27.8889 27.6667C27.8889 28.5868 27.1424 29.3333 26.2222 29.3333C25.3021 29.3333 24.5556 28.5868 24.5556 27.6667V26.5556C24.5556 26.2474 24.803 26 25.1111 26H27.3333C27.6415 26 27.8889 26.2474 27.8889 26.5556V27.6667ZM32.3333 27.6667C32.3333 28.5868 31.5868 29.3333 30.6667 29.3333C29.7465 29.3333 29 28.5868 29 27.6667V26.5556C29 26.2474 29.2474 26 29.5556 26H31.7778C32.0859 26 32.3333 26.2474 32.3333 26.5556V27.6667ZM30.6667 16H17.3333C15.4924 16 14 17.4924 14 19.3333V21.5556C14 22.783 14.9948 23.7778 16.2222 23.7778H31.7778C33.0052 23.7778 34 22.783 34 21.5556V19.3333C34 17.4924 32.5069 16 30.6667 16ZM19 22.1111C19 22.4201 18.7535 22.6667 18.4444 22.6667H16.2222C15.9142 22.6667 15.6667 22.4201 15.6667 22.1111V21C15.6667 20.0799 16.4132 19.3333 17.3333 19.3333C18.2535 19.3333 19 20.0799 19 21V22.1111ZM23.4444 22.191C23.4444 22.4549 23.2326 22.6667 22.9688 22.6667H20.5868C20.3229 22.6667 20.1111 22.4549 20.1111 22.191V19.8889C20.1111 18.9687 20.8576 18.2222 21.7778 18.2222C22.6979 18.2222 23.4444 18.9701 23.4444 19.8889V22.191ZM27.8889 22.191C27.8889 22.4549 27.6771 22.6667 27.4132 22.6667H25.0323C24.7674 22.6667 24.5556 22.4549 24.5556 22.191V19.8889C24.5556 18.9687 25.3021 18.2222 26.2222 18.2222C27.1424 18.2222 27.8889 18.9701 27.8889 19.8889V22.191ZM32.3333 22.1111C32.3333 22.4201 32.0868 22.6667 31.7778 22.6667H29.5556C29.2474 22.6667 29 22.4193 29 22.1111V21C29 20.0799 29.7465 19.3333 30.6667 19.3333C31.5868 19.3333 32.3333 20.0799 32.3333 21V22.1111Z" fill="#5868FA"/>
</svg>
