<svg width="239" height="58" viewBox="0 0 239 58" fill="none" xmlns="http://www.w3.org/2000/svg">
<g clip-path="url(#clip0_278_93990)">
<path d="M67.1996 46.341C65.3489 43.1827 65.7847 38.6089 65.7847 38.6089L61.4301 43.1827C61.4301 43.1827 66.7638 35.8867 66.7638 29.3527C66.7638 20.8586 61.7585 13.2316 61.5387 12.6918C61.5387 12.6918 67.307 11.9297 66.7638 8.77147C66.2205 5.61319 62.6277 2.34623 57.7249 5.0685C52.8221 7.79076 50.3231 9.64225 48.7983 9.42486L53.4789 6.37162C53.4789 6.37162 40.7104 4.63371 33.9239 5.9405C27.1374 7.24729 18.3195 9.42486 10.9165 7.90068C3.51348 6.3765 3.84187 3.58096 1.55529 4.05238C-0.73129 4.5238 -0.29546 9.20747 1.55529 12.3645C3.40604 15.5216 2.97021 20.0965 2.97021 20.0965L7.32485 15.5228C7.32485 15.5228 1.99112 22.8188 1.99112 29.3527C1.99112 37.8469 6.99646 45.4738 7.2162 46.0149C7.2162 46.0149 1.44664 46.777 1.99112 49.9352C2.53561 53.0935 6.12724 56.3593 11.0251 53.637C15.923 50.9147 15.2711 52.3302 15.2711 52.3302C15.2711 52.3302 18.7163 52.8004 22.9781 53.063C23.3966 53.0888 23.8137 52.9936 24.1795 52.7888C24.5454 52.5839 24.8445 52.278 25.0413 51.9076C25.9532 50.1978 27.5965 47.114 28.5328 45.4348L28.5878 45.3126C28.6708 45.0891 28.7574 44.8644 28.8319 44.6397C29.0016 43.9605 29.0016 43.25 28.8319 42.5708C28.7693 42.4418 28.6945 42.3191 28.6085 42.2044C27.8687 41.2201 27.0337 40.3065 26.2633 39.3429C21.7463 33.6957 22.0857 25.9966 26.1681 20.9808C26.6642 20.3939 27.1017 19.7599 27.4744 19.0878C28.2459 17.632 30.0552 16.5902 31.4188 16.9175C32.2917 17.1263 33.128 17.5062 33.996 17.7126C34.4989 17.8347 35.0507 17.792 35.583 17.7614C36.9406 17.6857 38.3604 17.2729 39.6385 17.5514C41.3904 17.9251 43.0165 18.8594 44.7306 19.4554C46.5703 20.0953 47.9328 21.4009 49.3819 22.5892C50.1204 23.1999 50.0228 24.0963 49.2012 24.6581C48.8767 24.8928 48.5192 25.0781 48.1403 25.2077C47.1575 25.5105 46.9195 25.6412 47.0879 26.385C47.2564 27.1288 48.2245 29.4138 48.3185 31.0149C48.3475 31.4193 48.2629 31.8237 48.0744 32.1825C47.735 32.7626 47.8217 33.2169 48.1806 33.7323C48.9607 34.8498 49.709 35.9905 50.4659 37.1251C50.9286 37.8163 50.8261 38.2316 50.0997 38.6639C49.8397 38.819 49.5345 38.935 49.3403 39.1524C49.264 39.2448 49.2087 39.3529 49.1786 39.4689C49.1484 39.585 49.1441 39.7062 49.1658 39.8241C49.4966 40.8427 49.5161 40.8354 48.8435 41.5865C49.3159 42.1067 49.1792 42.4963 48.5993 42.8639C48.4321 42.9702 48.382 43.3354 48.3674 43.5869C48.3527 43.8385 48.4577 44.095 48.5029 44.3503C48.747 45.7157 48.2587 46.5559 46.8633 46.744C45.6315 46.9076 44.3655 46.8502 43.1166 46.8222C41.7518 46.8051 41.3489 47.0249 40.8972 48.3207V48.3329C40.382 49.8717 41.7383 51.3996 43.3388 51.1333C48.1733 50.3297 53.2762 49.8607 57.8433 50.8011C65.2451 52.3253 64.924 55.1196 67.2045 54.6482C69.485 54.1768 69.0504 49.4992 67.1996 46.341ZM54.8499 40.2723L54.5959 39.9695L54.6021 37.3095L53.3263 38.3806L53.0162 38.0044L54.8657 36.4509L55.1172 36.7501V39.4138L56.4467 38.2975L56.7604 38.6639L54.8499 40.2723ZM58.0081 33.0557L60.8026 30.3908L58.3988 30.1356L58.4818 29.4333L61.966 29.812L61.905 30.3774L59.1093 33.0472L61.6156 33.311L61.5387 34.0144L57.9459 33.6236L58.0081 33.0557Z" fill="#5868FA"/>
<path d="M73.6807 23.2412L73.5916 24.0607L69.5348 27.9371L73.1716 28.3316L73.0605 29.3526L67.8452 28.792L67.9356 27.9628L71.9911 24.09L68.5032 23.7102L68.6253 22.6904L73.6807 23.2412Z" fill="#5868FA"/>
<path d="M79 17.5841L78.8022 18.1544L75.2728 20.2429L77.7999 21.1234L77.5557 21.833L73.9312 20.5702L74.1326 19.9949L77.6595 17.9065L75.2325 17.0675L75.4852 16.3604L79 17.5841Z" fill="#5868FA"/>
<path d="M74.1875 10.291L74.29 10.7063L73.0045 13.3113L74.843 12.8557L74.9651 13.3723L72.3294 14.0233L72.2269 13.6044L73.5172 11.0043L71.7544 11.4403L71.6323 10.9236L74.1875 10.291Z" fill="#5868FA"/>
</g>
<path d="M97.2532 30.2642C95.7463 30.2642 94.3178 30.0685 92.9675 29.6771C91.6368 29.2661 90.5507 28.7182 89.7092 28.0333C89.2591 27.7006 89.034 27.2309 89.034 26.6243C89.034 26.2133 89.1514 25.8611 89.3863 25.5675C89.6407 25.2544 89.9342 25.0979 90.2669 25.0979C90.6191 25.0979 91.0203 25.2348 91.4704 25.5088C92.3119 26.1155 93.1925 26.5558 94.1123 26.8298C95.0321 27.1037 96.0497 27.2407 97.1651 27.2407C98.5937 27.2407 99.6896 26.9961 100.453 26.5069C101.216 25.9981 101.598 25.2642 101.598 24.3053C101.598 23.5617 101.236 22.9942 100.511 22.6028C99.807 22.1918 98.623 21.8004 96.9596 21.4286C95.2375 21.0568 93.8383 20.6263 92.762 20.137C91.6857 19.6478 90.8736 19.0216 90.3256 18.2584C89.7777 17.4952 89.5037 16.5265 89.5037 15.3523C89.5037 14.139 89.8462 13.0529 90.5311 12.094C91.216 11.1351 92.1651 10.3915 93.3784 9.86308C94.6113 9.31514 95.991 9.04117 97.5174 9.04117C100.316 9.04117 102.596 9.78481 104.357 11.2721C104.611 11.4873 104.787 11.7026 104.885 11.9179C105.003 12.1136 105.061 12.368 105.061 12.6811C105.061 13.092 104.934 13.4541 104.68 13.7672C104.445 14.0607 104.161 14.2075 103.828 14.2075C103.633 14.2075 103.447 14.1781 103.271 14.1194C103.114 14.0607 102.899 13.9531 102.625 13.7965C101.823 13.2095 101.04 12.7789 100.277 12.505C99.533 12.2114 98.6133 12.0646 97.5174 12.0646C96.1866 12.0646 95.1299 12.3386 94.3471 12.8866C93.5839 13.4149 93.2023 14.1586 93.2023 15.1175C93.2023 15.9198 93.5448 16.5362 94.2297 16.9668C94.9146 17.3973 96.079 17.7985 97.7228 18.1703C99.4645 18.5617 100.874 19.002 101.95 19.4912C103.046 19.9609 103.877 20.5675 104.445 21.3112C105.032 22.0548 105.326 22.9844 105.326 24.0998C105.326 25.3131 104.983 26.3894 104.298 27.3288C103.633 28.2485 102.684 28.9726 101.451 29.501C100.238 30.0098 98.8383 30.2642 97.2532 30.2642ZM110.307 30.1761C109.778 30.1761 109.338 30.0294 108.986 29.7358C108.653 29.4227 108.487 28.9824 108.487 28.4149V10.8905C108.487 10.323 108.653 9.89244 108.986 9.5989C109.338 9.30535 109.778 9.15858 110.307 9.15858C110.835 9.15858 111.275 9.30535 111.628 9.5989C111.98 9.89244 112.156 10.323 112.156 10.8905V28.4149C112.156 28.9824 111.98 29.4227 111.628 29.7358C111.275 30.0294 110.835 30.1761 110.307 30.1761ZM127.3 26.0665C127.633 26.0665 127.897 26.1938 128.093 26.4482C128.308 26.7026 128.416 27.045 128.416 27.4755C128.416 28.0822 128.054 28.591 127.329 29.002C126.664 29.3738 125.911 29.6771 125.069 29.9119C124.228 30.1272 123.425 30.2348 122.662 30.2348C120.353 30.2348 118.523 29.5695 117.173 28.2388C115.823 26.908 115.147 25.0881 115.147 22.7789C115.147 21.3112 115.441 20.0098 116.028 18.8748C116.615 17.7398 117.437 16.8591 118.494 16.2329C119.57 15.6067 120.783 15.2936 122.134 15.2936C123.425 15.2936 124.551 15.5773 125.509 16.1449C126.468 16.7124 127.212 17.5147 127.74 18.5519C128.269 19.5891 128.533 20.8122 128.533 22.2212C128.533 23.0626 128.161 23.4834 127.418 23.4834H118.758C118.875 24.8337 119.257 25.8317 119.903 26.4775C120.549 27.1037 121.488 27.4168 122.721 27.4168C123.347 27.4168 123.895 27.3386 124.365 27.182C124.854 27.0255 125.402 26.8102 126.009 26.5362C126.596 26.2231 127.026 26.0665 127.3 26.0665ZM122.222 17.8768C121.224 17.8768 120.421 18.1899 119.815 18.8161C119.228 19.4423 118.875 20.3425 118.758 21.5167H125.392C125.353 20.3229 125.059 19.4227 124.511 18.8161C123.964 18.1899 123.2 17.8768 122.222 17.8768ZM142.894 26.0665C143.227 26.0665 143.491 26.1938 143.687 26.4482C143.902 26.7026 144.01 27.045 144.01 27.4755C144.01 28.0822 143.648 28.591 142.924 29.002C142.258 29.3738 141.505 29.6771 140.664 29.9119C139.822 30.1272 139.02 30.2348 138.257 30.2348C135.947 30.2348 134.118 29.5695 132.767 28.2388C131.417 26.908 130.742 25.0881 130.742 22.7789C130.742 21.3112 131.035 20.0098 131.622 18.8748C132.21 17.7398 133.031 16.8591 134.088 16.2329C135.165 15.6067 136.378 15.2936 137.728 15.2936C139.02 15.2936 140.145 15.5773 141.104 16.1449C142.063 16.7124 142.806 17.5147 143.335 18.5519C143.863 19.5891 144.127 20.8122 144.127 22.2212C144.127 23.0626 143.756 23.4834 143.012 23.4834H134.352C134.47 24.8337 134.851 25.8317 135.497 26.4775C136.143 27.1037 137.082 27.4168 138.315 27.4168C138.941 27.4168 139.489 27.3386 139.959 27.182C140.448 27.0255 140.996 26.8102 141.603 26.5362C142.19 26.2231 142.62 26.0665 142.894 26.0665ZM137.816 17.8768C136.818 17.8768 136.016 18.1899 135.409 18.8161C134.822 19.4423 134.47 20.3425 134.352 21.5167H140.986C140.947 20.3229 140.654 19.4227 140.106 18.8161C139.558 18.1899 138.795 17.8768 137.816 17.8768ZM155.377 15.2936C156.61 15.2936 157.706 15.6067 158.665 16.2329C159.643 16.8591 160.397 17.7496 160.925 18.9041C161.473 20.0392 161.747 21.3503 161.747 22.8376C161.747 24.3249 161.473 25.6262 160.925 26.7417C160.397 27.8572 159.653 28.7182 158.694 29.3249C157.735 29.9315 156.63 30.2348 155.377 30.2348C154.36 30.2348 153.45 30.0196 152.647 29.589C151.845 29.1585 151.229 28.5616 150.798 27.7984V33.7867C150.798 34.2955 150.632 34.6967 150.299 34.9902C149.966 35.2837 149.526 35.4305 148.978 35.4305C148.43 35.4305 147.98 35.274 147.628 34.9608C147.295 34.6477 147.129 34.2368 147.129 33.728V17.0842C147.129 16.5558 147.285 16.1351 147.598 15.822C147.931 15.5089 148.371 15.3523 148.919 15.3523C149.467 15.3523 149.908 15.5089 150.24 15.822C150.573 16.1351 150.739 16.5558 150.739 17.0842V17.818C151.17 17.0157 151.786 16.3993 152.589 15.9687C153.411 15.5186 154.34 15.2936 155.377 15.2936ZM154.409 27.3875C155.563 27.3875 156.463 26.9961 157.109 26.2133C157.755 25.411 158.078 24.2857 158.078 22.8376C158.078 21.3503 157.755 20.1957 157.109 19.3738C156.463 18.5519 155.563 18.1409 154.409 18.1409C153.234 18.1409 152.324 18.5421 151.679 19.3445C151.052 20.1468 150.739 21.2916 150.739 22.7789C150.739 24.2466 151.052 25.3816 151.679 26.184C152.324 26.9863 153.234 27.3875 154.409 27.3875ZM199 10.3034C199.137 9.91201 199.352 9.61847 199.645 9.42277C199.958 9.22708 200.301 9.12923 200.673 9.12923C201.142 9.12923 201.544 9.276 201.876 9.56954C202.229 9.86308 202.405 10.2545 202.405 10.7437C202.405 10.9198 202.356 11.1742 202.258 11.5069L195.947 28.9726C195.79 29.364 195.526 29.6673 195.154 29.8826C194.802 30.0978 194.411 30.2055 193.98 30.2055C193.549 30.2055 193.148 30.0978 192.776 29.8826C192.405 29.6673 192.15 29.364 192.013 28.9726L187.14 15.1468L182.18 28.9726C182.023 29.364 181.759 29.6673 181.387 29.8826C181.035 30.0978 180.643 30.2055 180.213 30.2055C179.782 30.2055 179.381 30.0978 179.009 29.8826C178.657 29.6673 178.413 29.364 178.276 28.9726L171.964 11.5069C171.867 11.2134 171.818 10.959 171.818 10.7437C171.818 10.2545 171.994 9.86308 172.346 9.56954C172.718 9.276 173.148 9.12923 173.638 9.12923C174.029 9.12923 174.381 9.22708 174.694 9.42277C175.007 9.61847 175.233 9.91201 175.369 10.3034L180.36 24.6576L185.497 10.3915C185.634 10.0001 185.859 9.69674 186.172 9.48148C186.485 9.24665 186.827 9.12923 187.199 9.12923C187.571 9.12923 187.913 9.24665 188.227 9.48148C188.559 9.69674 188.794 10.0099 188.931 10.4208L193.921 24.8337L199 10.3034ZM214.99 26.0665C215.322 26.0665 215.587 26.1938 215.782 26.4482C215.998 26.7026 216.105 27.045 216.105 27.4755C216.105 28.0822 215.743 28.591 215.019 29.002C214.354 29.3738 213.6 29.6771 212.759 29.9119C211.917 30.1272 211.115 30.2348 210.352 30.2348C208.043 30.2348 206.213 29.5695 204.863 28.2388C203.512 26.908 202.837 25.0881 202.837 22.7789C202.837 21.3112 203.131 20.0098 203.718 18.8748C204.305 17.7398 205.127 16.8591 206.184 16.2329C207.26 15.6067 208.473 15.2936 209.823 15.2936C211.115 15.2936 212.24 15.5773 213.199 16.1449C214.158 16.7124 214.902 17.5147 215.43 18.5519C215.958 19.5891 216.223 20.8122 216.223 22.2212C216.223 23.0626 215.851 23.4834 215.107 23.4834H206.448C206.565 24.8337 206.947 25.8317 207.593 26.4775C208.238 27.1037 209.178 27.4168 210.411 27.4168C211.037 27.4168 211.585 27.3386 212.054 27.182C212.544 27.0255 213.092 26.8102 213.698 26.5362C214.285 26.2231 214.716 26.0665 214.99 26.0665ZM209.911 17.8768C208.913 17.8768 208.111 18.1899 207.504 18.8161C206.917 19.4423 206.565 20.3425 206.448 21.5167H213.082C213.043 20.3229 212.749 19.4227 212.201 18.8161C211.653 18.1899 210.89 17.8768 209.911 17.8768ZM221.044 30.1761C220.516 30.1761 220.075 30.0294 219.723 29.7358C219.39 29.4227 219.224 28.9824 219.224 28.4149V10.8905C219.224 10.323 219.39 9.89244 219.723 9.5989C220.075 9.30535 220.516 9.15858 221.044 9.15858C221.572 9.15858 222.013 9.30535 222.365 9.5989C222.717 9.89244 222.893 10.323 222.893 10.8905V28.4149C222.893 28.9824 222.717 29.4227 222.365 29.7358C222.013 30.0294 221.572 30.1761 221.044 30.1761ZM228.497 30.1761C227.969 30.1761 227.529 30.0294 227.176 29.7358C226.844 29.4227 226.677 28.9824 226.677 28.4149V10.8905C226.677 10.323 226.844 9.89244 227.176 9.5989C227.529 9.30535 227.969 9.15858 228.497 9.15858C229.026 9.15858 229.466 9.30535 229.818 9.5989C230.17 9.89244 230.347 10.323 230.347 10.8905V28.4149C230.347 28.9824 230.17 29.4227 229.818 29.7358C229.466 30.0294 229.026 30.1761 228.497 30.1761Z" fill="#242646"/>
<path d="M98.4488 40.1485C98.7026 40.1485 98.9045 40.235 99.0544 40.408C99.2159 40.5695 99.2966 40.7829 99.2966 41.0482V51.6199C99.2966 51.8852 99.2159 52.1044 99.0544 52.2774C98.8929 52.4389 98.6853 52.5196 98.4315 52.5196C98.1316 52.5196 97.9009 52.4043 97.7394 52.1736L90.957 43.2283V51.6199C90.957 51.8852 90.8762 52.1044 90.7147 52.2774C90.5648 52.4389 90.3629 52.5196 90.1092 52.5196C89.8554 52.5196 89.6535 52.4389 89.5036 52.2774C89.3536 52.1159 89.2786 51.8967 89.2786 51.6199V41.0482C89.2786 40.7829 89.3594 40.5695 89.5209 40.408C89.6824 40.235 89.89 40.1485 90.1438 40.1485C90.4437 40.1485 90.6744 40.2639 90.8358 40.4946L97.6183 49.4571V41.0482C97.6183 40.7829 97.6933 40.5695 97.8433 40.408C97.9932 40.235 98.1951 40.1485 98.4488 40.1485ZM106.48 52.4331C106.203 52.4331 105.984 52.3581 105.822 52.2082C105.672 52.0467 105.598 51.8333 105.598 51.568V41.1001C105.598 40.8348 105.672 40.6272 105.822 40.4773C105.984 40.3158 106.203 40.235 106.48 40.235H112.847C113.112 40.235 113.314 40.2985 113.453 40.4253C113.603 40.5522 113.678 40.731 113.678 40.9617C113.678 41.1924 113.603 41.3712 113.453 41.4981C113.314 41.6134 113.112 41.6711 112.847 41.6711H107.345V45.5122H112.501C112.766 45.5122 112.968 45.5756 113.107 45.7025C113.257 45.8294 113.332 46.0082 113.332 46.2389C113.332 46.4696 113.257 46.6484 113.107 46.7753C112.968 46.9022 112.766 46.9656 112.501 46.9656H107.345V50.997H112.847C113.401 50.997 113.678 51.2335 113.678 51.7064C113.678 51.9371 113.603 52.1159 113.453 52.2428C113.314 52.3697 113.112 52.4331 112.847 52.4331H106.48ZM134.597 40.6849C134.666 40.5003 134.77 40.3619 134.908 40.2696C135.046 40.1774 135.202 40.1312 135.375 40.1312C135.594 40.1312 135.785 40.2062 135.946 40.3561C136.119 40.4946 136.206 40.6791 136.206 40.9098C136.206 41.0367 136.183 41.152 136.137 41.2559L132.313 51.9486C132.232 52.1447 132.105 52.2947 131.932 52.3985C131.759 52.5023 131.569 52.5542 131.361 52.5542C131.165 52.5542 130.98 52.5023 130.807 52.3985C130.634 52.2947 130.513 52.1447 130.444 51.9486L127.295 43.0207L124.077 51.9486C124.008 52.1447 123.887 52.2947 123.713 52.3985C123.54 52.5023 123.356 52.5542 123.16 52.5542C122.952 52.5542 122.762 52.5023 122.589 52.3985C122.427 52.2947 122.306 52.1447 122.225 51.9486L118.402 41.2559C118.356 41.152 118.332 41.0367 118.332 40.9098C118.332 40.6791 118.419 40.4946 118.592 40.3561C118.765 40.2062 118.973 40.1312 119.215 40.1312C119.388 40.1312 119.544 40.1774 119.682 40.2696C119.832 40.3619 119.942 40.5003 120.011 40.6849L123.212 49.8897L126.465 40.7714C126.534 40.5753 126.643 40.4253 126.793 40.3215C126.955 40.2177 127.128 40.1658 127.312 40.1658C127.497 40.1658 127.664 40.2235 127.814 40.3388C127.964 40.4427 128.079 40.5926 128.16 40.7887L131.344 49.9762L134.597 40.6849ZM160.57 40.1485C160.823 40.1485 161.031 40.235 161.193 40.408C161.354 40.5695 161.435 40.7829 161.435 41.0482V51.6718C161.435 51.9371 161.36 52.1447 161.21 52.2947C161.071 52.4446 160.875 52.5196 160.622 52.5196C160.379 52.5196 160.189 52.4446 160.051 52.2947C159.912 52.1447 159.843 51.9371 159.843 51.6718V43.6263L156.452 50.08C156.233 50.4837 155.95 50.6856 155.604 50.6856C155.258 50.6856 154.975 50.4837 154.756 50.08L151.348 43.6955V51.6718C151.348 51.9371 151.278 52.1447 151.14 52.2947C151.002 52.4446 150.805 52.5196 150.552 52.5196C150.309 52.5196 150.113 52.4446 149.963 52.2947C149.825 52.1332 149.756 51.9256 149.756 51.6718V41.0482C149.756 40.7829 149.837 40.5695 149.998 40.408C150.16 40.235 150.367 40.1485 150.621 40.1485C150.978 40.1485 151.267 40.3561 151.486 40.7714L155.621 48.6785L159.722 40.7714C159.941 40.3561 160.224 40.1485 160.57 40.1485ZM168.629 52.4331C168.353 52.4331 168.133 52.3581 167.972 52.2082C167.822 52.0467 167.747 51.8333 167.747 51.568V41.1001C167.747 40.8348 167.822 40.6272 167.972 40.4773C168.133 40.3158 168.353 40.235 168.629 40.235H174.997C175.262 40.235 175.464 40.2985 175.602 40.4253C175.752 40.5522 175.827 40.731 175.827 40.9617C175.827 41.1924 175.752 41.3712 175.602 41.4981C175.464 41.6134 175.262 41.6711 174.997 41.6711H169.495V45.5122H174.651C174.916 45.5122 175.118 45.5756 175.256 45.7025C175.406 45.8294 175.481 46.0082 175.481 46.2389C175.481 46.4696 175.406 46.6484 175.256 46.7753C175.118 46.9022 174.916 46.9656 174.651 46.9656H169.495V50.997H174.997C175.55 50.997 175.827 51.2335 175.827 51.7064C175.827 51.9371 175.752 52.1159 175.602 52.2428C175.464 52.3697 175.262 52.4331 174.997 52.4331H168.629ZM190.433 51.1527C190.583 51.3142 190.658 51.493 190.658 51.6891C190.658 51.9083 190.571 52.1044 190.398 52.2774C190.225 52.4389 190.029 52.5196 189.81 52.5196C189.568 52.5196 189.36 52.4158 189.187 52.2082L185.432 47.4847L181.661 52.2082C181.488 52.4158 181.286 52.5196 181.055 52.5196C180.836 52.5196 180.64 52.4389 180.467 52.2774C180.294 52.1044 180.207 51.9083 180.207 51.6891C180.207 51.5046 180.276 51.3258 180.415 51.1527L184.394 46.2216L180.605 41.5154C180.467 41.3654 180.398 41.1866 180.398 40.979C180.398 40.7599 180.478 40.5695 180.64 40.408C180.813 40.235 181.009 40.1485 181.228 40.1485C181.47 40.1485 181.678 40.2523 181.851 40.46L185.432 44.9758L189.014 40.46C189.176 40.2523 189.383 40.1485 189.637 40.1485C189.856 40.1485 190.052 40.235 190.225 40.408C190.398 40.5695 190.485 40.7599 190.485 40.979C190.485 41.1751 190.41 41.3539 190.26 41.5154L186.471 46.2216L190.433 51.1527ZM196.857 52.5196C196.592 52.5196 196.378 52.4389 196.217 52.2774C196.055 52.1159 195.975 51.8967 195.975 51.6199V41.0482C195.975 40.7829 196.055 40.5695 196.217 40.408C196.378 40.235 196.592 40.1485 196.857 40.1485C197.134 40.1485 197.353 40.2293 197.515 40.3907C197.676 40.5522 197.757 40.7714 197.757 41.0482V51.6199C197.757 51.8967 197.676 52.1159 197.515 52.2774C197.365 52.4389 197.145 52.5196 196.857 52.5196ZM209.36 52.5715C208.195 52.5715 207.18 52.3235 206.315 51.8275C205.449 51.32 204.786 50.5991 204.325 49.6647C203.863 48.7189 203.633 47.6058 203.633 46.3254C203.633 45.0566 203.863 43.955 204.325 43.0207C204.786 42.0748 205.449 41.3539 206.315 40.8579C207.18 40.3504 208.195 40.0966 209.36 40.0966C210.121 40.0966 210.842 40.2177 211.523 40.46C212.203 40.6906 212.797 41.0309 213.305 41.4808C213.524 41.6538 213.633 41.8845 213.633 42.1729C213.633 42.3805 213.576 42.5593 213.46 42.7092C213.345 42.8477 213.207 42.9169 213.045 42.9169C212.849 42.9169 212.659 42.8419 212.474 42.6919C211.92 42.2767 211.413 41.9883 210.952 41.8268C210.502 41.6538 209.988 41.5673 209.412 41.5673C208.143 41.5673 207.168 41.9768 206.488 42.7958C205.807 43.6147 205.467 44.7913 205.467 46.3254C205.467 47.8711 205.807 49.0534 206.488 49.8724C207.168 50.6913 208.143 51.1008 209.412 51.1008C209.965 51.1008 210.467 51.0143 210.917 50.8413C211.378 50.6683 211.897 50.3799 212.474 49.9762C212.705 49.8262 212.895 49.7513 213.045 49.7513C213.207 49.7513 213.345 49.8262 213.46 49.9762C213.576 50.1146 213.633 50.2876 213.633 50.4953C213.633 50.7836 213.524 51.0143 213.305 51.1873C212.797 51.6372 212.203 51.9832 211.523 52.2255C210.842 52.4562 210.121 52.5715 209.36 52.5715ZM224.258 52.5715C223.104 52.5715 222.101 52.3178 221.247 51.8102C220.405 51.3027 219.753 50.5818 219.292 49.6474C218.83 48.7131 218.6 47.6115 218.6 46.3427C218.6 45.0623 218.825 43.955 219.275 43.0207C219.736 42.0748 220.393 41.3539 221.247 40.8579C222.101 40.3504 223.104 40.0966 224.258 40.0966C225.423 40.0966 226.432 40.3504 227.286 40.8579C228.139 41.3539 228.791 42.0748 229.241 43.0207C229.702 43.955 229.933 45.0566 229.933 46.3254C229.933 47.5942 229.702 48.7016 229.241 49.6474C228.791 50.5818 228.139 51.3027 227.286 51.8102C226.432 52.3178 225.423 52.5715 224.258 52.5715ZM224.258 51.1181C225.48 51.1181 226.432 50.7029 227.113 49.8724C227.793 49.0419 228.133 47.8595 228.133 46.3254C228.133 44.7913 227.793 43.6147 227.113 42.7958C226.443 41.9652 225.492 41.55 224.258 41.55C223.046 41.55 222.101 41.9652 221.42 42.7958C220.751 43.6147 220.417 44.7913 220.417 46.3254C220.417 47.8595 220.751 49.0419 221.42 49.8724C222.101 50.7029 223.046 51.1181 224.258 51.1181Z" fill="#5868FA"/>
<defs>
<clipPath id="clip0_278_93990">
<rect width="79" height="50.707" fill="white" transform="translate(0 4)"/>
</clipPath>
</defs>
</svg>
