<svg width="1280" height="574" viewBox="0 0 1280 574" fill="none" xmlns="http://www.w3.org/2000/svg">
<rect width="1280" height="574" fill="url(#paint0_linear_112_89975)"/>
<path opacity="0.2" d="M232.952 311.78L235.932 317.813L242.575 318.782L237.763 323.486L238.876 330.093L232.952 326.969L226.991 330.093L228.14 323.486L223.328 318.782L229.971 317.813L232.952 311.78Z" fill="white"/>
<path opacity="0.2" d="M933.5 35L935.203 38.6307L939 39.2141L936.25 42.0236L936.886 46L933.5 44.1198L930.093 46L930.75 42.0236L928 39.2141L931.797 38.6307L933.5 35Z" fill="white"/>
<path opacity="0.2" d="M737.945 35L739.649 38.6307L743.445 39.2141L740.695 42.0236L741.332 46L737.945 44.1198L734.539 46L735.195 42.0236L732.445 39.2141L736.242 38.6307L737.945 35Z" fill="white"/>
<path opacity="0.2" d="M1019.5 145L1022.41 150.929L1029 151.882L1024.25 156.471L1025.35 163L1019.5 159.929L1013.62 163L1014.75 156.471L1010 151.882L1016.56 150.929L1019.5 145Z" fill="white"/>
<path opacity="0.2" d="M823.945 100.556L826.852 106.485L833.445 107.438L828.695 112.026L829.794 118.556L823.945 115.485L818.061 118.556L819.195 112.026L814.445 107.438L821.003 106.485L823.945 100.556Z" fill="white"/>
<path opacity="0.2" d="M194.293 135.614L197.274 141.647L203.917 142.616L199.105 147.32L200.254 153.927L194.293 150.803L188.333 153.927L189.482 147.32L184.67 142.616L191.313 141.647L194.293 135.614Z" fill="white"/>
<path opacity="0.2" d="M94.2933 15.6143L97.2737 21.6469L103.917 22.6164L99.105 27.3204L100.254 33.9275L94.2933 30.8035L88.3325 33.9275L89.4816 27.3204L84.6699 22.6164L91.3129 21.6469L94.2933 15.6143Z" fill="white"/>
<path opacity="0.2" d="M125.961 290.954L127.792 294.689L131.922 295.263L128.941 298.172L129.623 302.265L125.961 300.326L122.298 302.265L122.98 298.172L120 295.263L124.129 294.689L125.961 290.954Z" fill="white"/>
<path opacity="0.2" d="M599.738 46.1113L601.569 49.8458L605.699 50.4203L602.719 53.3289L603.401 57.4224L599.738 55.4834L596.075 57.4224L596.758 53.3289L593.777 50.4203L597.907 49.8458L599.738 46.1113Z" fill="white"/>
<path opacity="0.2" d="M1206.15 192.75L1207.98 196.449L1212.11 197.059L1209.13 199.968L1209.85 204.061L1206.15 202.122L1202.48 204.061L1203.2 199.968L1200.22 197.059L1204.32 196.449L1206.15 192.75Z" fill="white"/>
<path opacity="0.2" d="M621.53 485.972L623.362 489.706L627.491 490.281L624.511 493.189L625.229 497.283L621.53 495.344L617.868 497.283L618.55 493.189L615.605 490.281L619.699 489.706L621.53 485.972Z" fill="white"/>
<path opacity="0.2" d="M979.861 457.389L981.692 461.087L985.786 461.698L982.842 464.606L983.524 468.7L979.861 466.761L976.163 468.7L976.881 464.606L973.9 461.698L978.03 461.087L979.861 457.389Z" fill="white"/>
<path opacity="0.2" d="M390.892 380.15L392.724 383.849L396.817 384.459L393.837 387.368L394.555 391.461L390.892 389.522L387.194 391.461L387.912 387.368L384.932 384.459L389.025 383.849L390.892 380.15Z" fill="white"/>
<path opacity="0.2" d="M286.722 71.626L288.589 75.3245L292.683 75.935L289.702 78.8436L290.42 82.9371L286.722 80.9981L283.059 82.9371L283.777 78.8436L280.797 75.935L284.89 75.3245L286.722 71.626Z" fill="white"/>
<path opacity="0.2" d="M402.37 110.111L404.237 113.81L408.331 114.42L405.351 117.329L406.069 121.422L402.37 119.483L398.708 121.422L399.426 117.329L396.445 114.42L400.539 113.81L402.37 110.111Z" fill="white"/>
<path opacity="0.2" d="M66.7218 121.626L68.589 125.325L72.6825 125.935L69.7022 128.844L70.4203 132.937L66.7218 130.998L63.0591 132.937L63.7773 128.844L60.7969 125.935L64.8904 125.325L66.7218 121.626Z" fill="white"/>
<path opacity="0.2" d="M413.925 10.5557L415.792 14.2542L419.886 14.8647L416.905 17.7732L417.623 21.8668L413.925 19.9277L410.262 21.8668L410.98 17.7732L408 14.8647L412.094 14.2542L413.925 10.5557Z" fill="white"/>
<path opacity="0.2" d="M443.82 506.547L445.651 510.281L449.781 510.856L446.801 513.764L447.483 517.858L443.82 515.919L440.122 517.858L440.84 513.764L437.859 510.856L441.989 510.281L443.82 506.547Z" fill="white"/>
<path opacity="0.2" d="M749.041 448.591L750.872 452.325L754.966 452.936L751.985 455.808L752.704 459.938L749.041 457.999L745.342 459.938L746.061 455.808L743.08 452.936L747.174 452.325L749.041 448.591Z" fill="white"/>
<mask id="mask0_112_89975" style="mask-type:alpha" maskUnits="userSpaceOnUse" x="0" y="0" width="1280" height="574">
<rect width="1280" height="574" fill="url(#paint1_linear_112_89975)"/>
</mask>
<g mask="url(#mask0_112_89975)">
<path d="M448.665 495.386H413.316V512.186H448.665V495.386Z" fill="#E0E0E0"/>
<path d="M448.665 527.753H413.316V544.553H448.665V527.753Z" fill="#E0E0E0"/>
<path d="M448.665 560.139H413.316V576.939H448.665V560.139Z" fill="#E0E0E0"/>
<path d="M533.954 476.01H407.926V782.679H533.954V476.01Z" fill="#407BFF"/>
<path opacity="0.4" d="M503.794 476.01H407.926V782.679H503.794V476.01Z" fill="white"/>
<path d="M450.762 501.201H417.217V517.486H450.762V501.201Z" fill="#407BFF"/>
<path opacity="0.2" d="M450.762 501.201H419.443V517.486H450.762V501.201Z" fill="white"/>
<path d="M489.57 501.201H456.025V517.486H489.57V501.201Z" fill="#407BFF"/>
<path opacity="0.2" d="M489.57 501.201H458.252V517.486H489.57V501.201Z" fill="white"/>
<path d="M450.762 531.857H417.217V548.142H450.762V531.857Z" fill="#407BFF"/>
<path opacity="0.2" d="M450.762 531.857H419.443V548.142H450.762V531.857Z" fill="white"/>
<path d="M489.57 531.857H456.025V548.142H489.57V531.857Z" fill="#407BFF"/>
<path opacity="0.2" d="M489.57 531.857H458.252V548.142H489.57V531.857Z" fill="white"/>
<path d="M450.762 571.032H417.217V587.317H450.762V571.032Z" fill="#407BFF"/>
<path opacity="0.2" d="M450.762 571.032H419.443V587.317H450.762V571.032Z" fill="white"/>
<path d="M489.57 571.032H456.025V587.317H489.57V571.032Z" fill="#407BFF"/>
<path opacity="0.2" d="M489.57 571.032H458.252V587.317H489.57V571.032Z" fill="white"/>
<path d="M533.971 466.938H402V476.728H533.971V466.938Z" fill="#407BFF"/>
<path opacity="0.2" d="M533.97 466.938H503.811V476.728H533.97V466.938Z" fill="black"/>
<path opacity="0.7" d="M533.97 476.728H503.811V782.679H533.97V476.728Z" fill="white"/>
<path opacity="0.2" d="M533.954 557.729H407.926V560.525H533.954V557.729Z" fill="white"/>
<path d="M260.024 369.451H243.33V386.144H260.024V369.451Z" fill="#E6E6E6"/>
<path d="M260.024 369.451H244.803V386.144H260.024V369.451Z" fill="#F5F5F5"/>
<path d="M285.32 369.451H268.627V386.144H285.32V369.451Z" fill="#E6E6E6"/>
<path d="M285.319 369.451H270.098V386.144H285.319V369.451Z" fill="#F5F5F5"/>
<path d="M310.604 369.451H293.91V386.144H310.604V369.451Z" fill="#E6E6E6"/>
<path d="M310.604 369.451H295.383V386.144H310.604V369.451Z" fill="#F5F5F5"/>
<path d="M260.024 414.475H243.33V431.168H260.024V414.475Z" fill="#E6E6E6"/>
<path d="M260.024 414.475H244.803V431.168H260.024V414.475Z" fill="#F5F5F5"/>
<path d="M285.32 414.475H268.627V431.168H285.32V414.475Z" fill="#E6E6E6"/>
<path d="M285.319 414.475H270.098V431.168H285.319V414.475Z" fill="#F5F5F5"/>
<path d="M310.604 414.475H293.91V431.168H310.604V414.475Z" fill="#E6E6E6"/>
<path d="M310.604 414.475H295.383V431.168H310.604V414.475Z" fill="#F5F5F5"/>
<path d="M260.024 439.067H243.33V455.76H260.024V439.067Z" fill="#E6E6E6"/>
<path d="M260.024 439.067H244.803V455.76H260.024V439.067Z" fill="#F5F5F5"/>
<path d="M285.32 439.067H268.627V455.76H285.32V439.067Z" fill="#E6E6E6"/>
<path d="M285.319 439.067H270.098V455.76H285.319V439.067Z" fill="#F5F5F5"/>
<path d="M310.604 439.067H293.91V455.76H310.604V439.067Z" fill="#E6E6E6"/>
<path d="M310.604 439.067H295.383V455.76H310.604V439.067Z" fill="#F5F5F5"/>
<path d="M260.024 489.109H243.33V505.802H260.024V489.109Z" fill="#E6E6E6"/>
<path d="M260.024 489.109H244.803V505.802H260.024V489.109Z" fill="#F5F5F5"/>
<path d="M285.32 489.109H268.627V505.802H285.32V489.109Z" fill="#E6E6E6"/>
<path d="M285.319 489.109H270.098V505.802H285.319V489.109Z" fill="#F5F5F5"/>
<path d="M310.604 489.109H293.91V505.802H310.604V489.109Z" fill="#E6E6E6"/>
<path d="M310.604 489.109H295.383V505.802H310.604V489.109Z" fill="#F5F5F5"/>
<path d="M260.024 513.701H243.33V530.395H260.024V513.701Z" fill="#E6E6E6"/>
<path d="M260.024 513.701H244.803V530.395H260.024V513.701Z" fill="#F5F5F5"/>
<path d="M285.32 513.701H268.627V530.395H285.32V513.701Z" fill="#E6E6E6"/>
<path d="M285.319 513.701H270.098V530.395H285.319V513.701Z" fill="#F5F5F5"/>
<path d="M310.604 513.701H293.91V530.395H310.604V513.701Z" fill="#E6E6E6"/>
<path d="M310.604 513.701H295.383V530.395H310.604V513.701Z" fill="#F5F5F5"/>
<path d="M343.556 397.883H234.895V399.432H343.556V397.883Z" fill="#E0E0E0"/>
<path d="M343.556 474.86H234.895V476.409H343.556V474.86Z" fill="#E0E0E0"/>
<path d="M361.503 370.078H234.727V617.485H361.503V370.078Z" fill="#407BFF"/>
<path opacity="0.4" d="M338.459 370.078H234.727V617.485H338.459V370.078Z" fill="white"/>
<path d="M363.001 370.078H232V374.111H363.001V370.078Z" fill="#407BFF"/>
<path d="M363.001 362H232V366.045H363.001V362Z" fill="#407BFF"/>
<path d="M360.248 366.045H234.727V370.078H360.248V366.045Z" fill="#F0F0F0"/>
<path d="M264.057 384.646H244.572V404.131H264.057V384.646Z" fill="#407BFF"/>
<path opacity="0.2" d="M264.056 384.646H246.287V404.131H264.056V384.646Z" fill="white"/>
<path d="M293.564 384.646H274.08V404.131H293.564V384.646Z" fill="#407BFF"/>
<path opacity="0.2" d="M293.564 384.646H275.795V404.131H293.564V384.646Z" fill="white"/>
<path d="M323.059 384.646H303.574V404.131H323.059V384.646Z" fill="#407BFF"/>
<path opacity="0.2" d="M323.06 384.646H305.291V404.131H323.06V384.646Z" fill="white"/>
<path d="M264.057 413.335H244.572V432.819H264.057V413.335Z" fill="#407BFF"/>
<path opacity="0.2" d="M264.056 413.335H246.287V432.819H264.056V413.335Z" fill="white"/>
<path d="M293.564 413.335H274.08V432.819H293.564V413.335Z" fill="#407BFF"/>
<path opacity="0.2" d="M293.564 413.335H275.795V432.819H293.564V413.335Z" fill="white"/>
<path d="M323.059 413.335H303.574V432.819H323.059V413.335Z" fill="#407BFF"/>
<path opacity="0.2" d="M323.06 413.335H305.291V432.819H323.06V413.335Z" fill="white"/>
<path d="M264.057 465.861H244.572V485.345H264.057V465.861Z" fill="#407BFF"/>
<path opacity="0.2" d="M264.056 465.861H246.287V485.345H264.056V465.861Z" fill="white"/>
<path d="M293.564 465.861H274.08V485.345H293.564V465.861Z" fill="#407BFF"/>
<path opacity="0.2" d="M293.564 465.861H275.795V485.345H293.564V465.861Z" fill="white"/>
<path d="M323.059 465.861H303.574V485.345H323.059V465.861Z" fill="#407BFF"/>
<path opacity="0.2" d="M323.06 465.861H305.291V485.345H323.06V465.861Z" fill="white"/>
<path d="M264.057 494.55H244.572V514.034H264.057V494.55Z" fill="#407BFF"/>
<path opacity="0.2" d="M264.056 494.55H246.287V514.034H264.056V494.55Z" fill="white"/>
<path d="M293.564 494.55H274.08V514.034H293.564V494.55Z" fill="#407BFF"/>
<path opacity="0.2" d="M293.564 494.55H275.795V514.034H293.564V494.55Z" fill="white"/>
<path d="M323.059 494.55H303.574V514.034H323.059V494.55Z" fill="#407BFF"/>
<path opacity="0.2" d="M323.06 494.55H305.291V514.034H323.06V494.55Z" fill="white"/>
<path d="M264.057 552.938H244.572V572.423H264.057V552.938Z" fill="#407BFF"/>
<path opacity="0.2" d="M264.056 552.938H246.287V572.423H264.056V552.938Z" fill="white"/>
<path d="M293.564 552.938H274.08V572.423H293.564V552.938Z" fill="#407BFF"/>
<path opacity="0.2" d="M293.564 552.938H275.795V572.423H293.564V552.938Z" fill="white"/>
<path d="M323.059 552.938H303.574V572.423H323.059V552.938Z" fill="#407BFF"/>
<path opacity="0.2" d="M323.06 552.938H305.291V572.423H323.06V552.938Z" fill="white"/>
<path opacity="0.2" d="M361.503 446.517H234.727V448.322H361.503V446.517Z" fill="white"/>
<path opacity="0.2" d="M361.503 536.309H234.727V538.114H361.503V536.309Z" fill="white"/>
<path opacity="0.7" d="M361.503 374.111H338.447V617.485H361.503V374.111Z" fill="white"/>
<path opacity="0.2" d="M362.988 370.078H338.447V374.111H362.988V370.078Z" fill="black"/>
<path opacity="0.2" d="M362.988 362H338.447V366.033H362.988V362Z" fill="black"/>
<path d="M787.024 449.451H770.33V466.144H787.024V449.451Z" fill="#E6E6E6"/>
<path d="M787.024 449.451H771.803V466.144H787.024V449.451Z" fill="#F5F5F5"/>
<path d="M812.32 449.451H795.627V466.144H812.32V449.451Z" fill="#E6E6E6"/>
<path d="M812.319 449.451H797.098V466.144H812.319V449.451Z" fill="#F5F5F5"/>
<path d="M837.604 449.451H820.91V466.144H837.604V449.451Z" fill="#E6E6E6"/>
<path d="M837.604 449.451H822.383V466.144H837.604V449.451Z" fill="#F5F5F5"/>
<path d="M787.024 494.475H770.33V511.168H787.024V494.475Z" fill="#E6E6E6"/>
<path d="M787.024 494.475H771.803V511.168H787.024V494.475Z" fill="#F5F5F5"/>
<path d="M812.32 494.475H795.627V511.168H812.32V494.475Z" fill="#E6E6E6"/>
<path d="M812.319 494.475H797.098V511.168H812.319V494.475Z" fill="#F5F5F5"/>
<path d="M837.604 494.475H820.91V511.168H837.604V494.475Z" fill="#E6E6E6"/>
<path d="M837.604 494.475H822.383V511.168H837.604V494.475Z" fill="#F5F5F5"/>
<path d="M787.024 519.067H770.33V535.76H787.024V519.067Z" fill="#E6E6E6"/>
<path d="M787.024 519.067H771.803V535.76H787.024V519.067Z" fill="#F5F5F5"/>
<path d="M812.32 519.067H795.627V535.76H812.32V519.067Z" fill="#E6E6E6"/>
<path d="M812.319 519.067H797.098V535.76H812.319V519.067Z" fill="#F5F5F5"/>
<path d="M837.604 519.067H820.91V535.76H837.604V519.067Z" fill="#E6E6E6"/>
<path d="M837.604 519.067H822.383V535.76H837.604V519.067Z" fill="#F5F5F5"/>
<path d="M787.024 569.109H770.33V585.802H787.024V569.109Z" fill="#E6E6E6"/>
<path d="M787.024 569.109H771.803V585.802H787.024V569.109Z" fill="#F5F5F5"/>
<path d="M812.32 569.109H795.627V585.802H812.32V569.109Z" fill="#E6E6E6"/>
<path d="M812.319 569.109H797.098V585.802H812.319V569.109Z" fill="#F5F5F5"/>
<path d="M837.604 569.109H820.91V585.802H837.604V569.109Z" fill="#E6E6E6"/>
<path d="M837.604 569.109H822.383V585.802H837.604V569.109Z" fill="#F5F5F5"/>
<path d="M870.556 477.883H761.895V479.432H870.556V477.883Z" fill="#E0E0E0"/>
<path d="M870.556 554.86H761.895V556.409H870.556V554.86Z" fill="#E0E0E0"/>
<path d="M888.503 450.078H761.727V697.485H888.503V450.078Z" fill="#407BFF"/>
<path opacity="0.4" d="M865.459 450.078H761.727V697.485H865.459V450.078Z" fill="white"/>
<path d="M890.001 450.078H759V454.111H890.001V450.078Z" fill="#407BFF"/>
<path d="M890.001 442H759V446.045H890.001V442Z" fill="#407BFF"/>
<path d="M887.248 446.045H761.727V450.078H887.248V446.045Z" fill="#F0F0F0"/>
<path d="M791.057 464.646H771.572V484.131H791.057V464.646Z" fill="#407BFF"/>
<path opacity="0.2" d="M791.056 464.646H773.287V484.131H791.056V464.646Z" fill="white"/>
<path d="M820.564 464.646H801.08V484.131H820.564V464.646Z" fill="#407BFF"/>
<path opacity="0.2" d="M820.564 464.646H802.795V484.131H820.564V464.646Z" fill="white"/>
<path d="M850.059 464.646H830.574V484.131H850.059V464.646Z" fill="#407BFF"/>
<path opacity="0.2" d="M850.06 464.646H832.291V484.131H850.06V464.646Z" fill="white"/>
<path d="M791.057 493.335H771.572V512.819H791.057V493.335Z" fill="#407BFF"/>
<path opacity="0.2" d="M791.056 493.335H773.287V512.819H791.056V493.335Z" fill="white"/>
<path d="M820.564 493.335H801.08V512.819H820.564V493.335Z" fill="#407BFF"/>
<path opacity="0.2" d="M820.564 493.335H802.795V512.819H820.564V493.335Z" fill="white"/>
<path d="M850.059 493.335H830.574V512.819H850.059V493.335Z" fill="#407BFF"/>
<path opacity="0.2" d="M850.06 493.335H832.291V512.819H850.06V493.335Z" fill="white"/>
<path d="M791.057 545.861H771.572V565.345H791.057V545.861Z" fill="#407BFF"/>
<path opacity="0.2" d="M791.056 545.861H773.287V565.345H791.056V545.861Z" fill="white"/>
<path d="M820.564 545.861H801.08V565.345H820.564V545.861Z" fill="#407BFF"/>
<path opacity="0.2" d="M820.564 545.861H802.795V565.345H820.564V545.861Z" fill="white"/>
<path d="M850.059 545.861H830.574V565.345H850.059V545.861Z" fill="#407BFF"/>
<path opacity="0.2" d="M850.06 545.861H832.291V565.345H850.06V545.861Z" fill="white"/>
<path opacity="0.2" d="M888.503 526.517H761.727V528.322H888.503V526.517Z" fill="white"/>
<path opacity="0.7" d="M888.503 454.111H865.447V697.485H888.503V454.111Z" fill="white"/>
<path opacity="0.2" d="M889.988 450.078H865.447V454.111H889.988V450.078Z" fill="black"/>
<path opacity="0.2" d="M889.988 442H865.447V446.033H889.988V442Z" fill="black"/>
<path d="M55.0236 429.451H38.3301V446.144H55.0236V429.451Z" fill="#E6E6E6"/>
<path d="M55.024 429.451H39.8027V446.144H55.024V429.451Z" fill="#F5F5F5"/>
<path d="M80.3205 429.451H63.627V446.144H80.3205V429.451Z" fill="#E6E6E6"/>
<path d="M80.319 429.451H65.0977V446.144H80.319V429.451Z" fill="#F5F5F5"/>
<path d="M105.604 429.451H88.9102V446.144H105.604V429.451Z" fill="#E6E6E6"/>
<path d="M105.604 429.451H90.3828V446.144H105.604V429.451Z" fill="#F5F5F5"/>
<path d="M55.0236 474.475H38.3301V491.168H55.0236V474.475Z" fill="#E6E6E6"/>
<path d="M55.024 474.475H39.8027V491.168H55.024V474.475Z" fill="#F5F5F5"/>
<path d="M80.3205 474.475H63.627V491.168H80.3205V474.475Z" fill="#E6E6E6"/>
<path d="M80.319 474.475H65.0977V491.168H80.319V474.475Z" fill="#F5F5F5"/>
<path d="M105.604 474.475H88.9102V491.168H105.604V474.475Z" fill="#E6E6E6"/>
<path d="M105.604 474.475H90.3828V491.168H105.604V474.475Z" fill="#F5F5F5"/>
<path d="M55.0236 499.067H38.3301V515.76H55.0236V499.067Z" fill="#E6E6E6"/>
<path d="M55.024 499.067H39.8027V515.76H55.024V499.067Z" fill="#F5F5F5"/>
<path d="M80.3205 499.067H63.627V515.76H80.3205V499.067Z" fill="#E6E6E6"/>
<path d="M80.319 499.067H65.0977V515.76H80.319V499.067Z" fill="#F5F5F5"/>
<path d="M105.604 499.067H88.9102V515.76H105.604V499.067Z" fill="#E6E6E6"/>
<path d="M105.604 499.067H90.3828V515.76H105.604V499.067Z" fill="#F5F5F5"/>
<path d="M55.0236 549.109H38.3301V565.802H55.0236V549.109Z" fill="#E6E6E6"/>
<path d="M55.024 549.109H39.8027V565.802H55.024V549.109Z" fill="#F5F5F5"/>
<path d="M80.3205 549.109H63.627V565.802H80.3205V549.109Z" fill="#E6E6E6"/>
<path d="M80.319 549.109H65.0977V565.802H80.319V549.109Z" fill="#F5F5F5"/>
<path d="M105.604 549.109H88.9102V565.802H105.604V549.109Z" fill="#E6E6E6"/>
<path d="M105.604 549.109H90.3828V565.802H105.604V549.109Z" fill="#F5F5F5"/>
<path d="M55.0236 573.701H38.3301V590.395H55.0236V573.701Z" fill="#E6E6E6"/>
<path d="M55.024 573.701H39.8027V590.395H55.024V573.701Z" fill="#F5F5F5"/>
<path d="M80.3205 573.701H63.627V590.395H80.3205V573.701Z" fill="#E6E6E6"/>
<path d="M80.319 573.701H65.0977V590.395H80.319V573.701Z" fill="#F5F5F5"/>
<path d="M105.604 573.701H88.9102V590.395H105.604V573.701Z" fill="#E6E6E6"/>
<path d="M105.604 573.701H90.3828V590.395H105.604V573.701Z" fill="#F5F5F5"/>
<path d="M138.556 457.883H29.8945V459.432H138.556V457.883Z" fill="#E0E0E0"/>
<path d="M138.556 534.86H29.8945V536.409H138.556V534.86Z" fill="#E0E0E0"/>
<path d="M156.503 430.078H29.7266V677.485H156.503V430.078Z" fill="#407BFF"/>
<path opacity="0.4" d="M133.459 430.078H29.7266V677.485H133.459V430.078Z" fill="white"/>
<path d="M158.001 430.078H27V434.111H158.001V430.078Z" fill="#407BFF"/>
<path d="M158.001 422H27V426.045H158.001V422Z" fill="#407BFF"/>
<path d="M155.248 426.045H29.7266V430.078H155.248V426.045Z" fill="#F0F0F0"/>
<path d="M59.0566 444.646H39.5723V464.131H59.0566V444.646Z" fill="#407BFF"/>
<path opacity="0.2" d="M59.056 444.646H41.2871V464.131H59.056V444.646Z" fill="white"/>
<path d="M88.5644 444.646H69.0801V464.131H88.5644V444.646Z" fill="#407BFF"/>
<path opacity="0.2" d="M88.5638 444.646H70.7949V464.131H88.5638V444.646Z" fill="white"/>
<path d="M118.059 444.646H98.5742V464.131H118.059V444.646Z" fill="#407BFF"/>
<path opacity="0.2" d="M118.06 444.646H100.291V464.131H118.06V444.646Z" fill="white"/>
<path d="M59.0566 473.335H39.5723V492.819H59.0566V473.335Z" fill="#407BFF"/>
<path opacity="0.2" d="M59.056 473.335H41.2871V492.819H59.056V473.335Z" fill="white"/>
<path d="M88.5644 473.335H69.0801V492.819H88.5644V473.335Z" fill="#407BFF"/>
<path opacity="0.2" d="M88.5638 473.335H70.7949V492.819H88.5638V473.335Z" fill="white"/>
<path d="M118.059 473.335H98.5742V492.819H118.059V473.335Z" fill="#407BFF"/>
<path opacity="0.2" d="M118.06 473.335H100.291V492.819H118.06V473.335Z" fill="white"/>
<path d="M59.0566 525.861H39.5723V545.345H59.0566V525.861Z" fill="#407BFF"/>
<path opacity="0.2" d="M59.056 525.861H41.2871V545.345H59.056V525.861Z" fill="white"/>
<path d="M88.5644 525.861H69.0801V545.345H88.5644V525.861Z" fill="#407BFF"/>
<path opacity="0.2" d="M88.5638 525.861H70.7949V545.345H88.5638V525.861Z" fill="white"/>
<path d="M118.059 525.861H98.5742V545.345H118.059V525.861Z" fill="#407BFF"/>
<path opacity="0.2" d="M118.06 525.861H100.291V545.345H118.06V525.861Z" fill="white"/>
<path d="M59.0566 554.55H39.5723V574.034H59.0566V554.55Z" fill="#407BFF"/>
<path opacity="0.2" d="M59.056 554.55H41.2871V574.034H59.056V554.55Z" fill="white"/>
<path d="M88.5644 554.55H69.0801V574.034H88.5644V554.55Z" fill="#407BFF"/>
<path opacity="0.2" d="M88.5638 554.55H70.7949V574.034H88.5638V554.55Z" fill="white"/>
<path d="M118.059 554.55H98.5742V574.034H118.059V554.55Z" fill="#407BFF"/>
<path opacity="0.2" d="M118.06 554.55H100.291V574.034H118.06V554.55Z" fill="white"/>
<path opacity="0.2" d="M156.503 506.517H29.7266V508.322H156.503V506.517Z" fill="white"/>
<path opacity="0.7" d="M156.503 434.111H133.447V677.485H156.503V434.111Z" fill="white"/>
<path opacity="0.2" d="M157.988 430.078H133.447V434.111H157.988V430.078Z" fill="black"/>
<path opacity="0.2" d="M157.988 422H133.447V426.033H157.988V422Z" fill="black"/>
<path d="M1060.25 403.386H1024.91V420.186H1060.25V403.386Z" fill="#E0E0E0"/>
<path d="M1060.25 435.753H1024.91V452.553H1060.25V435.753Z" fill="#E0E0E0"/>
<path d="M1060.25 468.139H1024.91V484.939H1060.25V468.139Z" fill="#E0E0E0"/>
<path d="M1060.25 500.506H1024.91V517.306H1060.25V500.506Z" fill="#E0E0E0"/>
<path d="M1060.25 532.892H1024.91V549.692H1060.25V532.892Z" fill="#E0E0E0"/>
<path d="M1145.54 384.01H1019.52V690.679H1145.54V384.01Z" fill="#407BFF"/>
<path opacity="0.4" d="M1115.38 384.01H1019.52V690.679H1115.38V384.01Z" fill="white"/>
<path d="M1062.35 409.201H1028.81V425.486H1062.35V409.201Z" fill="#407BFF"/>
<path opacity="0.2" d="M1062.35 409.201H1031.03V425.486H1062.35V409.201Z" fill="white"/>
<path d="M1101.16 409.201H1067.62V425.486H1101.16V409.201Z" fill="#407BFF"/>
<path opacity="0.2" d="M1101.16 409.201H1069.84V425.486H1101.16V409.201Z" fill="white"/>
<path d="M1062.35 439.857H1028.81V456.142H1062.35V439.857Z" fill="#407BFF"/>
<path opacity="0.2" d="M1062.35 439.857H1031.03V456.142H1062.35V439.857Z" fill="white"/>
<path d="M1101.16 439.857H1067.62V456.142H1101.16V439.857Z" fill="#407BFF"/>
<path opacity="0.2" d="M1101.16 439.857H1069.84V456.142H1101.16V439.857Z" fill="white"/>
<path d="M1062.35 479.032H1028.81V495.317H1062.35V479.032Z" fill="#407BFF"/>
<path opacity="0.2" d="M1062.35 479.032H1031.03V495.317H1062.35V479.032Z" fill="white"/>
<path d="M1101.16 479.032H1067.62V495.317H1101.16V479.032Z" fill="#407BFF"/>
<path opacity="0.2" d="M1101.16 479.032H1069.84V495.317H1101.16V479.032Z" fill="white"/>
<path d="M1062.35 501.537H1028.81V517.821H1062.35V501.537Z" fill="#407BFF"/>
<path opacity="0.2" d="M1062.35 501.537H1031.03V517.821H1062.35V501.537Z" fill="white"/>
<path d="M1101.16 501.537H1067.62V517.821H1101.16V501.537Z" fill="#407BFF"/>
<path opacity="0.2" d="M1101.16 501.537H1069.84V517.821H1101.16V501.537Z" fill="white"/>
<path d="M1062.35 538.522H1028.81V554.807H1062.35V538.522Z" fill="#407BFF"/>
<path opacity="0.2" d="M1062.35 538.522H1031.03V554.807H1062.35V538.522Z" fill="white"/>
<path d="M1101.16 538.522H1067.62V554.807H1101.16V538.522Z" fill="#407BFF"/>
<path opacity="0.2" d="M1101.16 538.522H1069.84V554.807H1101.16V538.522Z" fill="white"/>
<path d="M1062.35 561.027H1028.81V577.312H1062.35V561.027Z" fill="#407BFF"/>
<path opacity="0.2" d="M1062.35 561.027H1031.03V577.312H1062.35V561.027Z" fill="white"/>
<path d="M1101.16 561.027H1067.62V577.312H1101.16V561.027Z" fill="#407BFF"/>
<path opacity="0.2" d="M1101.16 561.027H1069.84V577.312H1101.16V561.027Z" fill="white"/>
<path d="M1145.56 374.938H1013.59V384.728H1145.56V374.938Z" fill="#407BFF"/>
<path opacity="0.2" d="M1145.56 374.938H1115.4V384.728H1145.56V374.938Z" fill="black"/>
<path opacity="0.7" d="M1145.56 384.728H1115.4V690.679H1145.56V384.728Z" fill="white"/>
<path opacity="0.2" d="M1145.54 465.729H1019.52V468.525H1145.54V465.729Z" fill="white"/>
<path opacity="0.2" d="M1145.54 526.323H1019.52V529.12H1145.54V526.323Z" fill="white"/>
<path opacity="0.4" d="M415 441.488H639.54C639.54 441.488 625.909 420.117 602.603 430.803C602.603 430.803 598.228 408.365 583.167 407.973C579.043 407.667 574.919 408.564 571.295 410.555C567.671 412.547 564.702 415.547 562.749 419.191C562.749 419.191 545.248 391.986 518.52 397.82C511.081 399.258 504.275 402.977 499.048 408.461C493.821 413.944 490.431 420.92 489.351 428.419C489.351 428.419 449.441 407.973 415 441.488Z" fill="#FAFAFA"/>
<path opacity="0.4" d="M898 332.488H1122.51C1122.51 332.488 1108.91 311.117 1085.57 321.803C1085.57 321.803 1081.23 299.365 1066.14 298.973C1062.02 298.673 1057.9 299.572 1054.28 301.563C1050.66 303.554 1047.7 306.551 1045.75 310.191C1045.75 310.191 1028.25 282.986 1001.52 288.82C994.081 290.258 987.275 293.977 982.048 299.461C976.821 304.944 973.432 311.92 972.351 319.419C972.351 319.419 932.497 298.973 898 332.488Z" fill="#FAFAFA"/>
<path opacity="0.4" d="M-44.6172 380.205H179.895C179.895 380.205 166.432 358.834 142.958 369.519C142.958 369.519 138.582 347.082 123.521 346.69C119.402 346.389 115.284 347.289 111.666 349.28C108.047 351.271 105.083 354.268 103.132 357.908C103.132 357.908 85.6306 330.703 58.9023 336.537C51.464 337.975 44.6583 341.694 39.4309 347.177C34.2036 352.661 30.8143 359.637 29.734 367.135C29.734 367.135 -10.12 346.69 -44.6172 380.205Z" fill="#FAFAFA"/>
</g>
<path d="M1063 97.3673C1066.54 103.572 1071.56 108.793 1077.62 112.557C1083.67 116.321 1090.56 118.511 1097.67 118.927C1104.78 119.343 1111.88 117.974 1118.32 114.942C1124.77 111.909 1130.36 107.311 1134.6 101.561C1138.83 95.8116 1141.57 89.0925 1142.57 82.0112C1143.58 74.9299 1142.8 67.7098 1140.33 61.0036C1137.85 54.2973 1133.75 48.3165 1128.4 43.6017C1123.05 38.8869 1116.61 35.5869 1109.67 34C1115.08 36.5037 1119.86 40.187 1123.68 44.7822C1127.49 49.3773 1130.24 54.7687 1131.71 60.5641C1133.19 66.3596 1133.37 72.4134 1132.23 78.2853C1131.08 84.1572 1128.65 89.6995 1125.11 94.5091C1121.57 99.3187 1117.01 103.275 1111.75 106.089C1106.5 108.904 1100.68 110.506 1094.73 110.78C1088.78 111.054 1082.85 109.992 1077.36 107.672C1071.87 105.352 1066.96 101.831 1063 97.3673Z" fill="white"/>
<defs>
<linearGradient id="paint0_linear_112_89975" x1="320" y1="574" x2="473.176" y2="-109.155" gradientUnits="userSpaceOnUse">
<stop stop-color="#3F51EC"/>
<stop offset="1" stop-color="#5868FA"/>
</linearGradient>
<linearGradient id="paint1_linear_112_89975" x1="320" y1="574" x2="473.176" y2="-109.155" gradientUnits="userSpaceOnUse">
<stop stop-color="#3F51EC"/>
<stop offset="1" stop-color="#5868FA"/>
</linearGradient>
</defs>
</svg>
