<svg width="2052" height="706" viewBox="0 0 2052 706" fill="none" xmlns="http://www.w3.org/2000/svg">
<mask id="mask0_1020_106098" style="mask-type:alpha" maskUnits="userSpaceOnUse" x="0" y="0" width="2052" height="706">
<rect y="0.3125" width="2052" height="705.375" fill="#F5F8FF"/>
</mask>
<g mask="url(#mask0_1020_106098)">
<rect width="2092.38" height="938.299" transform="translate(-20.1875 -222.938)" fill="url(#paint0_linear_1020_106098)"/>
<path opacity="0.2" d="M360.614 286.719L365.486 296.581L376.345 298.166L368.48 305.855L370.299 316.656L360.614 311.549L350.87 316.656L352.748 305.855L344.883 298.166L355.742 296.581L360.614 286.719Z" fill="white"/>
<path opacity="0.2" d="M1073.11 177.469L1077.99 187.331L1088.85 188.916L1080.98 196.605L1082.8 207.406L1073.11 202.299L1063.37 207.406L1065.25 196.605L1057.38 188.916L1068.24 187.331L1073.11 177.469Z" fill="white"/>
<path opacity="0.2" d="M1512.49 248.72L1517.36 258.581L1528.22 260.166L1520.35 267.855L1522.17 278.656L1512.49 273.549L1502.75 278.656L1504.62 267.855L1496.76 260.166L1507.62 258.581L1512.49 248.72Z" fill="white"/>
<path opacity="0.2" d="M586.651 209.526L589.435 215.461L595.642 216.414L591.146 221.007L592.186 227.507L586.651 224.434L581.082 227.507L582.155 221.007L577.66 216.414L583.866 215.461L586.651 209.526Z" fill="white"/>
<path opacity="0.2" d="M942.901 399.526L945.685 405.461L951.892 406.414L947.396 411.007L948.436 417.507L942.901 414.434L937.332 417.507L938.405 411.007L933.91 406.414L940.116 405.461L942.901 399.526Z" fill="white"/>
<path opacity="0.2" d="M1646.36 14.0891L1651.11 23.7817L1661.89 25.3395L1654.12 32.8397L1655.92 43.5131L1646.36 38.4937L1636.74 43.5131L1638.59 32.8397L1630.83 25.3395L1641.55 23.7817L1646.36 14.0891Z" fill="white"/>
<path opacity="0.2" d="M297.426 -1.25317L302.298 8.60812L313.158 10.193L305.292 17.8825L307.17 28.6829L297.426 23.5762L287.682 28.6829L289.561 17.8825L281.695 10.193L292.554 8.60812L297.426 -1.25317Z" fill="white"/>
<path opacity="0.2" d="M185.717 252.674L188.71 258.779L195.46 259.718L190.589 264.472L191.704 271.164L185.717 267.994L179.729 271.164L180.845 264.472L175.973 259.718L182.723 258.779L185.717 252.674Z" fill="white"/>
<path opacity="0.2" d="M862.592 252.674L865.585 258.779L872.335 259.718L867.464 264.472L868.579 271.164L862.592 267.994L856.604 271.164L857.72 264.472L852.848 259.718L859.598 258.779L862.592 252.674Z" fill="white"/>
<path opacity="0.2" d="M1689.92 288.305L1692.91 294.351L1699.66 295.349L1694.79 300.103L1695.96 306.795L1689.92 303.625L1683.93 306.795L1685.1 300.103L1680.23 295.349L1686.92 294.351L1689.92 288.305Z" fill="white"/>
<path opacity="0.2" d="M1951.46 92.1445L1954.45 98.1904L1961.2 99.1884L1956.33 103.943L1957.5 110.635L1951.46 107.465L1945.47 110.635L1946.65 103.943L1941.77 99.1884L1948.47 98.1904L1951.46 92.1445Z" fill="white"/>
<path opacity="0.2" d="M995.806 571.465L998.8 577.569L1005.55 578.508L1000.68 583.263L1001.85 589.954L995.806 586.785L989.819 589.954L990.934 583.263L986.121 578.508L992.813 577.569L995.806 571.465Z" fill="white"/>
<path opacity="0.2" d="M1581.56 524.741L1584.55 530.787L1591.25 531.785L1586.43 536.539L1587.55 543.231L1581.56 540.061L1575.51 543.231L1576.69 536.539L1571.82 531.785L1578.57 530.787L1581.56 524.741Z" fill="white"/>
<path opacity="0.2" d="M618.795 398.482L621.788 404.528L628.48 405.526L623.608 410.28L624.782 416.972L618.795 413.802L612.749 416.972L613.923 410.28L609.051 405.526L615.742 404.528L618.795 398.482Z" fill="white"/>
<path opacity="0.2" d="M705.31 605.098L708.304 611.203L715.054 612.142L710.182 616.897L711.297 623.588L705.31 620.418L699.264 623.588L700.438 616.897L695.566 612.142L702.317 611.203L705.31 605.098Z" fill="white"/>
<path opacity="0.2" d="M1204.25 510.359L1207.24 516.464L1213.93 517.462L1209.06 522.158L1210.24 528.908L1204.25 525.738L1198.2 528.908L1199.38 522.158L1194.5 517.462L1201.2 516.464L1204.25 510.359Z" fill="white"/>
<path opacity="0.2" d="M1275.49 332.234L1278.49 338.339L1285.18 339.337L1280.31 344.033L1281.48 350.783L1275.49 347.613L1269.45 350.783L1270.62 344.033L1265.75 339.337L1272.44 338.339L1275.49 332.234Z" fill="white"/>
<mask id="mask1_1020_106098" style="mask-type:alpha" maskUnits="userSpaceOnUse" x="-21" y="-223" width="2094" height="939">
<rect width="2092.38" height="938.299" transform="translate(-20.1875 -222.938)" fill="url(#paint1_linear_1020_106098)"/>
</mask>
<g mask="url(#mask1_1020_106098)">
<path d="M481.549 596.328C481.379 576.114 476.269 556.248 466.666 538.46C457.063 520.672 443.258 505.501 426.451 494.269C409.645 483.036 390.348 476.082 370.239 474.012C322.279 469.074 301.789 478.118 283.047 485.691C269.426 457.764 215.507 434.38 188.236 419.487C160.966 404.595 189.725 395.63 158.867 399.267C128.008 402.904 99.0436 416.044 75.9826 436.868C52.9215 457.693 36.9048 485.172 30.1497 515.5C-3.57904 517.255 -35.2733 532.172 -58.1215 557.045C-80.9698 581.918 -93.1483 614.762 -92.0398 648.518C-90.9313 682.274 -76.6243 714.248 -52.1935 737.569C-27.7626 760.889 4.84197 773.695 38.6132 773.233H448.999C470.38 773.239 491.087 765.752 507.519 752.072C523.951 738.393 535.069 719.386 538.939 698.358C542.809 677.33 539.186 655.611 528.701 636.978C518.216 618.344 501.531 603.975 481.549 596.369V596.328Z" fill="url(#paint2_linear_1020_106098)"/>
<path d="M859.84 882.711C865.514 863.309 866.359 842.814 862.302 823.011C858.245 803.207 849.409 784.696 836.563 769.088C823.716 753.481 807.249 741.25 788.595 733.461C769.942 725.672 749.667 722.562 729.536 724.4C724.56 693.729 710.173 665.363 688.365 643.229C666.557 621.096 638.408 606.29 607.814 600.86C577.22 595.43 545.694 599.646 517.602 612.924C489.51 626.201 466.24 647.884 451.014 674.97C418.216 666.91 383.564 672.038 354.506 689.253C325.449 706.468 304.304 734.396 295.617 767.034C286.93 799.672 291.394 834.415 308.049 863.797C324.705 893.18 352.222 914.855 384.688 924.166L777.589 1042.68C798.057 1048.86 820.044 1047.67 839.726 1039.32C859.409 1030.97 875.542 1015.98 885.319 996.967C895.097 977.953 897.901 956.113 893.244 935.245C888.586 914.378 876.762 895.803 859.828 882.75L859.84 882.711Z" fill="url(#paint3_linear_1020_106098)"/>
<path d="M811.303 682.847C795.544 670.187 776.928 661.572 757.078 657.751C737.228 653.93 716.745 655.019 697.412 660.924C678.079 666.828 660.483 677.37 646.155 691.629C631.827 705.889 621.202 723.435 615.206 742.74C584.962 735.613 553.25 738.066 524.462 749.757C495.673 761.448 471.231 781.8 454.519 807.995C437.807 834.19 429.652 864.932 431.183 895.967C432.714 927.001 443.855 956.792 463.064 981.215C443.078 1008.44 434.571 1042.42 439.372 1075.85C444.172 1109.29 461.896 1139.5 488.735 1160C515.574 1180.51 549.385 1189.66 582.902 1185.5C616.42 1181.34 646.968 1164.2 667.981 1137.76L927.682 820C941.217 803.449 948.524 782.677 948.33 761.297C948.136 739.917 940.455 719.281 926.623 702.977C912.79 686.674 893.68 675.734 872.617 672.061C851.554 668.388 829.87 672.214 811.335 682.873L811.303 682.847Z" fill="url(#paint4_linear_1020_106098)"/>
<path d="M2335.18 475.349C2335 455.146 2329.89 435.291 2320.29 417.513C2310.69 399.734 2296.9 384.57 2280.1 373.339C2263.31 362.108 2244.02 355.151 2223.93 353.073C2203.83 350.994 2183.53 353.857 2164.79 361.413C2151.16 333.489 2129.2 310.49 2101.92 295.6C2074.65 280.71 2043.43 274.664 2012.57 278.301C1981.71 281.937 1952.75 295.076 1929.68 315.898C1906.62 336.719 1890.6 364.195 1883.84 394.522C1850.12 396.282 1818.44 411.197 1795.59 436.062C1772.75 460.928 1760.57 493.76 1761.67 527.508C1762.77 561.255 1777.06 593.225 1801.48 616.55C1825.89 639.875 1858.48 652.695 1892.24 652.255H2302.63C2324.01 652.261 2344.71 644.774 2361.15 631.094C2377.58 617.414 2388.7 598.408 2392.57 577.38C2396.44 556.352 2392.81 534.633 2382.33 516C2371.84 497.366 2355.16 482.997 2335.18 475.391V475.349Z" fill="url(#paint5_linear_1020_106098)"/>
<path d="M2057.29 638.816C2057.11 618.613 2052 598.758 2042.4 580.98C2032.8 563.201 2019.01 548.037 2002.21 536.806C1985.42 525.575 1966.13 518.618 1946.03 516.539C1925.94 514.461 1905.64 517.324 1886.9 524.88C1873.27 496.955 1851.3 473.957 1824.03 459.066C1796.76 444.176 1765.54 438.131 1734.68 441.768C1703.82 445.404 1674.86 458.543 1651.79 479.364C1628.73 500.186 1612.71 527.662 1605.95 557.989C1572.23 559.749 1540.55 574.664 1517.7 599.529C1494.86 624.394 1482.68 657.227 1483.78 690.975C1484.88 724.722 1499.17 756.692 1523.59 780.017C1548 803.342 1580.59 816.161 1614.35 815.722H2024.74C2046.12 815.728 2066.82 808.24 2083.26 794.561C2099.69 780.881 2110.81 761.875 2114.68 740.847C2118.55 719.819 2114.92 698.1 2104.44 679.466C2093.95 660.833 2077.27 646.464 2057.29 638.858V638.816Z" fill="url(#paint6_linear_1020_106098)"/>
<path d="M1858.04 769.59C1857.87 749.386 1852.76 729.532 1843.16 711.753C1833.56 693.974 1819.76 678.81 1802.97 667.579C1786.17 656.348 1766.89 649.391 1746.79 647.313C1726.7 645.234 1706.39 648.097 1687.66 655.653C1674.03 627.729 1652.06 604.73 1624.79 589.84C1597.52 574.95 1566.29 568.905 1535.44 572.541C1504.58 576.178 1475.61 589.316 1452.55 610.138C1429.49 630.96 1413.47 658.435 1406.71 688.762C1372.99 690.522 1341.3 705.437 1318.46 730.302C1295.62 755.168 1283.44 788.001 1284.54 821.748C1285.64 855.495 1299.93 887.465 1324.34 910.79C1348.76 934.115 1381.35 946.935 1415.11 946.495H1825.49C1846.87 946.501 1867.58 939.014 1884.01 925.334C1900.45 911.654 1911.56 892.648 1915.43 871.62C1919.3 850.592 1915.68 828.873 1905.2 810.24C1894.71 791.606 1878.03 777.237 1858.04 769.631V769.59Z" fill="url(#paint7_linear_1020_106098)"/>
<path d="M2234.02 753.243C2233.84 733.04 2228.73 713.185 2219.13 695.406C2209.53 677.628 2195.74 662.464 2178.94 651.233C2162.15 640.002 2142.86 633.045 2122.77 630.966C2102.67 628.888 2082.37 631.751 2063.63 639.307C2050 611.382 2028.03 588.383 2000.76 573.493C1973.49 558.603 1942.27 552.558 1911.41 556.194C1880.55 559.831 1851.59 572.969 1828.52 593.791C1805.46 614.613 1789.44 642.089 1782.68 672.416C1748.96 674.176 1717.28 689.09 1694.43 713.956C1671.59 738.821 1659.41 771.654 1660.51 805.401C1661.61 839.149 1675.9 871.119 1700.32 894.444C1724.73 917.769 1757.32 930.588 1791.08 930.148H2201.47C2222.85 930.155 2243.55 922.667 2259.99 908.988C2276.42 895.308 2287.54 876.302 2291.41 855.274C2295.28 834.246 2291.65 812.527 2281.17 793.893C2270.68 775.26 2254 760.89 2234.02 753.284V753.243Z" fill="url(#paint8_linear_1020_106098)"/>
<path d="M1447.74 884.016C1447.56 863.813 1442.45 843.958 1432.86 826.18C1423.26 808.401 1409.46 793.237 1392.66 782.006C1375.87 770.775 1356.58 763.818 1336.49 761.74C1316.39 759.661 1296.09 762.524 1277.35 770.08C1263.73 742.155 1241.76 719.157 1214.49 704.267C1187.21 689.376 1155.99 683.331 1125.13 686.968C1094.27 690.604 1065.31 703.743 1042.25 724.564C1019.18 745.386 1003.16 772.862 996.402 803.189C962.682 804.949 930.998 819.864 908.155 844.729C885.312 869.595 873.133 902.427 874.233 936.175C875.333 969.922 889.625 1001.89 914.039 1025.22C938.452 1048.54 971.041 1061.36 1004.8 1060.92H1415.19C1436.57 1060.93 1457.28 1053.44 1473.71 1039.76C1490.14 1026.08 1501.26 1007.07 1505.13 986.047C1509 965.019 1505.38 943.3 1494.89 924.666C1484.41 906.033 1467.72 891.664 1447.74 884.058V884.016Z" fill="url(#paint9_linear_1020_106098)"/>
<path d="M1114.72 720.527C1122.52 701.89 1134.76 685.442 1150.37 672.614C1165.97 659.785 1184.48 650.965 1204.28 646.919C1224.07 642.874 1244.56 643.727 1263.95 649.403C1283.34 655.078 1301.05 665.406 1315.54 679.487C1338.71 658.789 1367.74 645.806 1398.62 642.335C1429.5 638.864 1460.69 645.076 1487.88 660.112C1515.07 675.148 1536.92 698.264 1550.39 726.262C1563.87 754.259 1568.31 785.752 1563.1 816.384C1593.65 830.765 1617.34 856.554 1629.08 888.211C1640.83 919.869 1639.69 954.869 1625.91 985.694C1612.13 1016.52 1586.8 1040.71 1555.38 1053.07C1523.96 1065.43 1488.95 1064.97 1457.86 1051.8L1077.95 896.604C1058.15 888.524 1041.81 873.762 1031.78 854.884C1021.74 836.006 1018.63 814.207 1023 793.277C1027.37 772.347 1038.94 753.611 1055.69 740.327C1072.45 727.042 1093.32 720.049 1114.7 720.565L1114.72 720.527Z" fill="url(#paint10_linear_1020_106098)"/>
<path d="M269.037 449.207C268.867 428.993 263.758 409.128 254.155 391.34C244.552 373.552 230.746 358.381 213.94 347.148C197.133 335.915 177.836 328.961 157.728 326.891C137.619 324.821 117.31 327.698 98.5675 335.271C84.9466 307.344 62.9805 284.341 35.7099 269.449C8.43944 254.556 -22.7865 248.509 -53.645 252.146C-84.5035 255.783 -113.468 268.923 -136.529 289.748C-159.59 310.572 -175.607 338.051 -182.362 368.38C-216.091 370.135 -247.785 385.052 -270.633 409.925C-293.482 434.798 -305.66 467.641 -304.552 501.398C-303.443 535.154 -289.136 567.128 -264.705 590.448C-240.274 613.769 -207.67 626.574 -173.899 626.112H236.487C257.868 626.119 278.575 618.631 295.007 604.952C311.439 591.272 322.557 572.266 326.427 551.238C330.297 530.21 326.674 508.491 316.189 489.857C305.704 471.224 289.02 456.855 269.037 449.249V449.207Z" fill="url(#paint11_linear_1020_106098)"/>
<path d="M416.162 661.714C415.992 641.5 410.883 621.634 401.28 603.847C391.677 586.059 377.871 570.888 361.065 559.655C344.258 548.422 324.961 541.468 304.853 539.398C284.744 537.328 264.435 540.205 245.693 547.778C232.072 519.85 210.105 496.848 182.835 481.955C155.564 467.063 124.339 461.016 93.48 464.653C62.6215 468.29 33.6569 481.43 10.5959 502.255C-12.4652 523.079 -28.4819 550.558 -35.237 580.887C-68.9658 582.642 -100.66 597.558 -123.508 622.431C-146.357 647.304 -158.535 680.148 -157.427 713.905C-156.318 747.661 -142.011 779.635 -117.58 802.955C-93.1494 826.276 -60.5448 839.081 -26.7735 838.619H383.612C404.993 838.626 425.7 831.138 442.132 817.459C458.564 803.779 469.682 784.773 473.552 763.745C477.422 742.717 473.799 720.998 463.314 702.364C452.829 683.731 436.145 669.361 416.162 661.755V661.714Z" fill="url(#paint12_linear_1020_106098)"/>
</g>
</g>
<defs>
<linearGradient id="paint0_linear_1020_106098" x1="523.094" y1="938.299" x2="773.486" y2="-178.432" gradientUnits="userSpaceOnUse">
<stop stop-color="#3F51EC"/>
<stop offset="1" stop-color="#5868FA"/>
</linearGradient>
<linearGradient id="paint1_linear_1020_106098" x1="523.094" y1="938.299" x2="773.486" y2="-178.432" gradientUnits="userSpaceOnUse">
<stop stop-color="#3F51EC"/>
<stop offset="1" stop-color="#5868FA"/>
</linearGradient>
<linearGradient id="paint2_linear_1020_106098" x1="224.17" y1="398.237" x2="224.17" y2="773.245" gradientUnits="userSpaceOnUse">
<stop stop-color="#5C8EFE"/>
<stop offset="0.485591" stop-color="#407BFF"/>
</linearGradient>
<linearGradient id="paint3_linear_1020_106098" x1="670.632" y1="618.732" x2="562.335" y2="977.763" gradientUnits="userSpaceOnUse">
<stop stop-color="#5C8EFE"/>
<stop offset="1" stop-color="#407BFF"/>
</linearGradient>
<linearGradient id="paint4_linear_1020_106098" x1="495.047" y1="756.779" x2="785.415" y2="994.092" gradientUnits="userSpaceOnUse">
<stop stop-color="#5C8EFE"/>
<stop offset="1" stop-color="#407BFF"/>
</linearGradient>
<linearGradient id="paint5_linear_1020_106098" x1="2077.84" y1="277.271" x2="2077.84" y2="652.266" gradientUnits="userSpaceOnUse">
<stop stop-color="#5C8EFE"/>
<stop offset="1" stop-color="#407BFF"/>
</linearGradient>
<linearGradient id="paint6_linear_1020_106098" x1="1799.95" y1="440.738" x2="1799.95" y2="815.733" gradientUnits="userSpaceOnUse">
<stop stop-color="#5C8EFE"/>
<stop offset="0.504181" stop-color="#407BFF"/>
</linearGradient>
<linearGradient id="paint7_linear_1020_106098" x1="1600.71" y1="571.511" x2="1600.71" y2="946.506" gradientUnits="userSpaceOnUse">
<stop stop-color="#5C8EFE"/>
<stop offset="0.65571" stop-color="#407BFF"/>
</linearGradient>
<linearGradient id="paint8_linear_1020_106098" x1="1976.68" y1="555.164" x2="1976.68" y2="930.159" gradientUnits="userSpaceOnUse">
<stop stop-color="#5C8EFE"/>
<stop offset="1" stop-color="#407BFF"/>
</linearGradient>
<linearGradient id="paint9_linear_1020_106098" x1="1190.4" y1="685.938" x2="1190.4" y2="1060.93" gradientUnits="userSpaceOnUse">
<stop stop-color="#5C8EFE"/>
<stop offset="1" stop-color="#407BFF"/>
</linearGradient>
<linearGradient id="paint10_linear_1020_106098" x1="1427.85" y1="634.475" x2="1286.04" y2="981.622" gradientUnits="userSpaceOnUse">
<stop stop-color="#5C8EFE"/>
<stop offset="1" stop-color="#407BFF"/>
</linearGradient>
<linearGradient id="paint11_linear_1020_106098" x1="11.6581" y1="251.116" x2="11.6581" y2="626.125" gradientUnits="userSpaceOnUse">
<stop stop-color="#5C8EFE"/>
<stop offset="0.660646" stop-color="#407BFF"/>
</linearGradient>
<linearGradient id="paint12_linear_1020_106098" x1="158.783" y1="463.623" x2="158.783" y2="838.631" gradientUnits="userSpaceOnUse">
<stop stop-color="#5C8EFE"/>
<stop offset="1" stop-color="#407BFF"/>
</linearGradient>
</defs>
</svg>
