<svg width="1280" height="574" viewBox="0 0 1280 574" fill="none" xmlns="http://www.w3.org/2000/svg">
<rect width="1280" height="574" fill="url(#paint0_linear_408_93825)"/>
<path opacity="0.2" d="M232.952 311.78L235.932 317.813L242.575 318.782L237.763 323.486L238.876 330.093L232.952 326.969L226.991 330.093L228.14 323.486L223.328 318.782L229.971 317.813L232.952 311.78Z" fill="white"/>
<path opacity="0.2" d="M933.5 35L935.203 38.6307L939 39.2141L936.25 42.0236L936.886 46L933.5 44.1198L930.093 46L930.75 42.0236L928 39.2141L931.797 38.6307L933.5 35Z" fill="white"/>
<path opacity="0.2" d="M1019.5 145L1022.41 150.929L1029 151.882L1024.25 156.471L1025.35 163L1019.5 159.929L1013.62 163L1014.75 156.471L1010 151.882L1016.56 150.929L1019.5 145Z" fill="white"/>
<path opacity="0.2" d="M194.295 135.614L197.276 141.647L203.919 142.616L199.107 147.32L200.256 153.928L194.295 150.803L188.334 153.928L189.484 147.32L184.672 142.616L191.315 141.647L194.295 135.614Z" fill="white"/>
<path opacity="0.2" d="M94.2953 15.6143L97.2757 21.6469L103.919 22.6164L99.107 27.3204L100.256 33.9275L94.2953 30.8035L88.3345 33.9275L89.4836 27.3204L84.6719 22.6164L91.3149 21.6469L94.2953 15.6143Z" fill="white"/>
<path opacity="0.2" d="M125.961 290.953L127.792 294.688L131.922 295.262L128.941 298.171L129.623 302.264L125.961 300.325L122.298 302.264L122.98 298.171L120 295.262L124.129 294.688L125.961 290.953Z" fill="white"/>
<path opacity="0.2" d="M1046.15 312.75L1047.98 316.449L1052.11 317.059L1049.13 319.968L1049.85 324.061L1046.15 322.122L1042.48 324.061L1043.2 319.968L1040.22 317.059L1044.32 316.449L1046.15 312.75Z" fill="white"/>
<path opacity="0.2" d="M1206.15 192.75L1207.98 196.449L1212.11 197.059L1209.13 199.968L1209.85 204.061L1206.15 202.122L1202.48 204.061L1203.2 199.968L1200.22 197.059L1204.32 196.449L1206.15 192.75Z" fill="white"/>
<path opacity="0.2" d="M621.53 485.972L623.362 489.706L627.491 490.281L624.511 493.189L625.229 497.283L621.53 495.344L617.868 497.283L618.55 493.189L615.605 490.281L619.699 489.706L621.53 485.972Z" fill="white"/>
<path opacity="0.2" d="M979.859 457.389L981.69 461.087L985.784 461.698L982.84 464.606L983.522 468.7L979.859 466.761L976.161 468.7L976.879 464.606L973.898 461.698L978.028 461.087L979.859 457.389Z" fill="white"/>
<path opacity="0.2" d="M390.89 380.15L392.722 383.849L396.815 384.459L393.835 387.368L394.553 391.461L390.89 389.522L387.192 391.461L387.91 387.368L384.93 384.459L389.023 383.849L390.89 380.15Z" fill="white"/>
<path opacity="0.2" d="M286.722 71.625L288.589 75.3236L292.683 75.934L289.702 78.8426L290.42 82.9361L286.722 80.9971L283.059 82.9361L283.777 78.8426L280.797 75.934L284.89 75.3236L286.722 71.625Z" fill="white"/>
<path opacity="0.2" d="M66.7218 121.625L68.589 125.324L72.6825 125.934L69.7022 128.843L70.4203 132.936L66.7218 130.997L63.0591 132.936L63.7773 128.843L60.7969 125.934L64.8904 125.324L66.7218 121.625Z" fill="white"/>
<path opacity="0.2" d="M443.82 506.547L445.651 510.281L449.781 510.856L446.801 513.764L447.483 517.858L443.82 515.919L440.122 517.858L440.84 513.764L437.859 510.856L441.989 510.281L443.82 506.547Z" fill="white"/>
<path opacity="0.2" d="M749.039 448.591L750.87 452.325L754.964 452.936L751.983 455.808L752.702 459.938L749.039 457.999L745.34 459.938L746.059 455.808L743.078 452.936L747.172 452.325L749.039 448.591Z" fill="white"/>
<mask id="mask0_408_93825" style="mask-type:alpha" maskUnits="userSpaceOnUse" x="0" y="0" width="1280" height="574">
<rect width="1280" height="574" fill="url(#paint1_linear_408_93825)"/>
</mask>
<g mask="url(#mask0_408_93825)">
<path d="M306.933 501.181C306.828 488.816 303.703 476.663 297.828 465.781C291.954 454.9 283.508 445.619 273.227 438.747C262.946 431.876 251.141 427.621 238.84 426.355C209.5 423.335 196.966 428.867 185.5 433.5C177.167 416.416 144.183 402.111 127.5 393C110.817 383.89 128.411 378.406 109.533 380.63C90.6559 382.855 72.9369 390.894 58.8294 403.633C44.7219 416.372 34.9238 433.182 30.7914 451.736C10.158 452.809 -9.23081 461.934 -23.2081 477.15C-37.1854 492.366 -44.6356 512.458 -43.9575 533.109C-43.2793 553.759 -34.5271 573.319 -19.5816 587.585C-4.6362 601.851 15.3095 609.685 35.9689 609.402H287.02C300.1 609.406 312.767 604.826 322.82 596.457C332.872 588.089 339.673 576.462 342.041 563.598C344.408 550.734 342.192 537.448 335.778 526.049C329.363 514.65 319.157 505.86 306.933 501.207V501.181Z" fill="url(#paint2_linear_408_93825)"/>
<path d="M538.353 676.375C541.824 664.506 542.341 651.968 539.859 639.854C537.378 627.739 531.972 616.415 524.113 606.867C516.254 597.319 506.181 589.837 494.77 585.072C483.358 580.308 470.955 578.404 458.64 579.529C455.596 560.766 446.795 543.413 433.454 529.873C420.113 516.333 402.893 507.276 384.177 503.954C365.461 500.633 346.176 503.212 328.991 511.334C311.805 519.457 297.57 532.721 288.256 549.29C268.192 544.36 246.994 547.497 229.218 558.028C211.442 568.559 198.507 585.644 193.193 605.61C187.878 625.576 190.609 646.83 200.798 664.805C210.987 682.779 227.82 696.039 247.681 701.735L488.036 774.234C500.557 778.015 514.008 777.288 526.049 772.179C538.089 767.07 547.958 757.903 553.94 746.271C559.921 734.639 561.637 721.278 558.787 708.513C555.938 695.747 548.705 684.384 538.345 676.399L538.353 676.375Z" fill="url(#paint3_linear_408_93825)"/>
<path d="M1440.88 427.174C1440.77 414.814 1437.65 402.668 1431.78 391.792C1425.9 380.916 1417.46 371.64 1407.19 364.769C1396.92 357.899 1385.12 353.643 1372.82 352.371C1360.53 351.1 1348.11 352.851 1336.65 357.474C1328.31 340.391 1314.87 326.322 1298.19 317.213C1281.51 308.104 1262.41 304.406 1243.53 306.63C1224.65 308.855 1206.93 316.892 1192.82 329.63C1178.71 342.367 1168.91 359.175 1164.78 377.728C1144.15 378.805 1124.77 387.928 1110.79 403.14C1096.82 418.351 1089.37 438.436 1090.04 459.081C1090.71 479.726 1099.46 499.283 1114.39 513.552C1129.33 527.821 1149.26 535.664 1169.92 535.395H1420.97C1434.05 535.399 1446.72 530.818 1456.77 522.45C1466.82 514.081 1473.62 502.454 1475.99 489.59C1478.36 476.727 1476.14 463.44 1469.73 452.041C1463.31 440.642 1453.11 431.852 1440.88 427.199V427.174Z" fill="url(#paint4_linear_408_93825)"/>
<path d="M1270.88 527.174C1270.77 514.814 1267.65 502.668 1261.78 491.792C1255.9 480.916 1247.46 471.64 1237.19 464.769C1226.92 457.899 1215.12 453.643 1202.82 452.371C1190.53 451.1 1178.11 452.851 1166.65 457.474C1158.31 440.391 1144.87 426.322 1128.19 417.213C1111.51 408.104 1092.41 404.406 1073.53 406.63C1054.65 408.855 1036.93 416.892 1022.82 429.63C1008.71 442.367 998.914 459.175 994.778 477.728C974.151 478.805 954.768 487.928 940.794 503.14C926.82 518.351 919.369 538.436 920.042 559.081C920.715 579.726 929.458 599.283 944.393 613.552C959.328 627.821 979.264 635.664 999.918 635.395H1250.97C1264.05 635.398 1276.72 630.818 1286.77 622.45C1296.82 614.081 1303.62 602.454 1305.99 589.59C1308.36 576.727 1306.14 563.44 1299.73 552.041C1293.31 540.642 1283.11 531.852 1270.88 527.199V527.174Z" fill="url(#paint5_linear_408_93825)"/>
<path d="M1090.88 607.174C1090.77 594.814 1087.65 582.668 1081.78 571.792C1075.9 560.916 1067.46 551.64 1057.19 544.769C1046.92 537.899 1035.12 533.643 1022.82 532.371C1010.53 531.1 998.111 532.851 986.648 537.474C978.313 520.391 964.874 506.322 948.19 497.213C931.507 488.104 912.405 484.406 893.528 486.63C874.651 488.855 856.932 496.892 842.823 509.63C828.715 522.367 818.914 539.175 814.778 557.728C794.151 558.805 774.768 567.928 760.794 583.14C746.82 598.351 739.369 618.436 740.042 639.081C740.715 659.726 749.458 679.283 764.393 693.552C779.328 707.821 799.264 715.664 819.918 715.395H1070.97C1084.05 715.399 1096.72 710.818 1106.77 702.45C1116.82 694.081 1123.62 682.454 1125.99 669.59C1128.36 656.727 1126.14 643.44 1119.73 632.041C1113.31 620.642 1103.11 611.852 1090.88 607.199V607.174Z" fill="url(#paint6_linear_408_93825)"/>
<path d="M1320.88 597.174C1320.77 584.814 1317.65 572.668 1311.78 561.792C1305.9 550.916 1297.46 541.64 1287.19 534.769C1276.92 527.899 1265.12 523.643 1252.82 522.371C1240.53 521.1 1228.11 522.851 1216.65 527.474C1208.31 510.391 1194.87 496.322 1178.19 487.213C1161.51 478.104 1142.41 474.406 1123.53 476.63C1104.65 478.855 1086.93 486.892 1072.82 499.63C1058.71 512.367 1048.91 529.175 1044.78 547.728C1024.15 548.805 1004.77 557.928 990.794 573.14C976.82 588.351 969.369 608.436 970.042 629.081C970.715 649.726 979.458 669.283 994.393 683.552C1009.33 697.821 1029.26 705.664 1049.92 705.395H1300.97C1314.05 705.399 1326.72 700.818 1336.77 692.45C1346.82 684.081 1353.62 672.454 1355.99 659.59C1358.36 646.727 1356.14 633.44 1349.73 622.041C1343.31 610.642 1333.11 601.852 1320.88 597.199V597.174Z" fill="url(#paint7_linear_408_93825)"/>
<path d="M839.882 677.174C839.774 664.814 836.648 652.668 830.777 641.792C824.905 630.916 816.465 621.64 806.19 614.769C795.916 607.899 784.118 603.643 771.824 602.371C759.53 601.1 747.111 602.851 735.648 607.474C727.313 590.391 713.874 576.322 697.19 567.213C680.507 558.104 661.405 554.406 642.528 556.63C623.651 558.855 605.932 566.892 591.823 579.63C577.715 592.367 567.914 609.175 563.778 627.728C543.151 628.805 523.768 637.928 509.794 653.14C495.82 668.351 488.369 688.436 489.042 709.081C489.715 729.726 498.458 749.283 513.393 763.552C528.328 777.821 548.264 785.664 568.918 785.395H819.969C833.049 785.398 845.716 780.818 855.769 772.45C865.821 764.081 872.622 752.454 874.99 739.59C877.357 726.727 875.141 713.44 868.727 702.041C862.312 690.642 852.106 681.852 839.882 677.199V677.174Z" fill="url(#paint8_linear_408_93825)"/>
<path d="M694.274 577.16C699.047 565.759 706.534 555.697 716.083 547.849C725.632 540.001 736.953 534.606 749.063 532.131C761.172 529.656 773.703 530.178 785.565 533.65C797.427 537.122 808.261 543.44 817.125 552.054C831.302 539.392 849.063 531.45 867.952 529.326C886.841 527.203 905.923 531.003 922.557 540.201C939.191 549.4 952.555 563.541 960.799 580.668C969.042 597.795 971.759 617.061 968.572 635.8C987.26 644.597 1001.75 660.374 1008.94 679.74C1016.12 699.106 1015.42 720.518 1006.99 739.375C998.562 758.232 983.072 773.03 963.85 780.592C944.628 788.153 923.207 787.874 904.189 779.814L671.782 684.874C659.672 679.931 649.677 670.901 643.536 659.352C637.395 647.804 635.496 634.468 638.169 621.664C640.842 608.861 647.918 597.399 658.167 589.272C668.415 581.145 681.188 576.868 694.264 577.183L694.274 577.16Z" fill="url(#paint9_linear_408_93825)"/>
<path d="M176.933 411.181C176.828 398.815 173.703 386.663 167.828 375.781C161.954 364.899 153.508 355.619 143.227 348.747C132.946 341.875 121.141 337.621 108.84 336.355C96.5384 335.089 84.1142 336.848 72.6486 341.481C64.3161 324.397 50.8784 310.325 34.1958 301.215C17.5132 292.104 -1.58907 288.405 -20.4666 290.63C-39.3441 292.855 -57.0631 300.893 -71.1706 313.633C-85.2781 326.372 -95.0762 343.182 -99.2086 361.735C-119.842 362.809 -139.231 371.934 -153.208 387.15C-167.185 402.366 -174.636 422.458 -173.957 443.108C-173.279 463.759 -164.527 483.319 -149.582 497.585C-134.636 511.851 -114.691 519.685 -94.0311 519.402H157.02C170.1 519.406 182.767 514.826 192.82 506.457C202.872 498.089 209.673 486.462 212.041 473.598C214.408 460.734 212.192 447.448 205.778 436.049C199.363 424.65 189.157 415.859 176.933 411.206V411.181Z" fill="url(#paint10_linear_408_93825)"/>
<path d="M266.933 541.181C266.828 528.815 263.703 516.663 257.828 505.781C251.954 494.899 243.508 485.619 233.227 478.747C222.946 471.875 211.141 467.621 198.84 466.355C186.538 465.089 174.114 466.848 162.649 471.481C154.316 454.397 140.878 440.325 124.196 431.215C107.513 422.104 88.4109 418.405 69.5334 420.63C50.6559 422.855 32.9369 430.893 18.8294 443.633C4.72193 456.372 -5.0762 473.182 -9.20861 491.735C-29.842 492.809 -49.2308 501.934 -63.2081 517.15C-77.1854 532.366 -84.6356 552.458 -83.9575 573.108C-83.2793 593.759 -74.5271 613.319 -59.5816 627.585C-44.6362 641.851 -24.6905 649.685 -4.03112 649.402H247.02C260.1 649.406 272.767 644.826 282.82 636.457C292.872 628.089 299.673 616.462 302.041 603.598C304.408 590.734 302.192 577.448 295.778 566.049C289.363 554.65 279.157 545.859 266.933 541.206V541.181Z" fill="url(#paint11_linear_408_93825)"/>
</g>
<path d="M1063 97.3673C1066.54 103.572 1071.56 108.793 1077.62 112.557C1083.67 116.321 1090.56 118.511 1097.67 118.927C1104.78 119.343 1111.88 117.974 1118.32 114.942C1124.77 111.909 1130.36 107.311 1134.6 101.561C1138.83 95.8116 1141.57 89.0925 1142.57 82.0112C1143.58 74.9299 1142.8 67.7098 1140.33 61.0036C1137.85 54.2973 1133.75 48.3165 1128.4 43.6017C1123.05 38.8869 1116.61 35.5869 1109.67 34C1115.08 36.5037 1119.86 40.187 1123.68 44.7822C1127.49 49.3773 1130.24 54.7687 1131.71 60.5641C1133.19 66.3596 1133.37 72.4134 1132.23 78.2853C1131.08 84.1572 1128.65 89.6995 1125.11 94.5091C1121.57 99.3187 1117.01 103.275 1111.75 106.089C1106.5 108.904 1100.68 110.506 1094.73 110.78C1088.78 111.054 1082.85 109.992 1077.36 107.672C1071.87 105.352 1066.96 101.831 1063 97.3673V97.3673Z" fill="white"/>
<defs>
<linearGradient id="paint0_linear_408_93825" x1="320" y1="574" x2="473.176" y2="-109.155" gradientUnits="userSpaceOnUse">
<stop stop-color="#3F51EC"/>
<stop offset="1" stop-color="#5868FA"/>
</linearGradient>
<linearGradient id="paint1_linear_408_93825" x1="320" y1="574" x2="473.176" y2="-109.155" gradientUnits="userSpaceOnUse">
<stop stop-color="#3F51EC"/>
<stop offset="1" stop-color="#5868FA"/>
</linearGradient>
<linearGradient id="paint2_linear_408_93825" x1="149.482" y1="380" x2="149.482" y2="609.41" gradientUnits="userSpaceOnUse">
<stop stop-color="#5C8EFE"/>
<stop offset="0.485591" stop-color="#407BFF"/>
</linearGradient>
<linearGradient id="paint3_linear_408_93825" x1="422.606" y1="514.887" x2="356.356" y2="734.523" gradientUnits="userSpaceOnUse">
<stop stop-color="#5C8EFE"/>
<stop offset="1" stop-color="#407BFF"/>
</linearGradient>
<linearGradient id="paint4_linear_408_93825" x1="1283.46" y1="306" x2="1283.46" y2="535.401" gradientUnits="userSpaceOnUse">
<stop stop-color="#5C8EFE"/>
<stop offset="1" stop-color="#407BFF"/>
</linearGradient>
<linearGradient id="paint5_linear_408_93825" x1="1113.46" y1="406" x2="1113.46" y2="635.401" gradientUnits="userSpaceOnUse">
<stop stop-color="#5C8EFE"/>
<stop offset="0.504181" stop-color="#407BFF"/>
</linearGradient>
<linearGradient id="paint6_linear_408_93825" x1="933.457" y1="486" x2="933.457" y2="715.401" gradientUnits="userSpaceOnUse">
<stop stop-color="#5C8EFE"/>
<stop offset="0.65571" stop-color="#407BFF"/>
</linearGradient>
<linearGradient id="paint7_linear_408_93825" x1="1163.46" y1="476" x2="1163.46" y2="705.401" gradientUnits="userSpaceOnUse">
<stop stop-color="#5C8EFE"/>
<stop offset="1" stop-color="#407BFF"/>
</linearGradient>
<linearGradient id="paint8_linear_408_93825" x1="682.457" y1="556" x2="682.457" y2="785.401" gradientUnits="userSpaceOnUse">
<stop stop-color="#5C8EFE"/>
<stop offset="1" stop-color="#407BFF"/>
</linearGradient>
<linearGradient id="paint9_linear_408_93825" x1="885.832" y1="524.518" x2="799.079" y2="736.883" gradientUnits="userSpaceOnUse">
<stop stop-color="#5C8EFE"/>
<stop offset="1" stop-color="#407BFF"/>
</linearGradient>
<linearGradient id="paint10_linear_408_93825" x1="19.4822" y1="290" x2="19.4822" y2="519.409" gradientUnits="userSpaceOnUse">
<stop stop-color="#5C8EFE"/>
<stop offset="0.660646" stop-color="#407BFF"/>
</linearGradient>
<linearGradient id="paint11_linear_408_93825" x1="109.482" y1="420" x2="109.482" y2="649.409" gradientUnits="userSpaceOnUse">
<stop stop-color="#5C8EFE"/>
<stop offset="1" stop-color="#407BFF"/>
</linearGradient>
</defs>
</svg>
