<svg width="48" height="48" viewBox="0 0 48 48" fill="none" xmlns="http://www.w3.org/2000/svg">
<rect width="48" height="48" rx="24" fill="#F5F8FF"/>
<path d="M24.6056 16.0996C24.2007 15.9169 23.7246 15.9896 23.3929 16.2845L18.6408 20.5062H15.6901C14.7567 20.5062 14 21.2629 14 22.1647V25.5133C14 26.4467 14.7567 27.1717 15.6901 27.1717H18.6422L23.3922 31.3935C23.6029 31.5806 23.8704 31.6785 24.1408 31.6785C24.2971 31.6785 24.4567 31.6455 24.6046 31.5784C25.0095 31.3969 25.2672 30.9953 25.2672 30.5516V17.126C25.2359 16.6827 25.0105 16.2809 24.6056 16.0996ZM32.095 23.8548L33.751 22.1988C34.0811 21.8687 34.0811 21.3341 33.751 21.0038C33.4209 20.6735 32.8862 20.6737 32.5559 21.0038L30.9014 22.6929L29.2148 21.0344C28.8847 20.7043 28.35 20.7043 28.0197 21.0344C27.6894 21.3645 27.6896 21.8992 28.0197 22.2295L29.6757 23.8855L28.0197 25.5414C27.6896 25.8715 27.6896 26.4062 28.0197 26.7365C28.3497 27.0665 28.8845 27.0668 29.2148 26.7365L30.9014 25.0802L32.5574 26.7362C32.8874 27.0662 33.4221 27.0665 33.7524 26.7362C34.0825 26.4061 34.0825 25.8714 33.7524 25.5411L32.095 23.8548Z" fill="#5868FA"/>
</svg>
