<svg width="505" height="395" viewBox="0 0 505 395" fill="none" xmlns="http://www.w3.org/2000/svg">
<path d="M368.708 90.8206C428.038 180.774 395.719 300.171 305.834 359.545C215.7 419.084 92.832 402.554 33.3387 312.352C-27.9459 219.435 -2.34785 94.3943 90.4992 33.0632C183.105 -28.1088 307.583 -1.85584 368.708 90.8206Z" fill="white"/>
<path d="M29.6895 328.35C29.6921 328.357 29.6921 328.365 29.6895 328.372C29.6895 328.372 29.7651 327.063 29.8629 324.692C29.8788 325.913 29.8209 327.135 29.6895 328.35V328.35Z" fill="#A9B5FF"/>
<path d="M29.6895 328.35V328.368C29.6913 328.362 29.6913 328.356 29.6895 328.35V328.35Z" fill="#A9B5FF"/>
<path d="M29.6819 274.393C29.6819 274.393 29.4926 259.659 27.0391 252.078C27.0391 252.078 29.48 254.348 32.3657 258.663C32.6369 266.623 29.6819 274.393 29.6819 274.393Z" fill="#5869F9"/>
<path d="M153.102 356.052L152.193 356.071C152.496 356.068 152.799 356.052 153.102 356.052Z" fill="#A9B5FF"/>
<path d="M439.059 75.5365C439.06 83.1476 436.709 90.573 432.329 96.7976C427.949 103.022 421.754 107.742 414.59 110.312C416.948 103.721 417.385 96.5945 415.851 89.7637C414.317 82.933 410.874 76.6786 405.923 71.7285C400.972 66.7784 394.717 63.3363 387.886 61.8029C381.055 60.2694 373.929 60.7077 367.338 63.0667C370.276 54.8773 376.009 47.9874 383.528 43.6108C391.048 39.2341 399.871 37.6515 408.442 39.1418C417.014 40.6321 424.785 45.0997 430.386 51.7575C435.987 58.4153 439.058 66.8361 439.059 75.5365V75.5365Z" fill="#5869F9"/>
<path d="M416.731 154.843C416.731 154.843 406.986 150.235 411.855 146.451C416.724 142.666 427.27 147.533 427.27 147.533C427.27 147.533 429.705 137.258 439.983 138.34C450.261 139.421 451.336 148.346 451.336 148.346C451.336 148.346 493.432 148.346 499.38 150.781C505.328 153.216 504.52 154.837 504.52 154.837L416.731 154.843Z" fill="#A9B5FF"/>
<path d="M262.1 243.146C260.322 252.582 254.812 263.806 242.904 272.712H219.308C219.039 267.804 218.306 262.932 217.119 258.161C218.923 251.99 219.727 245.57 219.5 239.144C220.785 240.862 221.907 242.696 222.849 244.622C223.099 245.111 223.345 245.622 223.587 246.142C223.641 246.265 223.701 246.388 223.755 246.514C223.849 246.713 223.937 246.915 224.026 247.117C224.06 247.186 224.089 247.256 224.12 247.325C224.152 247.394 224.224 247.558 224.275 247.678C225.019 249.397 225.722 251.242 226.353 253.153C226.489 253.566 226.618 253.982 226.751 254.415C227.682 257.402 228.367 260.461 228.797 263.56C228.841 263.867 228.879 264.173 228.911 264.478C229.101 266.115 229.179 267.763 229.144 269.41C229.144 269.41 254.409 267.073 262.1 243.146Z" fill="white"/>
<path d="M330.679 211.341C321.612 213.908 318.887 221.635 318.887 221.635C315.123 220.413 311.172 219.873 307.218 220.039V220.039C306.545 219.47 305.787 219.008 304.973 218.67L304.916 218.399C304.866 218.127 304.837 217.85 304.831 217.573C304.768 215.365 305.865 213.114 305.865 213.114C309.388 216.548 314.986 217.037 314.986 217.037C317.408 217.523 322.45 214.268 322.047 213.252C321.347 211.502 317.244 213.016 317.244 213.016L316.127 212.183C319.281 209.197 317.43 203.605 317.43 203.605C319.953 199.408 317.524 195.024 314.257 193.927C315.519 191.924 319.6 193.39 319.6 193.39C319.6 193.39 320.464 193.419 324.456 195.794C325.04 196.144 326.033 198.335 327.061 200.972C328.824 205.507 330.679 211.341 330.679 211.341Z" fill="#3C53DD"/>
<path d="M289.517 215.583C289.577 215.331 289.649 215.088 289.728 214.848C289.417 216.285 289.184 217.738 289.031 219.2C289.173 217.888 289.372 216.504 289.511 215.611C289.51 215.601 289.513 215.592 289.517 215.583V215.583Z" fill="#DDB38C"/>
<path d="M335.895 276.765C334.498 280.963 332.048 287.172 322.744 290.055C323.766 289.667 324.394 288.194 324.829 286.214C331.36 284.621 334.375 280.149 335.895 276.765Z" fill="white"/>
<path d="M335.425 314.376C335.772 310.632 331.792 307.28 329.344 305.586C328.332 304.889 327.578 304.473 327.506 304.432C327.563 304.454 328.099 304.672 328.916 304.975C331.076 305.779 335.176 307.182 337.456 307.239L335.425 314.376Z" fill="white"/>
<path d="M275.183 219.273L256.914 222.862C262.045 221.156 267.321 218.689 270.645 216.239C268.122 218.768 275.183 219.273 275.183 219.273Z" fill="white"/>
<path d="M350.44 266.414C350.381 266.465 350.317 266.518 350.254 266.582C350.191 266.645 350.166 266.679 350.119 266.73C350.072 266.78 350.03 266.84 349.983 266.9L349.895 267.02C349.835 267.105 349.778 267.193 349.718 267.288C349.658 267.383 349.602 267.487 349.545 267.603C349.516 267.654 349.491 267.707 349.46 267.767C349.406 267.875 349.346 267.991 349.293 268.111C349.239 268.231 349.179 268.357 349.125 268.49C349.072 268.622 348.977 268.852 348.905 269.051C348.87 269.136 348.838 269.221 348.807 269.313L348.712 269.581C348.662 269.723 348.618 269.871 348.567 270.022C348.476 270.303 348.387 270.593 348.302 270.896C348.255 271.05 348.214 271.211 348.167 271.372C348.135 271.482 348.104 271.59 348.078 271.687C348.053 271.785 347.999 271.978 347.962 272.129C347.924 272.28 347.864 272.514 347.813 272.712C344.903 284.466 342.894 307.753 337.457 307.242C335.173 307.192 331.074 305.779 328.916 304.975L328.623 304.864L328.361 304.763C328.279 304.735 328.201 304.707 328.128 304.675L327.926 304.596H327.895L327.762 304.546L327.554 304.464C327.573 304.476 327.593 304.487 327.614 304.495C327.634 304.512 327.657 304.525 327.68 304.536L327.791 304.606L327.876 304.656C328.005 304.729 328.156 304.823 328.336 304.934L328.633 305.12C328.847 305.262 329.084 305.416 329.336 305.59C330.146 306.148 330.921 306.754 331.657 307.406L331.912 307.636C332.228 307.917 332.512 308.207 332.799 308.51L333.004 308.731C333.256 309.011 333.502 309.302 333.732 309.601C333.795 309.686 333.861 309.775 333.925 309.866C333.992 309.952 334.054 310.041 334.111 310.134C334.186 310.235 334.249 310.339 334.316 310.45C334.442 310.645 334.558 310.841 334.663 311.042C334.716 311.15 334.767 311.251 334.814 311.358C334.914 311.563 335.002 311.774 335.079 311.989C335.117 312.102 335.154 312.212 335.189 312.326C335.224 312.44 335.249 312.525 335.271 312.641C335.293 312.758 335.306 312.783 335.322 312.859C335.337 312.935 335.322 312.935 335.347 312.976C335.372 313.017 335.372 313.137 335.385 313.219C335.397 313.301 335.385 313.323 335.404 313.376C335.414 313.435 335.419 313.494 335.419 313.553C335.423 313.601 335.423 313.65 335.419 313.698C335.419 313.856 335.419 314.013 335.419 314.184C335.419 314.259 335.419 314.335 335.4 314.411L332.584 324.294C332.584 324.294 332.14 323.979 331.37 323.5C329.162 322.096 324.366 318.965 319.597 317.965C318.396 317.713 317.683 317.649 316.781 317.511L322.07 302.688C320.6 299.197 321.322 293.328 322.723 290.074C322.95 290.004 323.177 289.932 323.397 289.856C323.785 289.727 324.158 289.591 324.517 289.446C324.741 289.361 324.952 289.276 325.164 289.181L325.514 289.026C325.659 288.963 325.804 288.897 325.946 288.828C326.088 288.758 326.261 288.673 326.428 288.591C327 288.305 327.557 287.989 328.096 287.645C328.207 287.579 328.311 287.51 328.412 287.434C328.444 287.417 328.474 287.398 328.503 287.377C328.592 287.317 328.677 287.26 328.762 287.197C328.847 287.134 328.973 287.052 329.077 286.977C329.181 286.901 329.349 286.775 329.481 286.661C329.613 286.548 329.818 286.396 329.976 286.258C330.09 286.169 330.197 286.071 330.291 285.977C330.386 285.882 330.493 285.8 330.588 285.706C330.683 285.611 330.733 285.573 330.802 285.504C330.872 285.434 330.966 285.349 331.042 285.27C331.598 284.715 332.112 284.119 332.581 283.489C332.647 283.403 332.707 283.315 332.77 283.23C332.884 283.069 332.997 282.915 333.086 282.757C333.101 282.732 333.117 282.706 333.136 282.681C333.243 282.514 333.347 282.366 333.451 282.186C333.556 282.006 333.663 281.836 333.767 281.659C333.871 281.483 333.959 281.316 334.054 281.139C334.237 280.792 334.407 280.445 334.565 280.105C334.622 279.991 334.672 279.874 334.722 279.764C334.773 279.654 334.849 279.449 334.915 279.313C335.041 279.017 335.158 278.723 335.265 278.43C335.482 277.856 335.678 277.298 335.851 276.774C334.335 280.158 331.316 284.63 324.788 286.235C325.671 282.202 325.763 276.065 326.781 272.734C326.933 272.19 327.163 271.671 327.463 271.192C327.511 271.158 327.562 271.126 327.614 271.098C327.636 271.098 327.668 271.069 327.696 271.047C327.835 270.968 327.989 270.886 328.16 270.804C328.245 270.76 328.33 270.722 328.424 270.678C328.74 270.539 329.077 270.398 329.446 270.252L329.629 270.183L330.197 269.972L330.392 269.902L330.793 269.764C330.998 269.691 331.209 269.619 331.424 269.552L331.837 269.417L332.685 269.149C332.824 269.105 332.963 269.06 333.105 269.023C333.123 269.015 333.142 269.008 333.161 269.004C333.281 268.963 333.404 268.928 333.518 268.893C333.631 268.859 333.795 268.811 333.931 268.773L334.133 268.717C334.268 268.672 334.404 268.635 334.533 268.6L334.962 268.474C335.01 268.455 335.06 268.44 335.11 268.43C335.236 268.392 335.35 268.363 335.467 268.332L336.299 268.102L336.567 268.029L336.883 267.944C336.984 267.912 337.081 267.887 337.167 267.865L337.554 267.764H337.592H337.526C337.343 267.808 337.075 267.865 336.75 267.931L336.435 267.998C336 268.083 335.489 268.18 334.921 268.278L334.489 268.351L334.193 268.398L333.877 268.442C332.723 268.627 331.56 268.743 330.392 268.792C330.184 268.792 329.979 268.792 329.781 268.792C329.399 268.792 329.033 268.792 328.686 268.745L328.409 268.72H328.39C328.292 268.72 328.194 268.695 328.1 268.679C328.005 268.663 327.92 268.647 327.835 268.628C327.756 268.614 327.678 268.594 327.601 268.568C327.56 268.549 327.52 268.525 327.482 268.499L327.324 268.445C327.073 268.362 326.841 268.231 326.639 268.061C326.606 268.038 326.576 268.011 326.551 267.979C326.513 267.942 326.478 267.902 326.447 267.859V267.859C326.377 267.763 326.324 267.657 326.289 267.543C326.253 267.424 326.235 267.299 326.236 267.174L330.85 264.863L335.959 262.908C335.959 262.908 325.586 260.801 308.165 246.757C304.803 243.44 302.015 240.832 300.568 240.245C297.414 234.37 289.864 234.931 286.786 238.428C281.453 234.329 271.686 232.465 265.133 239.015C264.991 239.154 264.852 239.296 264.717 239.444C264.445 239.74 264.177 240.049 263.912 240.39C263.761 240.579 263.616 240.775 263.471 240.977C263.373 241.106 263.275 241.238 263.184 241.374C263.184 241.399 263.149 241.421 263.133 241.45C263.017 241.62 262.9 241.79 262.786 241.97C262.55 242.342 262.323 242.73 262.099 243.134C262.099 243.134 262.099 243.134 262.099 243.15C262.08 243.181 262.063 243.214 262.048 243.247C262.048 243.247 262.048 243.247 262.048 243.247C262.001 243.332 261.954 243.418 261.913 243.509C264.237 236.382 261.229 227.479 246.078 223.53L247.245 223.575C249.916 223.691 251.679 223.89 251.679 223.89L256.911 222.865L275.18 219.276C275.18 219.276 268.119 218.771 270.642 216.255C270.98 216.009 271.301 215.76 271.588 215.51L285.228 216.28C285.228 216.28 285.228 216.28 285.228 216.324C285.228 216.368 285.228 216.349 285.228 216.365C285.218 216.399 285.209 216.434 285.203 216.469C285.203 216.507 285.184 216.554 285.171 216.608C285.159 216.662 285.153 216.699 285.137 216.75C285.121 216.8 285.089 216.939 285.061 217.065C285.061 217.094 285.061 217.122 285.036 217.154C285.004 217.27 284.97 217.393 284.929 217.529C284.859 217.762 284.777 218.024 284.676 218.308C284.61 218.497 284.534 218.699 284.459 218.907C284.45 218.934 284.439 218.96 284.427 218.986C284.396 219.068 284.364 219.15 284.329 219.232C284.591 219.228 284.851 219.189 285.102 219.115L285.38 219.024C285.413 219.013 285.446 219 285.477 218.986L285.588 218.935L285.774 218.847L285.957 218.743C286.004 218.718 286.048 218.686 286.095 218.658C286.116 218.646 286.136 218.634 286.155 218.62L286.316 218.503L286.357 218.472C286.499 218.362 286.634 218.243 286.761 218.115C286.815 218.056 286.868 218.002 286.922 217.939C286.99 217.871 287.054 217.8 287.114 217.724V217.724L289.028 219.216L292.065 218.27C292.091 221.077 290.489 225.874 290.489 225.874C290.489 225.874 295.689 220.087 308.08 222.269C308.875 222.584 316.983 226.28 316.983 226.28C323.29 228.173 328.525 233.625 328.525 233.625C328.604 233.834 328.683 234.045 328.771 234.256C328.872 234.518 328.983 234.783 329.087 235.048C329.162 235.224 329.238 235.398 329.323 235.578C329.408 235.757 329.535 236.032 329.639 236.265C329.702 236.401 329.768 236.536 329.837 236.675C329.945 236.908 330.061 237.142 330.187 237.378C330.442 237.883 330.711 238.397 330.995 238.92C331.13 239.173 331.269 239.425 331.417 239.68C331.566 239.936 331.707 240.198 331.859 240.459C332.01 240.721 332.174 240.986 332.319 241.248C332.464 241.51 332.635 241.781 332.796 242.049C332.956 242.317 333.111 242.585 333.284 242.856C333.559 243.307 333.839 243.755 334.126 244.209C334.558 244.89 335 245.568 335.448 246.256L336.356 247.622L336.816 248.303C337.132 248.757 337.447 249.211 337.763 249.662C337.993 249.999 338.232 250.34 338.463 250.674C338.693 251.009 338.939 251.343 339.169 251.671L340.115 252.989C340.147 253.027 340.175 253.068 340.207 253.109L340.714 253.815L341.282 254.594C341.434 254.796 341.579 254.998 341.727 255.2C342.228 255.884 342.72 256.546 343.203 257.193C343.316 257.338 343.423 257.483 343.518 257.628C343.591 257.723 343.66 257.821 343.733 257.918C343.805 258.016 343.878 258.108 343.947 258.202C344.095 258.391 344.234 258.577 344.376 258.76C344.653 259.129 344.931 259.489 345.199 259.839C345.262 259.924 345.328 260.016 345.395 260.101C345.53 260.271 345.659 260.441 345.789 260.608L345.981 260.858C346.174 261.104 346.36 261.343 346.539 261.58L346.899 262.037C347.016 262.185 347.132 262.33 347.243 262.475C347.353 262.621 347.463 262.759 347.558 262.895L347.716 263.097L348.176 263.674C348.466 264.043 348.737 264.38 348.977 264.683C349.059 264.784 349.138 264.882 349.211 264.976L349.475 265.292L349.595 265.443C349.829 265.73 350.018 265.96 350.147 266.124C350.169 266.15 350.188 266.178 350.21 266.2L350.232 266.228C350.28 266.279 350.311 266.323 350.336 266.351L350.44 266.414Z" fill="#5869F9"/>
<path d="M287.112 217.724C285.873 219.282 284.34 219.213 284.34 219.213C284.734 218.265 285.039 217.282 285.251 216.277L287.112 217.724Z" fill="white"/>
<path d="M289.778 214.656C289.759 214.716 289.746 214.779 289.727 214.842C289.416 216.279 289.183 217.732 289.03 219.194L287.113 217.724L285.252 216.277L289.778 214.656Z" fill="#A9B5FF"/>
<path d="M152.42 238.854C152.244 238.504 148.103 230.459 129.398 222.635C130.3 221.031 131.605 219.69 133.183 218.743C147.015 224.294 152.26 238.41 152.42 238.854Z" fill="white"/>
<path d="M196.845 224.032C193.921 226.432 192.278 230.919 192.089 231.446C192.253 230.881 193.634 225.848 191.594 221.786C194.893 223.085 196.845 224.032 196.845 224.032Z" fill="white"/>
<path d="M262.047 243.244L262.1 243.146C254.408 267.074 229.16 269.423 229.16 269.423C229.182 268.509 229.16 267.569 229.109 266.613C229.109 266.487 229.109 266.364 229.084 266.241C229.059 266.118 229.065 265.967 229.052 265.831C229.04 265.695 229.034 265.563 229.018 265.427C229.018 265.408 229.018 265.393 229.018 265.374C229.018 265.254 228.996 265.131 228.983 265.014C228.961 264.762 228.933 264.513 228.901 264.26C228.87 264.008 228.851 263.825 228.819 263.608V263.507C228.772 263.15 228.718 262.788 228.658 262.428C228.66 262.418 228.66 262.407 228.658 262.397C228.598 262.028 228.538 261.656 228.469 261.283C228.412 260.968 228.356 260.653 228.289 260.337C228.289 260.268 228.261 260.199 228.245 260.123C228.169 259.738 228.087 259.353 227.999 258.972C227.911 258.59 227.823 258.202 227.725 257.821C227.725 257.78 227.706 257.735 227.696 257.698C227.633 257.445 227.57 257.196 227.504 256.947V256.906C227.438 256.647 227.365 256.389 227.293 256.137C227.239 255.935 227.185 255.736 227.126 255.537C227.034 255.222 226.936 254.888 226.839 254.56C226.82 254.51 226.804 254.46 226.791 254.408L226.653 253.97C226.605 253.822 226.558 253.68 226.514 253.535C226.444 253.314 226.369 253.096 226.299 252.879C226.198 252.563 226.101 252.286 225.984 251.989C225.867 251.693 225.76 251.359 225.643 251.043C225.58 250.87 225.514 250.703 225.451 250.539C225.388 250.375 225.328 250.223 225.265 250.047C225.078 249.567 224.879 249.095 224.669 248.631C224.565 248.378 224.461 248.12 224.353 247.874C224.281 247.694 224.202 247.514 224.126 247.341L224.032 247.133C223.943 246.931 223.855 246.729 223.761 246.53C223.666 246.332 223.552 246.076 223.445 245.849C223.338 245.622 223.272 245.48 223.183 245.3C223.095 245.121 223.026 244.985 222.95 244.824C222.874 244.663 222.748 244.427 222.635 244.231C222.565 244.096 222.499 243.963 222.423 243.831C222.348 243.698 222.285 243.563 222.215 243.437C222.146 243.31 222.08 243.175 222.004 243.052L221.796 242.673C221.657 242.427 221.515 242.185 221.373 241.948L221.162 241.598C221.023 241.371 220.884 241.144 220.739 240.929C220.531 240.614 220.32 240.299 220.109 239.983C220.001 239.835 219.9 239.693 219.793 239.558C219.686 239.422 219.588 239.28 219.478 239.148C223.262 251.721 224.82 263.245 223.937 272.706C222.862 284.296 218.134 292.801 209.37 296.378C200.247 300.102 190.517 296.242 186.594 289.793L186.452 289.559C179.738 323.903 166.584 348.802 129.37 350.666C129.37 350.666 115.226 336.726 109.732 306.031C108.035 296.548 107.162 285.466 107.789 272.706C107.871 271.054 107.976 269.373 108.105 267.66C108.218 266.131 108.344 264.652 108.376 263.223C108.376 262.93 108.376 262.636 108.376 262.346C108.411 258.484 108.02 254.63 107.209 250.854C107.111 250.394 107.01 249.943 106.894 249.504C106.843 249.29 106.793 249.085 106.733 248.874C106.701 248.766 106.67 248.656 106.641 248.558C106.591 248.394 106.541 248.243 106.484 248.076C106.338 247.64 106.167 247.212 105.973 246.795C105.945 246.729 105.913 246.666 105.885 246.606C105.856 246.546 105.853 246.537 105.834 246.502L105.727 246.291C105.639 246.12 105.55 245.956 105.465 245.805C105.38 245.654 105.298 245.521 105.216 245.395L105.027 245.108L104.935 244.979C104.761 244.721 104.567 244.478 104.355 244.25V244.25C106.222 235.953 99.1357 229.702 99.1357 229.702L93.541 230.169C93.9605 225.555 98.8014 225.533 98.8014 225.533C111.902 214.438 129.348 222.616 129.348 222.616C148.037 230.44 152.178 238.485 152.37 238.835C152.209 238.397 146.965 224.281 133.133 218.724C137.832 215.971 143.338 218.138 143.338 218.138C160.658 211.461 181.86 218.008 191.527 221.771C191.58 221.875 191.631 221.982 191.678 222.086C191.725 222.19 191.766 222.285 191.807 222.401C191.997 222.859 192.151 223.33 192.268 223.811C192.287 223.89 192.312 223.978 192.324 224.057C192.337 224.136 192.372 224.265 192.391 224.372C192.393 224.389 192.393 224.406 192.391 224.423C192.413 224.524 192.429 224.625 192.444 224.719C192.46 224.814 192.479 224.943 192.495 225.05C192.511 225.158 192.523 225.24 192.533 225.337C192.542 225.435 192.561 225.621 192.574 225.76C192.596 226.025 192.608 226.28 192.615 226.533C192.621 226.785 192.615 227.05 192.615 227.302V227.618C192.615 227.741 192.615 227.86 192.596 227.987C192.599 228.007 192.599 228.029 192.596 228.05C192.596 228.214 192.574 228.365 192.558 228.52C192.526 228.835 192.495 229.1 192.457 229.358C192.457 229.45 192.435 229.535 192.419 229.617C192.403 229.699 192.384 229.828 192.369 229.932C192.353 230.036 192.35 230.04 192.337 230.09L192.315 230.219C192.287 230.371 192.255 230.51 192.227 230.639C192.227 230.705 192.201 230.762 192.186 230.822C192.187 230.831 192.187 230.841 192.186 230.85C192.186 230.885 192.17 230.913 192.16 230.945C192.151 230.976 192.135 231.052 192.123 231.096C192.11 231.14 192.123 231.096 192.123 231.112L192.088 231.244C192.088 231.311 192.056 231.364 192.044 231.405C192.052 231.383 192.061 231.36 192.072 231.339C192.081 231.308 192.091 231.277 192.104 231.248C192.148 231.125 192.214 230.951 192.299 230.74L192.372 230.576C192.394 230.519 192.416 230.459 192.444 230.399L192.533 230.191L192.63 229.97C192.662 229.898 192.697 229.819 192.734 229.743C192.772 229.667 192.839 229.516 192.898 229.396C192.958 229.276 192.977 229.232 193.018 229.147C193.103 228.977 193.192 228.8 193.286 228.62C193.381 228.441 193.482 228.258 193.602 228.072C193.655 227.98 193.709 227.882 193.766 227.791C193.822 227.7 193.873 227.599 193.93 227.507C193.986 227.416 194.046 227.315 194.109 227.22C194.173 227.126 194.229 227.028 194.292 226.933C194.447 226.69 194.608 226.454 194.784 226.217C194.869 226.101 194.961 225.984 195.049 225.867C195.138 225.751 195.232 225.634 195.324 225.524C195.415 225.413 195.472 225.341 195.551 225.255C195.63 225.17 195.768 225.013 195.866 224.899C195.884 224.876 195.904 224.855 195.926 224.836C196.036 224.719 196.15 224.606 196.263 224.499L196.418 224.354L196.588 224.199L196.793 224.026C205.747 216.457 218.336 224.026 218.336 224.026C228.113 212.275 245.754 223.464 245.754 223.464L246.016 223.53C261.154 227.479 264.175 236.382 261.851 243.509C261.892 243.418 261.939 243.332 261.987 243.247C262.043 243.247 262.047 243.247 262.047 243.244Z" fill="#3C53DD"/>
<path d="M314.981 217.034C314.981 217.034 309.383 216.545 305.864 213.117C305.864 213.117 304.763 215.353 304.826 217.573C298.172 214.571 290.673 217.712 289.783 214.675C291.811 213.439 295.532 210.692 295.532 210.692L293.104 206.686C292.092 205.28 292.681 204.201 293.896 203.618C295.63 202.789 295.788 202.041 295.788 202.041C295.939 201.319 296.154 201.284 296.441 201.237C296.788 201.174 297.582 201.149 297.582 201.149C297.313 200.607 297.258 199.984 297.431 199.405C298.283 199.362 299.104 199.074 299.796 198.575C299.613 198.171 299.528 197.629 299.815 196.74C300.228 195.434 302.338 197.601 306.123 196.951L307.422 195.109C309.86 195.056 311.701 194.513 314.228 193.942C317.495 195.043 319.92 199.424 317.4 203.621C317.4 203.621 319.267 209.216 316.095 212.199L317.217 213.038C317.217 213.038 321.317 211.524 322.017 213.271C322.433 214.255 317.403 217.523 314.981 217.034Z" fill="#E0AC89"/>
<path d="M326.626 338.634C326.626 338.634 327.165 341.788 325.433 341.45C325.433 344.27 324.579 346.408 323.857 346.991C323.03 347.307 320.586 345.979 319.467 344.153C321.778 348.994 320.621 350.262 319.536 350.669C319.536 350.669 313.777 342.857 313.188 336.121C313.073 334.627 313.415 333.133 314.168 331.838L314.32 331.573C315.859 328.839 318.656 323.43 319.473 318.98C324.128 321.837 325.427 324.761 325.966 329.312L324.56 334.512C325.329 335.844 326.019 337.221 326.626 338.634V338.634Z" fill="#E0AC89"/>
<path d="M319.481 318.987C318.651 323.437 315.866 328.845 314.327 331.573C312.902 332.182 311.924 331.822 311.306 331.321C311.174 331.208 311.065 331.07 310.987 330.915C310.91 330.759 310.864 330.589 310.854 330.416C310.844 330.242 310.868 330.068 310.927 329.905C310.986 329.741 311.077 329.591 311.196 329.463C312.484 328.02 313.624 326.451 314.599 324.78C315.19 323.704 315.958 322.734 316.869 321.91C317.849 321.039 318.725 320.058 319.481 318.987V318.987Z" fill="#E0AC89"/>
<path d="M327.502 271.17C327.202 271.649 326.972 272.168 326.821 272.712H303.057C306.895 264.399 306.981 251.469 300.572 240.254C302.02 240.841 304.808 243.449 308.17 246.767C315.694 254.194 326.111 265.166 330.854 264.872L326.24 267.184C325.31 269.253 326.029 270.416 327.502 271.17Z" fill="white"/>
<path d="M311.138 267.439H242.904C256.412 259.77 262.662 250.094 264.665 241.976C264.917 241.623 265.179 241.286 265.45 240.961C265.576 240.806 265.709 240.661 265.841 240.513C265.858 240.491 265.877 240.469 265.898 240.45C266.002 240.333 266.109 240.22 266.213 240.106C266.377 239.933 266.544 239.766 266.715 239.602C267.03 239.321 267.32 239.053 267.626 238.797C267.781 238.671 267.942 238.548 268.099 238.428C275.533 232.786 286.611 234.401 292.66 237.921C296.155 234.909 304.723 234.429 308.293 239.497C315.585 249.142 315.496 260.274 311.138 267.439Z" fill="#A9B5FF"/>
<path d="M308.099 222.256C299.517 218.787 293.018 222.839 293.018 222.839C293.229 221.367 295.115 217.314 295.115 217.314C297.07 217.374 301.529 217.194 304.967 218.67C305.781 219.008 306.539 219.47 307.212 220.039C307.247 220.119 307.286 220.197 307.329 220.272C307.351 220.313 307.376 220.354 307.398 220.399C307.421 220.443 307.487 220.559 307.537 220.641C307.588 220.723 307.588 220.723 307.613 220.768C307.66 220.85 307.704 220.935 307.752 221.02L307.821 221.159C307.846 221.206 307.865 221.253 307.884 221.297C307.908 221.342 307.927 221.39 307.941 221.439C307.981 221.533 308.013 221.63 308.036 221.729C308.083 221.901 308.104 222.078 308.099 222.256V222.256Z" fill="#A9B5FF"/>
<path d="M383.735 251.447C383.584 251.541 383.42 251.642 383.294 251.743C380.837 253.5 379.006 255.996 378.068 258.867C379.33 254.395 378.472 244.521 368.371 235.394C366.445 233.653 364.254 232.229 361.88 231.178H361.846C357.686 229.339 353.356 228.781 349.458 228.838C346.875 228.885 344.302 229.179 341.775 229.714H341.756C340.221 230.027 338.708 230.437 337.225 230.941L336.852 231.071L336.537 231.187C341.16 228.907 350.543 223.136 348.695 214.589C344.834 205.153 334.607 200.044 327.067 200.975C328.833 205.51 330.687 211.344 330.687 211.344C321.62 213.911 318.895 221.638 318.895 221.638C315.132 220.416 311.18 219.875 307.227 220.042C307.261 220.121 307.299 220.193 307.34 220.275C307.381 220.357 307.387 220.357 307.409 220.402C307.46 220.48 307.506 220.561 307.548 220.644C307.577 220.689 307.599 220.726 307.624 220.771C307.671 220.853 307.715 220.938 307.763 221.023L307.832 221.162C307.857 221.209 307.876 221.256 307.895 221.3C307.919 221.345 307.938 221.393 307.952 221.442C307.993 221.535 308.025 221.633 308.047 221.732C308.092 221.903 308.113 222.079 308.11 222.256C308.904 222.571 317.012 226.267 317.012 226.267C323.32 228.16 328.555 233.612 328.555 233.612C328.634 233.821 328.713 234.032 328.801 234.243C328.902 234.505 329.012 234.77 329.116 235.035C329.192 235.211 329.271 235.385 329.353 235.565C329.435 235.744 329.564 236.019 329.668 236.252C329.731 236.388 329.798 236.523 329.867 236.662C329.981 236.895 330.097 237.129 330.217 237.365C330.471 237.87 330.741 238.384 331.024 238.907C331.163 239.16 331.302 239.412 331.447 239.668C331.592 239.923 331.737 240.185 331.889 240.446C332.04 240.708 332.204 240.973 332.349 241.235C332.494 241.497 332.664 241.768 332.825 242.036C332.986 242.304 333.141 242.572 333.314 242.843C333.588 243.294 333.872 243.742 334.156 244.196C334.588 244.877 335.03 245.555 335.477 246.243L336.386 247.609L336.846 248.29C337.161 248.744 337.477 249.198 337.792 249.649C338.022 249.986 338.262 250.327 338.492 250.661C338.723 250.996 338.969 251.33 339.199 251.658L340.145 252.976C340.176 253.014 340.205 253.055 340.236 253.096L340.744 253.802L341.312 254.581C341.463 254.783 341.608 254.985 341.756 255.187C342.258 255.871 342.75 256.534 343.232 257.18C343.346 257.325 343.453 257.47 343.548 257.615C343.62 257.71 343.69 257.808 343.762 257.905C343.835 258.003 343.907 258.095 343.977 258.189C344.125 258.378 344.264 258.565 344.406 258.747C344.683 259.116 344.961 259.476 345.229 259.826C345.292 259.911 345.358 260.003 345.424 260.088C345.56 260.258 345.689 260.428 345.818 260.595L346.011 260.845C346.203 261.091 346.389 261.33 346.569 261.567C346.695 261.721 346.812 261.882 346.929 262.024C347.045 262.166 347.162 262.317 347.272 262.462C347.383 262.608 347.493 262.746 347.588 262.882L347.745 263.084L348.206 263.661C348.496 264.03 348.767 264.367 349.007 264.67C349.089 264.771 349.168 264.869 349.24 264.963L349.505 265.279L349.625 265.43C349.858 265.717 350.048 265.947 350.177 266.111C350.201 266.134 350.222 266.159 350.24 266.187L350.262 266.215C350.309 266.266 350.341 266.31 350.366 266.338L350.417 266.401C350.357 266.452 350.294 266.506 350.23 266.569C350.167 266.632 350.142 266.666 350.095 266.717C350.048 266.767 350.007 266.827 349.959 266.887L349.871 267.007C349.811 267.092 349.754 267.18 349.694 267.275C349.634 267.37 349.578 267.474 349.521 267.59C349.492 267.641 349.467 267.694 349.436 267.754C349.382 267.862 349.322 267.978 349.269 268.098C349.215 268.218 349.158 268.344 349.101 268.477C349.045 268.609 348.953 268.839 348.881 269.038C348.846 269.123 348.814 269.208 348.783 269.3L348.688 269.568C348.638 269.71 348.594 269.858 348.543 270.009C348.452 270.29 348.363 270.58 348.278 270.883C348.231 271.037 348.19 271.198 348.143 271.359C348.111 271.469 348.08 271.577 348.054 271.674C348.029 271.772 347.976 271.965 347.938 272.116C347.9 272.267 347.84 272.501 347.789 272.699H402.74C420.104 258.722 401.223 241.449 383.735 251.447ZM334.102 232.275C334.887 231.863 335.697 231.501 336.528 231.194C335.159 231.862 334.216 232.231 334.102 232.275ZM377.939 259.318C377.973 259.174 378.016 259.032 378.065 258.892C378.021 259.038 377.983 259.183 377.939 259.318Z" fill="#A9B5FF"/>
<path d="M383.302 251.743C380.845 253.5 379.014 255.996 378.077 258.868C379.338 254.396 378.48 244.521 368.379 235.394C366.454 233.653 364.263 232.229 361.889 231.178C374.999 236.132 381.792 245.657 383.302 251.743Z" fill="white"/>
<path d="M349.458 228.826C346.875 228.873 344.303 229.166 341.775 229.702H341.757C340.215 229.987 338.699 230.398 337.225 230.929L336.852 231.058L336.537 231.175C341.16 228.895 350.543 223.124 348.695 214.577C350.328 218.595 350.817 223.382 349.458 228.826Z" fill="white"/>
<path d="M334.102 232.276C334.886 231.863 335.696 231.502 336.527 231.194C335.158 231.862 334.215 232.231 334.102 232.276Z" fill="white"/>
<path d="M350.281 266.228C350.329 266.279 350.36 266.323 350.385 266.351L350.281 266.228Z" fill="white"/>
<path d="M378.068 258.893C378.023 259.038 377.986 259.183 377.941 259.319C377.976 259.175 378.018 259.032 378.068 258.893V258.893Z" fill="white"/>
<path d="M66.5078 252.532C66.5646 252.636 66.6277 252.746 66.6907 252.847C66.6277 252.746 66.5646 252.636 66.5078 252.532ZM68.1257 254.96L68.2203 255.083L68.1257 254.96ZM68.3811 255.275L68.46 255.376L68.3811 255.275Z" fill="#E0AC89"/>
<path d="M66.7096 252.882L66.6907 252.85C66.6277 252.746 66.5646 252.636 66.5078 252.535C66.5646 252.639 66.6277 252.749 66.6939 252.85C66.7004 252.86 66.7057 252.871 66.7096 252.882V252.882Z" fill="white"/>
<path d="M68.3804 255.288L68.2196 255.083L68.125 254.96L68.2228 255.083C68.2732 255.153 68.3268 255.222 68.3804 255.288Z" fill="white"/>
<path d="M68.5827 255.54C68.5417 255.49 68.4975 255.439 68.4597 255.389L68.3809 255.288L68.4629 255.389L68.5827 255.54Z" fill="white"/>
<path d="M65.4866 245.871L65.4645 245.918C65.4487 245.956 65.4298 245.994 65.4141 246.038C65.4249 245.998 65.4386 245.959 65.4551 245.922C65.4641 245.904 65.4746 245.887 65.4866 245.871V245.871Z" fill="white"/>
<path d="M73.8162 260.883C73.8044 260.872 73.7917 260.863 73.7784 260.855L73.709 260.788L73.8162 260.883Z" fill="white"/>
<path d="M74.5038 261.457C74.3902 261.365 74.1537 261.173 73.832 260.899C74.1726 261.167 74.3965 261.356 74.5038 261.457Z" fill="white"/>
<path d="M104.429 244.269C96.0782 232.348 83.5327 233.455 79.0482 239.882C79.0482 240.037 79.0482 240.197 79.0482 240.339C79.0482 240.188 79.0482 240.04 79.0482 239.885C76.8942 238.226 72.7408 238.368 69.5177 240.103C69.4199 240.156 69.3253 240.207 69.2275 240.267C66.1401 242.039 63.9829 245.313 65.3674 249.889L65.3863 249.958C65.4147 250.043 65.4368 250.135 65.4683 250.22L65.4999 250.305C65.4999 250.34 65.5188 250.371 65.5314 250.406C65.544 250.441 65.5314 250.406 65.5314 250.428C65.5535 250.491 65.5755 250.554 65.6008 250.617C65.626 250.68 65.667 250.794 65.7017 250.882C65.7364 250.97 65.7679 251.043 65.8026 251.122C66.0118 251.61 66.2487 252.086 66.5122 252.547C66.569 252.651 66.632 252.762 66.6983 252.863C66.6994 252.873 66.6994 252.884 66.6983 252.894L66.7771 253.017C66.8118 253.08 66.8496 253.143 66.8906 253.21C66.8906 253.21 66.8906 253.235 66.919 253.251L67.083 253.512L67.1398 253.597C67.1902 253.676 67.2407 253.758 67.2975 253.834C67.5151 254.149 67.739 254.465 67.9724 254.78C68.0039 254.827 68.0386 254.872 68.0733 254.919L68.1111 254.969L68.2089 255.092C68.2593 255.162 68.313 255.231 68.3666 255.297L68.4486 255.398L68.5684 255.55C68.6756 255.685 68.7829 255.818 68.8838 255.95L69.1518 256.266C69.237 256.37 69.3253 256.471 69.4199 256.581C69.833 257.06 70.2588 257.527 70.6814 257.95L70.7161 257.984L70.8296 258.101L71.3027 258.58L71.4761 258.754L71.6496 258.924C72.4506 259.703 73.1697 260.346 73.6932 260.801L73.8004 260.895C73.7886 260.885 73.7759 260.875 73.7626 260.867C72.0469 259.523 67.4709 256.36 59.1798 253.279C59.1798 253.279 39.3115 244.742 27.0121 251.702C14.7126 258.662 21.9661 272.725 27.0121 272.725H102.099C102.143 272.649 102.184 272.573 102.231 272.494C102.278 272.416 102.297 272.375 102.329 272.312C102.395 272.189 102.461 272.056 102.524 271.92C102.562 271.854 102.591 271.785 102.625 271.716C102.66 271.646 102.717 271.523 102.758 271.425C102.89 271.135 103.026 270.82 103.158 270.479C103.221 270.331 103.278 270.18 103.338 270.025C103.515 269.562 103.691 269.079 103.861 268.549C103.918 268.376 103.978 268.199 104.032 268.023C104.145 267.66 104.256 267.291 104.366 266.912C104.42 266.72 104.473 266.528 104.524 266.332C104.686 265.746 104.837 265.14 104.978 264.516C106.407 258.262 106.962 250.207 104.429 244.269ZM65.4652 245.918C65.4494 245.956 65.4305 245.994 65.4147 246.038C65.4255 245.998 65.4392 245.959 65.4557 245.921C65.4629 245.905 65.4713 245.889 65.4809 245.874L65.4652 245.918ZM73.8351 260.898C74.1757 261.166 74.3996 261.356 74.5068 261.457C74.3933 261.365 74.1568 261.173 73.8351 260.898Z" fill="#A9B5FF"/>
<path d="M109.776 306.028C109.464 307.483 109.076 308.921 108.613 310.336C102.845 299.695 103.251 288.096 103.251 288.096C100.585 286.109 98.4873 283.457 97.168 280.404L102.094 272.709H107.827C107.209 285.472 108.08 296.567 109.776 306.028Z" fill="white"/>
<path d="M108.613 310.342C108.528 310.446 105.573 313.859 92.2771 313.859C91.1569 312.466 90.1135 311.013 89.1518 309.507C86.8017 305.886 84.9197 301.982 83.5508 297.888L93.3273 286.418L97.1779 280.404C98.4959 283.455 100.59 286.107 103.252 288.096C103.252 288.096 102.842 299.695 108.613 310.342Z" fill="#A9B5FF"/>
<path d="M337.798 267.689C337.092 267.872 329.501 269.836 327.498 271.158C326.029 270.404 325.309 269.237 326.237 267.171C326.233 267.417 326.308 267.657 326.451 267.856V267.856C327.987 269.944 337.025 267.868 337.798 267.689Z" fill="#5869F9"/>
<path d="M104.42 244.263C104.338 243.888 101.582 231.84 93.6094 230.188L99.2009 229.708C99.2009 229.708 106.287 235.965 104.42 244.263Z" fill="white"/>
<path d="M108.441 262.362C108.441 262.652 108.441 262.945 108.441 263.239C108.409 264.667 108.283 266.146 108.169 267.676C108.031 269.379 107.926 271.06 107.854 272.722H102.102L102.231 272.492C102.266 272.435 102.297 272.372 102.329 272.309C102.395 272.186 102.461 272.053 102.524 271.918C102.562 271.851 102.59 271.782 102.625 271.713C102.66 271.643 102.717 271.52 102.758 271.422C102.89 271.132 103.026 270.817 103.158 270.476C103.221 270.328 103.278 270.177 103.338 270.022C103.514 269.559 103.691 269.076 103.861 268.546C103.918 268.373 103.978 268.196 104.032 268.02C104.145 267.657 104.256 267.288 104.366 266.909C104.42 266.717 104.473 266.525 104.524 266.329C104.685 265.743 104.837 265.137 104.978 264.513C106.413 258.259 106.961 250.217 104.429 244.266C104.641 244.493 104.835 244.737 105.009 244.994L105.101 245.124L105.29 245.411C105.372 245.537 105.454 245.672 105.539 245.821C105.624 245.969 105.713 246.136 105.801 246.306L105.908 246.518C105.927 246.552 105.943 246.587 105.959 246.622C105.974 246.656 106.018 246.745 106.047 246.811C106.241 247.228 106.412 247.655 106.558 248.091C106.615 248.249 106.665 248.407 106.715 248.574C106.744 248.678 106.775 248.788 106.807 248.889C106.867 249.091 106.917 249.296 106.968 249.52C107.075 249.958 107.176 250.409 107.283 250.87C108.09 254.646 108.478 258.5 108.441 262.362Z" fill="white"/>
<path d="M304.966 218.67C301.528 217.194 297.081 217.374 295.114 217.314L292.067 218.26L289.033 219.207C289.183 217.744 289.415 216.291 289.727 214.854C289.746 214.801 289.762 214.741 289.784 214.687C290.673 217.724 298.173 214.583 304.827 217.586C304.838 217.951 304.884 218.314 304.966 218.67V218.67Z" fill="white"/>
<path d="M308.098 222.256C295.708 220.074 290.504 225.861 290.504 225.861C290.504 225.861 292.081 221.064 292.081 218.257L295.127 217.311C295.127 217.311 293.235 221.364 293.033 222.837C293.017 222.84 299.514 218.775 308.098 222.256Z" fill="white"/>
<path d="M27.0205 272.712H14.4688C10.8484 267.417 13.857 258.032 27.0205 251.689C14.7053 258.65 21.9809 272.712 27.0205 272.712Z" fill="white"/>
<path d="M104.419 244.257C96.0681 232.336 83.5227 233.442 79.0381 239.87C79.0098 238.902 78.9498 237.842 78.8521 236.678C78.0763 227.349 74.9352 229.686 73.5381 221.922C72.141 214.158 77.2689 214.93 77.2689 214.93L78.5304 220.017C80.7727 222.259 87.2378 226.325 88.9755 227.4L93.6051 230.182C101.593 231.834 104.337 243.881 104.419 244.257Z" fill="#E0AC89"/>
<path d="M79.0505 240.327C79.0505 240.175 79.0505 240.027 79.0505 239.873C79.0442 240.024 79.0474 240.175 79.0505 240.327Z" fill="white"/>
<path d="M65.4866 245.871L65.4645 245.918C65.4487 245.956 65.4298 245.994 65.4141 246.038C65.4249 245.998 65.4386 245.959 65.4551 245.922C65.4641 245.904 65.4746 245.887 65.4866 245.871V245.871Z" fill="white"/>
<path d="M73.778 260.854C72.0624 259.511 67.4864 256.348 59.1953 253.267C59.9869 248.952 62.0873 244.187 69.2146 240.251C66.1272 242.024 63.97 245.297 65.3545 249.873L65.3734 249.943C65.4018 250.028 65.4239 250.119 65.4554 250.204L65.4869 250.289C65.4869 250.324 65.5059 250.356 65.5185 250.39C65.5311 250.425 65.5185 250.39 65.5185 250.412C65.5406 250.476 65.5626 250.539 65.5879 250.602C65.6131 250.665 65.6541 250.778 65.6888 250.867C65.7235 250.955 65.755 251.027 65.7897 251.106C65.9989 251.595 66.2358 252.071 66.4993 252.532C66.5561 252.636 66.6191 252.746 66.6822 252.847L66.7011 252.879L66.78 253.002C66.8147 253.065 66.8525 253.128 66.8935 253.194C66.8935 253.194 66.8935 253.219 66.9219 253.235L67.0859 253.497L67.1426 253.582C67.1931 253.661 67.2436 253.743 67.3003 253.818C67.5179 254.134 67.7418 254.449 67.9752 254.765C68.0068 254.812 68.0415 254.856 68.0761 254.903L68.114 254.954L68.2086 255.077L68.3694 255.282L68.4483 255.383C68.4861 255.433 68.5303 255.484 68.5713 255.534C68.6785 255.67 68.7857 255.802 68.8866 255.935L69.1547 256.25C69.2399 256.354 69.3282 256.455 69.4228 256.565C69.8359 257.045 70.2617 257.511 70.6842 257.934L70.7189 257.969L70.8325 258.085L71.3055 258.565L71.479 258.738L71.6524 258.909C72.4535 259.688 73.1725 260.331 73.696 260.785L73.778 260.854Z" fill="white"/>
<path d="M234.099 109.038C234.099 109.038 221.831 103.245 227.959 98.4608C234.086 93.6766 247.407 99.8232 247.407 99.8232C247.407 99.8232 250.479 86.8457 263.46 88.2207C276.44 89.5957 277.79 100.835 277.79 100.835C277.79 100.835 288.374 92.5223 302.903 90.2107C324.613 86.7637 330.766 94.5849 332.27 101.176C363.807 92.2574 352.959 109.038 352.959 109.038H234.099Z" fill="#A9B5FF"/>
</svg>
