<svg width="402" height="379" viewBox="0 0 402 379" fill="none" xmlns="http://www.w3.org/2000/svg">
<path d="M265.424 10.5432C305.339 22.0006 350.408 32.6496 372.705 67.868C394.837 102.826 380.814 147.649 378.42 189.024C376.107 229 381.314 271.409 359.01 304.576C336.035 338.742 296.876 357.528 257.46 368.899C218.197 380.226 175.459 384.559 137.922 368.358C101.512 352.643 82.0121 315.403 58.7549 283.137C34.6796 249.736 3.57161 218.744 0.429667 177.608C-2.87402 134.355 13.0688 90.1656 41.526 57.5703C69.0648 26.027 110.786 12.9924 151.639 4.41176C189.752 -3.59356 227.983 -0.204132 265.424 10.5432Z" fill="white"/>
<path d="M54.1719 266.996C54.1738 267.002 54.1738 267.007 54.1719 267.013C54.1719 267.013 54.2273 266.055 54.2988 264.32C54.3104 265.214 54.2681 266.108 54.1719 266.996V266.996Z" fill="#A9B5FF"/>
<path d="M54.1719 266.996V267.01C54.1733 267.005 54.1733 267.001 54.1719 266.996V266.996Z" fill="#A9B5FF"/>
<path d="M54.1699 227.519C54.1699 227.519 54.0315 216.739 52.2363 211.192C52.2363 211.192 54.0222 212.854 56.1335 216.01C56.3319 221.834 54.1699 227.519 54.1699 227.519Z" fill="#5869F9"/>
<path d="M144.467 287.264L143.803 287.278C144.024 287.276 144.246 287.264 144.467 287.264Z" fill="#A9B5FF"/>
<path d="M353.687 82.0274C353.687 87.596 351.968 93.0287 348.763 97.5829C345.559 102.137 341.026 105.59 335.784 107.471C337.51 102.648 337.83 97.4343 336.707 92.4367C335.584 87.439 333.065 82.863 329.443 79.2413C325.821 75.6196 321.245 73.1013 316.247 71.9793C311.249 70.8574 306.036 71.1781 301.213 72.904C303.362 66.9123 307.557 61.8714 313.059 58.6692C318.56 55.4671 325.015 54.3092 331.287 55.3996C337.558 56.4899 343.244 59.7586 347.341 64.6297C351.439 69.5009 353.687 75.6619 353.687 82.0274V82.0274Z" fill="#5869F9"/>
<path d="M337.349 140.051C337.349 140.051 330.22 136.68 333.782 133.911C337.345 131.143 345.061 134.703 345.061 134.703C345.061 134.703 346.842 127.185 354.362 127.977C361.881 128.768 362.668 135.298 362.668 135.298C362.668 135.298 393.467 135.298 397.819 137.079C402.171 138.861 401.58 140.047 401.58 140.047L337.349 140.051Z" fill="#A9B5FF"/>
<path d="M224.215 204.658C222.914 211.561 218.883 219.773 210.17 226.29H192.906C192.709 222.698 192.173 219.134 191.305 215.643C192.625 211.128 193.213 206.431 193.047 201.73C193.987 202.986 194.807 204.328 195.497 205.738C195.679 206.095 195.859 206.469 196.037 206.85C196.076 206.94 196.12 207.03 196.159 207.122C196.229 207.267 196.293 207.415 196.358 207.563C196.383 207.614 196.404 207.664 196.427 207.715C196.45 207.766 196.503 207.886 196.54 207.974C197.085 209.231 197.599 210.581 198.061 211.979C198.16 212.281 198.255 212.586 198.351 212.902C199.033 215.088 199.534 217.326 199.849 219.593C199.881 219.818 199.909 220.042 199.932 220.265C200.071 221.463 200.128 222.668 200.103 223.874C200.103 223.874 218.587 222.164 224.215 204.658Z" fill="white"/>
<path d="M274.39 181.388C267.756 183.266 265.762 188.919 265.762 188.919C263.009 188.025 260.118 187.63 257.225 187.752V187.752C256.732 187.335 256.178 186.998 255.582 186.75L255.541 186.552C255.504 186.352 255.483 186.15 255.478 185.947C255.432 184.332 256.235 182.685 256.235 182.685C258.813 185.197 262.908 185.555 262.908 185.555C264.68 185.91 268.37 183.529 268.074 182.786C267.562 181.506 264.56 182.613 264.56 182.613L263.744 182.004C266.051 179.819 264.696 175.728 264.696 175.728C266.542 172.657 264.766 169.45 262.375 168.647C263.298 167.181 266.284 168.254 266.284 168.254C266.284 168.254 266.916 168.275 269.837 170.013C270.264 170.269 270.991 171.872 271.743 173.801C273.033 177.119 274.39 181.388 274.39 181.388Z" fill="#3C53DD"/>
<path d="M244.275 184.491C244.319 184.307 244.372 184.129 244.43 183.954C244.202 185.005 244.032 186.068 243.92 187.138C244.024 186.178 244.169 185.165 244.271 184.512C244.27 184.505 244.272 184.498 244.275 184.491V184.491Z" fill="#DDB38C"/>
<path d="M278.206 229.255C277.184 232.326 275.391 236.869 268.584 238.978C269.332 238.694 269.791 237.617 270.109 236.168C274.888 235.002 277.094 231.73 278.206 229.255Z" fill="white"/>
<path d="M277.862 256.772C278.116 254.033 275.204 251.581 273.414 250.342C272.673 249.832 272.121 249.527 272.068 249.497C272.11 249.513 272.502 249.672 273.1 249.894C274.68 250.482 277.68 251.509 279.348 251.551L277.862 256.772Z" fill="white"/>
<path d="M233.787 187.191L220.42 189.817C224.174 188.568 228.034 186.764 230.466 184.971C228.62 186.822 233.787 187.191 233.787 187.191Z" fill="white"/>
<path d="M288.848 221.682C288.804 221.719 288.758 221.758 288.712 221.804C288.666 221.85 288.647 221.876 288.613 221.912C288.578 221.949 288.548 221.993 288.513 222.037L288.449 222.125C288.405 222.187 288.364 222.252 288.32 222.321C288.276 222.39 288.234 222.466 288.193 222.552C288.172 222.588 288.154 222.628 288.13 222.672C288.091 222.75 288.047 222.835 288.008 222.923C287.969 223.011 287.925 223.103 287.886 223.2C287.847 223.297 287.777 223.465 287.724 223.611C287.699 223.673 287.676 223.735 287.653 223.802L287.584 223.998C287.547 224.102 287.514 224.211 287.477 224.321C287.411 224.527 287.346 224.739 287.284 224.96C287.249 225.074 287.219 225.191 287.184 225.309C287.161 225.39 287.138 225.468 287.12 225.54C287.101 225.611 287.062 225.752 287.034 225.863C287.007 225.973 286.963 226.144 286.926 226.29C284.796 234.889 283.326 251.927 279.349 251.553C277.678 251.516 274.678 250.482 273.1 249.894L272.886 249.813L272.694 249.739C272.634 249.719 272.576 249.698 272.523 249.675L272.376 249.617H272.353L272.256 249.58L272.103 249.52C272.117 249.529 272.132 249.537 272.147 249.543C272.162 249.555 272.178 249.565 272.196 249.573L272.276 249.624L272.339 249.661C272.433 249.714 272.544 249.783 272.676 249.864L272.893 250C273.049 250.104 273.222 250.217 273.407 250.344C273.999 250.752 274.567 251.196 275.105 251.673L275.292 251.841C275.523 252.047 275.731 252.259 275.941 252.481L276.091 252.642C276.275 252.847 276.455 253.06 276.624 253.279C276.67 253.341 276.718 253.406 276.764 253.473C276.814 253.535 276.859 253.601 276.9 253.669C276.956 253.743 277.002 253.819 277.05 253.9C277.143 254.043 277.228 254.186 277.304 254.333C277.343 254.412 277.38 254.486 277.415 254.564C277.488 254.714 277.553 254.868 277.609 255.026C277.636 255.109 277.664 255.189 277.69 255.273C277.715 255.356 277.733 255.418 277.75 255.503C277.766 255.589 277.775 255.607 277.786 255.662C277.798 255.718 277.786 255.718 277.805 255.748C277.823 255.778 277.823 255.866 277.833 255.926C277.842 255.986 277.833 256.002 277.846 256.041C277.854 256.084 277.858 256.127 277.858 256.17C277.86 256.205 277.86 256.241 277.858 256.276C277.858 256.392 277.858 256.507 277.858 256.632C277.858 256.687 277.858 256.742 277.844 256.798L275.784 264.029C275.784 264.029 275.458 263.798 274.895 263.448C273.28 262.421 269.771 260.13 266.282 259.398C265.403 259.214 264.881 259.167 264.221 259.066L268.091 248.221C267.016 245.667 267.544 241.373 268.568 238.992C268.735 238.941 268.901 238.888 269.062 238.832C269.346 238.738 269.618 238.639 269.881 238.532C270.045 238.47 270.2 238.408 270.354 238.339L270.611 238.226C270.717 238.179 270.823 238.131 270.927 238.08C271.03 238.029 271.157 237.967 271.28 237.907C271.698 237.698 272.106 237.467 272.5 237.215C272.581 237.167 272.657 237.116 272.731 237.06C272.754 237.048 272.777 237.034 272.798 237.019C272.863 236.975 272.925 236.933 272.987 236.887C273.049 236.841 273.142 236.781 273.218 236.726C273.294 236.67 273.416 236.578 273.513 236.495C273.61 236.412 273.76 236.301 273.875 236.2C273.959 236.135 274.037 236.064 274.106 235.994C274.175 235.925 274.254 235.865 274.323 235.796C274.392 235.727 274.429 235.699 274.48 235.648C274.531 235.597 274.6 235.535 274.655 235.478C275.062 235.071 275.438 234.635 275.781 234.174C275.83 234.112 275.874 234.047 275.92 233.985C276.003 233.867 276.086 233.754 276.151 233.639C276.162 233.62 276.174 233.602 276.187 233.583C276.266 233.461 276.342 233.352 276.418 233.221C276.494 233.089 276.573 232.965 276.649 232.836C276.725 232.706 276.79 232.584 276.859 232.455C276.993 232.201 277.117 231.947 277.233 231.698C277.274 231.615 277.311 231.53 277.348 231.449C277.385 231.368 277.44 231.218 277.489 231.119C277.581 230.902 277.666 230.687 277.745 230.473C277.904 230.053 278.047 229.644 278.174 229.261C277.064 231.737 274.856 235.009 270.08 236.184C270.726 233.232 270.793 228.742 271.538 226.306C271.649 225.908 271.817 225.528 272.036 225.177C272.072 225.152 272.109 225.129 272.147 225.108C272.163 225.108 272.186 225.087 272.207 225.071C272.309 225.014 272.422 224.954 272.546 224.894C272.609 224.861 272.671 224.834 272.74 224.801C272.971 224.7 273.218 224.596 273.488 224.49L273.622 224.439L274.037 224.284L274.18 224.234L274.473 224.132C274.623 224.079 274.778 224.026 274.935 223.978L275.237 223.878L275.857 223.682C275.959 223.65 276.061 223.618 276.164 223.59C276.178 223.584 276.192 223.58 276.206 223.576C276.294 223.546 276.384 223.521 276.467 223.495C276.55 223.47 276.67 223.435 276.769 223.408L276.917 223.366C277.016 223.334 277.115 223.306 277.21 223.281L277.523 223.188C277.559 223.175 277.595 223.164 277.632 223.156C277.724 223.128 277.807 223.108 277.893 223.085L278.502 222.916L278.698 222.863L278.929 222.801C279.002 222.778 279.074 222.759 279.136 222.743L279.42 222.669H279.448H279.399C279.265 222.702 279.069 222.743 278.832 222.792L278.601 222.84C278.283 222.902 277.909 222.974 277.493 223.045L277.177 223.098L276.96 223.133L276.73 223.165C275.886 223.3 275.034 223.386 274.18 223.421C274.028 223.421 273.878 223.421 273.732 223.421C273.453 223.421 273.186 223.421 272.932 223.387L272.729 223.368H272.715C272.643 223.368 272.572 223.35 272.503 223.338C272.433 223.327 272.371 223.315 272.309 223.301C272.251 223.291 272.194 223.276 272.138 223.258C272.107 223.243 272.078 223.226 272.05 223.207L271.935 223.168C271.752 223.107 271.582 223.011 271.434 222.886C271.409 222.87 271.388 222.85 271.37 222.826C271.342 222.799 271.316 222.77 271.293 222.738V222.738C271.242 222.669 271.203 222.591 271.178 222.508C271.152 222.42 271.139 222.329 271.139 222.238L274.515 220.546L278.253 219.116C278.253 219.116 270.664 217.575 257.918 207.3C255.458 204.872 253.418 202.964 252.359 202.535C250.052 198.236 244.528 198.647 242.276 201.206C238.374 198.206 231.228 196.843 226.433 201.635C226.33 201.737 226.228 201.841 226.129 201.949C225.93 202.166 225.734 202.392 225.54 202.641C225.43 202.78 225.324 202.923 225.217 203.07C225.146 203.165 225.074 203.262 225.007 203.361C225.007 203.38 224.982 203.396 224.971 203.416C224.885 203.541 224.8 203.666 224.717 203.797C224.544 204.069 224.378 204.353 224.214 204.649C224.214 204.649 224.214 204.649 224.214 204.66C224.2 204.683 224.188 204.707 224.177 204.732C224.177 204.732 224.177 204.732 224.177 204.732C224.142 204.794 224.108 204.856 224.078 204.923C225.778 199.708 223.577 193.195 212.492 190.306L213.346 190.338C215.3 190.424 216.59 190.569 216.59 190.569L220.418 189.819L233.785 187.193C233.785 187.193 228.618 186.824 230.464 184.983C230.711 184.803 230.947 184.621 231.157 184.438L241.136 185.001C241.136 185.001 241.136 185.001 241.136 185.034C241.136 185.066 241.136 185.052 241.136 185.064C241.128 185.089 241.122 185.114 241.118 185.14C241.118 185.167 241.104 185.202 241.094 185.241C241.085 185.28 241.081 185.308 241.069 185.345C241.058 185.382 241.034 185.483 241.014 185.576C241.014 185.597 241.014 185.617 240.995 185.64C240.972 185.726 240.947 185.816 240.917 185.915C240.866 186.086 240.806 186.277 240.732 186.485C240.684 186.623 240.628 186.771 240.573 186.923C240.566 186.943 240.559 186.962 240.55 186.981C240.527 187.041 240.504 187.101 240.478 187.161C240.67 187.158 240.86 187.13 241.044 187.076L241.247 187.009C241.271 187.001 241.295 186.992 241.318 186.981L241.399 186.944L241.535 186.879L241.669 186.803C241.704 186.785 241.736 186.762 241.771 186.741C241.786 186.733 241.8 186.723 241.814 186.713L241.932 186.628L241.962 186.605C242.066 186.525 242.165 186.437 242.257 186.344C242.297 186.3 242.336 186.261 242.375 186.215C242.425 186.165 242.472 186.113 242.516 186.058V186.058L243.916 187.149L246.138 186.457C246.157 188.511 244.985 192.02 244.985 192.02C244.985 192.02 248.79 187.786 257.855 189.383C258.437 189.614 264.369 192.318 264.369 192.318C268.984 193.702 272.814 197.692 272.814 197.692C272.872 197.844 272.929 197.999 272.994 198.153C273.068 198.345 273.149 198.539 273.225 198.732C273.28 198.862 273.336 198.989 273.398 199.12C273.46 199.252 273.552 199.452 273.629 199.623C273.675 199.722 273.723 199.822 273.774 199.923C273.852 200.094 273.938 200.265 274.03 200.438C274.216 200.807 274.413 201.183 274.621 201.566C274.72 201.751 274.821 201.935 274.93 202.122C275.038 202.309 275.142 202.5 275.253 202.692C275.364 202.883 275.484 203.077 275.59 203.269C275.696 203.46 275.821 203.659 275.938 203.855C276.056 204.051 276.169 204.247 276.296 204.446C276.497 204.775 276.702 205.103 276.912 205.435C277.228 205.934 277.551 206.43 277.879 206.933L278.543 207.932L278.88 208.43C279.111 208.763 279.342 209.095 279.572 209.425C279.741 209.672 279.916 209.921 280.085 210.166C280.253 210.41 280.433 210.655 280.601 210.895L281.294 211.859C281.317 211.887 281.338 211.917 281.361 211.947L281.732 212.464L282.147 213.034C282.258 213.181 282.364 213.329 282.473 213.477C282.84 213.977 283.2 214.462 283.553 214.935C283.636 215.041 283.714 215.147 283.783 215.253C283.836 215.323 283.887 215.394 283.94 215.466C283.993 215.537 284.046 215.604 284.097 215.673C284.206 215.812 284.307 215.948 284.411 216.082C284.614 216.352 284.817 216.615 285.013 216.871C285.059 216.933 285.108 217 285.156 217.062C285.255 217.187 285.35 217.311 285.445 217.434L285.585 217.616C285.726 217.796 285.862 217.971 285.994 218.144L286.257 218.479C286.342 218.587 286.428 218.694 286.508 218.8C286.589 218.906 286.67 219.007 286.739 219.107L286.854 219.254L287.191 219.677C287.404 219.947 287.602 220.193 287.777 220.415C287.837 220.489 287.895 220.56 287.948 220.63L288.142 220.86L288.23 220.971C288.4 221.181 288.539 221.349 288.633 221.469C288.65 221.488 288.663 221.509 288.68 221.525L288.696 221.546C288.73 221.582 288.753 221.615 288.772 221.636L288.848 221.682Z" fill="#5869F9"/>
<path d="M242.515 186.058C241.608 187.198 240.486 187.147 240.486 187.147C240.775 186.454 240.998 185.734 241.153 184.999L242.515 186.058Z" fill="white"/>
<path d="M244.465 183.813C244.452 183.857 244.442 183.903 244.428 183.949C244.201 185 244.031 186.063 243.919 187.133L242.516 186.058L241.154 184.999L244.465 183.813Z" fill="#A9B5FF"/>
<path d="M143.969 201.518C143.84 201.262 140.81 195.375 127.125 189.651C127.785 188.477 128.739 187.496 129.894 186.803C140.014 190.864 143.851 201.192 143.969 201.518Z" fill="white"/>
<path d="M176.471 190.673C174.332 192.429 173.13 195.712 172.991 196.097C173.111 195.684 174.122 192.002 172.629 189.03C175.042 189.98 176.471 190.673 176.471 190.673Z" fill="white"/>
<path d="M224.174 204.729L224.214 204.658C218.586 222.164 200.113 223.883 200.113 223.883C200.129 223.214 200.113 222.526 200.076 221.827C200.076 221.735 200.076 221.645 200.058 221.555C200.039 221.465 200.044 221.354 200.035 221.255C200.025 221.156 200.021 221.059 200.009 220.959C200.009 220.946 200.009 220.934 200.009 220.92C200.009 220.833 199.993 220.743 199.984 220.657C199.968 220.473 199.947 220.29 199.924 220.106C199.901 219.921 199.887 219.787 199.864 219.628V219.554C199.829 219.294 199.79 219.028 199.746 218.765C199.747 218.757 199.747 218.75 199.746 218.742C199.702 218.472 199.658 218.2 199.608 217.928C199.566 217.697 199.525 217.466 199.476 217.235C199.476 217.185 199.455 217.134 199.444 217.078C199.388 216.797 199.328 216.515 199.264 216.236C199.199 215.957 199.135 215.673 199.063 215.394C199.063 215.364 199.049 215.332 199.042 215.304C198.996 215.119 198.95 214.937 198.902 214.755V214.725C198.853 214.536 198.8 214.347 198.747 214.162C198.708 214.014 198.669 213.869 198.625 213.724C198.558 213.493 198.486 213.248 198.415 213.008C198.401 212.972 198.39 212.935 198.38 212.897L198.279 212.577C198.244 212.468 198.209 212.364 198.177 212.258C198.126 212.097 198.071 211.938 198.02 211.778C197.946 211.548 197.875 211.345 197.789 211.128C197.704 210.911 197.626 210.666 197.54 210.436C197.494 210.309 197.446 210.186 197.399 210.066C197.353 209.946 197.31 209.836 197.263 209.706C197.126 209.356 196.981 209.01 196.827 208.67C196.751 208.486 196.675 208.297 196.597 208.117C196.543 207.985 196.486 207.854 196.43 207.727L196.361 207.574C196.297 207.427 196.232 207.279 196.163 207.134C196.094 206.988 196.01 206.801 195.932 206.635C195.854 206.469 195.805 206.365 195.74 206.234C195.676 206.102 195.625 206.003 195.57 205.885C195.514 205.768 195.422 205.595 195.339 205.452C195.288 205.352 195.24 205.255 195.184 205.159C195.129 205.062 195.083 204.962 195.032 204.87C194.981 204.778 194.933 204.679 194.878 204.589L194.725 204.312C194.624 204.132 194.52 203.954 194.416 203.781L194.261 203.525C194.16 203.359 194.058 203.193 193.952 203.036C193.8 202.805 193.645 202.574 193.491 202.344C193.412 202.235 193.339 202.131 193.26 202.032C193.182 201.933 193.11 201.829 193.029 201.732C195.798 210.932 196.938 219.363 196.292 226.285C195.505 234.765 192.046 240.988 185.634 243.604C178.959 246.329 171.841 243.505 168.97 238.786L168.866 238.616C163.954 263.743 154.33 281.96 127.103 283.323C127.103 283.323 116.754 273.125 112.735 250.667C111.493 243.729 110.854 235.621 111.313 226.285C111.373 225.076 111.45 223.846 111.544 222.593C111.627 221.474 111.72 220.392 111.743 219.347C111.743 219.132 111.743 218.917 111.743 218.705C111.768 215.88 111.482 213.06 110.889 210.297C110.817 209.96 110.743 209.63 110.658 209.31C110.621 209.153 110.584 209.003 110.54 208.848C110.517 208.77 110.494 208.689 110.474 208.617C110.437 208.497 110.4 208.387 110.358 208.264C110.251 207.945 110.127 207.632 109.984 207.327C109.964 207.279 109.941 207.233 109.92 207.189C109.899 207.145 109.897 207.138 109.883 207.113L109.804 206.958C109.74 206.834 109.675 206.714 109.613 206.603C109.551 206.492 109.491 206.395 109.431 206.303L109.292 206.093L109.225 205.998C109.098 205.81 108.956 205.632 108.801 205.465V205.465C110.167 199.395 104.982 194.821 104.982 194.821L100.889 195.163C101.196 191.787 104.737 191.771 104.737 191.771C114.322 183.654 127.087 189.637 127.087 189.637C140.76 195.361 143.79 201.248 143.931 201.504C143.813 201.183 139.976 190.855 129.856 186.789C133.294 184.775 137.322 186.36 137.322 186.36C149.994 181.476 165.507 186.266 172.579 189.018C172.618 189.095 172.655 189.173 172.69 189.249C172.724 189.325 172.754 189.394 172.784 189.48C172.923 189.814 173.036 190.159 173.121 190.511C173.135 190.569 173.154 190.634 173.163 190.691C173.172 190.749 173.197 190.844 173.211 190.922C173.213 190.934 173.213 190.947 173.211 190.959C173.227 191.033 173.239 191.107 173.25 191.176C173.262 191.245 173.276 191.34 173.287 191.418C173.299 191.497 173.308 191.557 173.315 191.628C173.322 191.7 173.336 191.836 173.345 191.937C173.361 192.131 173.37 192.318 173.375 192.503C173.38 192.687 173.375 192.881 173.375 193.066V193.296C173.375 193.386 173.375 193.474 173.361 193.566C173.364 193.582 173.364 193.597 173.361 193.612C173.361 193.732 173.345 193.843 173.334 193.956C173.31 194.187 173.287 194.381 173.26 194.57C173.26 194.637 173.244 194.699 173.232 194.759C173.22 194.819 173.207 194.914 173.195 194.99C173.184 195.066 173.181 195.068 173.172 195.105L173.156 195.2C173.135 195.311 173.112 195.412 173.091 195.507C173.091 195.555 173.073 195.597 173.061 195.641C173.062 195.647 173.062 195.654 173.061 195.661C173.061 195.687 173.05 195.707 173.043 195.731C173.036 195.754 173.024 195.809 173.015 195.841C173.006 195.874 173.015 195.841 173.015 195.853L172.99 195.95C172.99 195.998 172.967 196.037 172.957 196.067C172.963 196.051 172.97 196.035 172.978 196.019C172.985 195.996 172.992 195.974 173.001 195.952C173.034 195.862 173.082 195.735 173.144 195.581L173.197 195.461C173.214 195.419 173.23 195.375 173.25 195.331L173.315 195.179L173.387 195.018C173.41 194.965 173.435 194.907 173.463 194.851C173.49 194.796 173.539 194.685 173.583 194.598C173.627 194.51 173.64 194.478 173.67 194.415C173.733 194.291 173.797 194.162 173.867 194.03C173.936 193.898 174.01 193.765 174.097 193.629C174.136 193.562 174.176 193.49 174.217 193.423C174.259 193.356 174.296 193.282 174.337 193.216C174.379 193.149 174.423 193.075 174.469 193.006C174.515 192.936 174.556 192.865 174.603 192.796C174.716 192.618 174.833 192.445 174.963 192.272C175.025 192.186 175.092 192.101 175.156 192.016C175.221 191.93 175.29 191.845 175.357 191.764C175.424 191.683 175.466 191.63 175.523 191.568C175.581 191.506 175.682 191.39 175.754 191.307C175.767 191.29 175.781 191.275 175.798 191.261C175.879 191.176 175.962 191.093 176.045 191.014L176.158 190.908L176.282 190.795L176.432 190.668C182.983 185.13 192.194 190.668 192.194 190.668C199.347 182.071 212.254 190.257 212.254 190.257L212.446 190.306C223.521 193.195 225.732 199.708 224.031 204.923C224.061 204.856 224.096 204.794 224.131 204.732C224.172 204.732 224.174 204.732 224.174 204.729Z" fill="#3C53DD"/>
<path d="M262.907 185.553C262.907 185.553 258.811 185.195 256.236 182.687C256.236 182.687 255.431 184.323 255.477 185.947C250.608 183.751 245.121 186.049 244.471 183.827C245.954 182.922 248.677 180.913 248.677 180.913L246.9 177.982C246.16 176.953 246.591 176.164 247.48 175.737C248.749 175.13 248.864 174.584 248.864 174.584C248.975 174.055 249.132 174.03 249.342 173.995C249.595 173.949 250.177 173.931 250.177 173.931C249.979 173.535 249.94 173.079 250.066 172.655C250.689 172.624 251.291 172.413 251.797 172.048C251.663 171.752 251.601 171.356 251.81 170.705C252.113 169.75 253.656 171.335 256.425 170.859L257.376 169.512C259.16 169.473 260.507 169.076 262.355 168.658C264.746 169.463 266.52 172.668 264.676 175.74C264.676 175.74 266.042 179.833 263.721 182.016L264.543 182.629C264.543 182.629 267.542 181.522 268.054 182.8C268.359 183.52 264.679 185.91 262.907 185.553Z" fill="#E0AC89"/>
<path d="M271.424 274.521C271.424 274.521 271.818 276.828 270.552 276.581C270.552 278.644 269.926 280.208 269.398 280.635C268.793 280.866 267.005 279.895 266.186 278.559C267.877 282.1 267.03 283.028 266.237 283.326C266.237 283.326 262.023 277.61 261.592 272.682C261.508 271.589 261.758 270.496 262.31 269.548L262.42 269.354C263.546 267.354 265.593 263.397 266.191 260.141C269.596 262.232 270.547 264.371 270.942 267.7L269.912 271.505C270.475 272.479 270.98 273.486 271.424 274.521V274.521Z" fill="#E0AC89"/>
<path d="M266.198 260.146C265.591 263.402 263.554 267.359 262.428 269.355C261.385 269.8 260.67 269.537 260.217 269.17C260.12 269.088 260.041 268.987 259.984 268.873C259.927 268.759 259.894 268.635 259.886 268.508C259.879 268.381 259.897 268.254 259.94 268.134C259.983 268.014 260.05 267.904 260.137 267.811C261.079 266.755 261.913 265.607 262.626 264.385C263.059 263.597 263.621 262.887 264.288 262.285C265.005 261.648 265.646 260.93 266.198 260.146V260.146Z" fill="#E0AC89"/>
<path d="M272.064 225.161C271.845 225.511 271.677 225.891 271.566 226.289H254.18C256.988 220.207 257.05 210.747 252.361 202.542C253.42 202.971 255.46 204.879 257.92 207.306C263.425 212.74 271.047 220.768 274.517 220.553L271.141 222.244C270.46 223.758 270.987 224.61 272.064 225.161Z" fill="white"/>
<path d="M260.092 222.432H210.17C220.052 216.82 224.626 209.741 226.091 203.802C226.275 203.543 226.467 203.296 226.665 203.059C226.758 202.946 226.855 202.84 226.951 202.731C226.964 202.715 226.978 202.699 226.993 202.685C227.069 202.6 227.148 202.517 227.224 202.433C227.344 202.307 227.466 202.184 227.591 202.064C227.821 201.859 228.034 201.663 228.257 201.476C228.371 201.384 228.488 201.294 228.604 201.206C234.042 197.078 242.148 198.259 246.573 200.834C249.13 198.631 255.399 198.28 258.011 201.988C263.346 209.044 263.281 217.189 260.092 222.432Z" fill="#A9B5FF"/>
<path d="M257.87 189.373C251.591 186.835 246.836 189.8 246.836 189.8C246.991 188.723 248.37 185.758 248.37 185.758C249.801 185.802 253.064 185.67 255.579 186.75C256.175 186.997 256.729 187.335 257.221 187.751C257.247 187.81 257.275 187.867 257.307 187.922C257.323 187.952 257.341 187.982 257.358 188.014C257.374 188.047 257.422 188.132 257.459 188.192C257.496 188.252 257.496 188.252 257.515 188.284C257.549 188.344 257.581 188.407 257.616 188.469L257.667 188.571C257.685 188.605 257.699 188.64 257.713 188.672C257.731 188.705 257.744 188.74 257.754 188.776C257.784 188.844 257.807 188.915 257.824 188.988C257.858 189.114 257.874 189.243 257.87 189.373V189.373Z" fill="#A9B5FF"/>
<path d="M313.208 210.731C313.097 210.8 312.977 210.874 312.884 210.948C311.087 212.233 309.747 214.059 309.061 216.16C309.984 212.888 309.357 205.664 301.966 198.986C300.557 197.712 298.954 196.67 297.217 195.901H297.192C294.149 194.556 290.981 194.148 288.129 194.189C286.239 194.224 284.357 194.438 282.508 194.831H282.494C281.371 195.059 280.263 195.359 279.178 195.728L278.906 195.823L278.675 195.908C282.058 194.24 288.922 190.017 287.57 183.764C284.746 176.861 277.263 173.123 271.746 173.803C273.038 177.121 274.395 181.39 274.395 181.39C267.761 183.268 265.768 188.921 265.768 188.921C263.014 188.027 260.123 187.632 257.23 187.754C257.256 187.811 257.284 187.865 257.314 187.925C257.344 187.985 257.348 187.985 257.364 188.017C257.401 188.074 257.435 188.133 257.466 188.194C257.487 188.227 257.503 188.254 257.521 188.287C257.556 188.347 257.588 188.409 257.623 188.471L257.673 188.573C257.692 188.608 257.706 188.642 257.72 188.674C257.737 188.707 257.751 188.742 257.761 188.778C257.791 188.846 257.815 188.918 257.83 188.991C257.864 189.115 257.879 189.244 257.877 189.374C258.458 189.604 264.39 192.309 264.39 192.309C269.005 193.693 272.835 197.682 272.835 197.682C272.893 197.835 272.951 197.989 273.015 198.144C273.089 198.335 273.17 198.529 273.246 198.723C273.301 198.852 273.359 198.979 273.419 199.111C273.479 199.242 273.574 199.443 273.65 199.614C273.696 199.713 273.744 199.812 273.795 199.914C273.878 200.084 273.964 200.255 274.051 200.428C274.237 200.797 274.434 201.173 274.642 201.557C274.743 201.741 274.845 201.926 274.951 202.113C275.057 202.3 275.163 202.491 275.274 202.683C275.385 202.874 275.505 203.068 275.611 203.259C275.717 203.451 275.842 203.649 275.959 203.845C276.077 204.042 276.19 204.238 276.317 204.436C276.518 204.766 276.726 205.094 276.933 205.426C277.249 205.924 277.572 206.42 277.9 206.923L278.565 207.923L278.901 208.421C279.132 208.753 279.363 209.086 279.594 209.415C279.762 209.662 279.937 209.912 280.106 210.156C280.274 210.401 280.454 210.645 280.623 210.885L281.315 211.85C281.338 211.877 281.359 211.907 281.382 211.937L281.753 212.454L282.169 213.024C282.279 213.172 282.386 213.32 282.494 213.467C282.861 213.968 283.221 214.452 283.574 214.925C283.657 215.032 283.735 215.138 283.805 215.244C283.858 215.313 283.908 215.385 283.961 215.456C284.015 215.528 284.068 215.595 284.118 215.664C284.227 215.802 284.328 215.938 284.432 216.072C284.635 216.342 284.838 216.605 285.034 216.861C285.081 216.924 285.129 216.991 285.177 217.053C285.277 217.178 285.371 217.302 285.466 217.424L285.607 217.607C285.747 217.787 285.884 217.962 286.015 218.135C286.107 218.248 286.193 218.366 286.278 218.47C286.363 218.573 286.449 218.684 286.53 218.79C286.61 218.896 286.691 218.998 286.76 219.097L286.876 219.245L287.213 219.667C287.425 219.937 287.623 220.184 287.799 220.406C287.859 220.479 287.916 220.551 287.969 220.62L288.163 220.851L288.251 220.962C288.422 221.172 288.56 221.34 288.655 221.46C288.672 221.477 288.688 221.495 288.701 221.515L288.717 221.536C288.752 221.573 288.775 221.605 288.793 221.626L288.83 221.672C288.786 221.709 288.74 221.748 288.694 221.795C288.648 221.841 288.629 221.866 288.595 221.903C288.56 221.94 288.53 221.984 288.495 222.028L288.431 222.115C288.387 222.178 288.345 222.242 288.302 222.311C288.258 222.381 288.216 222.457 288.175 222.542C288.154 222.579 288.136 222.618 288.112 222.662C288.073 222.741 288.029 222.826 287.99 222.914C287.951 223.001 287.909 223.094 287.868 223.191C287.826 223.287 287.759 223.456 287.706 223.601C287.681 223.664 287.658 223.726 287.635 223.793L287.566 223.989C287.529 224.093 287.496 224.201 287.459 224.312C287.393 224.517 287.328 224.73 287.266 224.951C287.231 225.064 287.201 225.182 287.166 225.299C287.143 225.38 287.12 225.459 287.102 225.53C287.083 225.602 287.044 225.742 287.016 225.853C286.989 225.964 286.945 226.135 286.908 226.28H327.112C339.816 216.054 326.002 203.416 313.208 210.731ZM276.894 196.704C277.468 196.402 278.06 196.138 278.668 195.913C277.667 196.402 276.977 196.672 276.894 196.704ZM308.967 216.49C308.992 216.385 309.023 216.281 309.059 216.178C309.027 216.285 308.999 216.391 308.967 216.49Z" fill="#A9B5FF"/>
<path d="M312.892 210.948C311.094 212.233 309.754 214.059 309.068 216.16C309.991 212.888 309.364 205.664 301.973 198.986C300.564 197.712 298.961 196.67 297.225 195.901C306.816 199.526 311.786 206.494 312.892 210.948Z" fill="white"/>
<path d="M288.129 194.18C286.239 194.215 284.357 194.43 282.508 194.822H282.495C281.367 195.03 280.258 195.33 279.179 195.719L278.907 195.814L278.676 195.899C282.058 194.231 288.923 190.008 287.571 183.755C288.766 186.695 289.124 190.198 288.129 194.18Z" fill="white"/>
<path d="M276.895 196.704C277.468 196.402 278.061 196.138 278.669 195.913C277.667 196.402 276.978 196.672 276.895 196.704Z" fill="white"/>
<path d="M288.732 221.545C288.767 221.583 288.79 221.615 288.809 221.636L288.732 221.545Z" fill="white"/>
<path d="M309.063 216.179C309.031 216.285 309.003 216.391 308.971 216.49C308.996 216.385 309.027 216.281 309.063 216.179V216.179Z" fill="white"/>
<path d="M81.1113 211.524C81.1529 211.601 81.199 211.681 81.2452 211.755C81.199 211.681 81.1529 211.601 81.1113 211.524ZM82.295 213.301L82.3642 213.391L82.295 213.301ZM82.4819 213.532L82.5396 213.606L82.4819 213.532Z" fill="#E0AC89"/>
<path d="M81.259 211.781L81.2452 211.758C81.199 211.682 81.1529 211.601 81.1113 211.527C81.1529 211.603 81.199 211.684 81.2475 211.758C81.2522 211.765 81.2561 211.773 81.259 211.781V211.781Z" fill="white"/>
<path d="M82.4838 213.541L82.3661 213.391L82.2969 213.301L82.3684 213.391C82.4053 213.442 82.4445 213.493 82.4838 213.541Z" fill="white"/>
<path d="M82.6281 213.726C82.5981 213.689 82.5658 213.652 82.5382 213.615L82.4805 213.541L82.5405 213.615L82.6281 213.726Z" fill="white"/>
<path d="M80.3639 206.651L80.3477 206.686C80.3361 206.714 80.3222 206.742 80.3105 206.774C80.3185 206.745 80.3286 206.716 80.3407 206.688C80.3474 206.675 80.3551 206.663 80.3639 206.651V206.651Z" fill="white"/>
<path d="M86.4593 217.635C86.4507 217.627 86.4414 217.62 86.4316 217.614L86.3809 217.566L86.4593 217.635Z" fill="white"/>
<path d="M86.9622 218.055C86.8791 217.988 86.7061 217.847 86.4707 217.646C86.7199 217.842 86.8837 217.981 86.9622 218.055Z" fill="white"/>
<path d="M108.857 205.479C102.747 196.757 93.5683 197.567 90.2872 202.269C90.2872 202.382 90.2872 202.5 90.2872 202.604C90.2872 202.493 90.2872 202.385 90.2872 202.272C88.7112 201.058 85.6724 201.162 83.3143 202.431C83.2427 202.47 83.1735 202.507 83.102 202.551C80.843 203.848 79.2648 206.243 80.2777 209.591L80.2916 209.641C80.3123 209.704 80.3285 209.771 80.3516 209.833L80.3746 209.895C80.3746 209.921 80.3885 209.944 80.3977 209.969C80.407 209.995 80.3977 209.969 80.3977 209.985C80.4139 210.031 80.43 210.078 80.4485 210.124C80.4669 210.17 80.4969 210.253 80.5223 210.318C80.5477 210.382 80.5708 210.435 80.5962 210.493C80.7492 210.85 80.9225 211.198 81.1153 211.536C81.1569 211.612 81.203 211.693 81.2515 211.767C81.2523 211.774 81.2523 211.782 81.2515 211.79L81.3091 211.88C81.3345 211.926 81.3622 211.972 81.3922 212.02C81.3922 212.02 81.3922 212.039 81.413 212.05L81.533 212.242L81.5745 212.304C81.6114 212.362 81.6483 212.422 81.6899 212.477C81.8491 212.708 82.0129 212.939 82.1836 213.169C82.2067 213.204 82.2321 213.236 82.2575 213.271L82.2852 213.308L82.3567 213.398C82.3936 213.449 82.4328 213.499 82.4721 213.548L82.532 213.622L82.6197 213.732C82.6982 213.832 82.7766 213.929 82.8505 214.026L83.0466 214.256C83.1089 214.332 83.1735 214.406 83.2427 214.487C83.545 214.838 83.8565 215.179 84.1657 215.488L84.1911 215.514L84.2741 215.599L84.6202 215.95L84.7471 216.077L84.874 216.201C85.4601 216.771 85.9862 217.242 86.3692 217.574L86.4477 217.643C86.439 217.636 86.4298 217.629 86.42 217.623C85.1648 216.64 81.8168 214.325 75.7507 212.071C75.7507 212.071 61.2142 205.825 52.2154 210.917C43.2166 216.01 48.5236 226.298 52.2154 226.298H107.152C107.184 226.243 107.214 226.188 107.249 226.13C107.283 226.072 107.297 226.042 107.32 225.996C107.369 225.906 107.417 225.809 107.463 225.71C107.491 225.662 107.512 225.611 107.537 225.56C107.563 225.509 107.604 225.419 107.634 225.348C107.731 225.136 107.83 224.905 107.927 224.656C107.973 224.547 108.015 224.436 108.059 224.323C108.188 223.984 108.317 223.631 108.442 223.243C108.483 223.117 108.527 222.987 108.566 222.858C108.649 222.593 108.73 222.323 108.811 222.046C108.85 221.905 108.889 221.764 108.926 221.621C109.045 221.192 109.155 220.749 109.258 220.292C110.304 215.717 110.71 209.824 108.857 205.479ZM80.3493 206.686C80.3377 206.713 80.3239 206.741 80.3124 206.773C80.3203 206.744 80.3303 206.716 80.3423 206.688C80.3476 206.676 80.3538 206.664 80.3608 206.653L80.3493 206.686ZM86.4731 217.646C86.7223 217.842 86.8861 217.98 86.9645 218.054C86.8815 217.987 86.7084 217.847 86.4731 217.646Z" fill="#A9B5FF"/>
<path d="M112.77 250.665C112.541 251.729 112.257 252.781 111.918 253.816C107.698 246.031 107.996 237.545 107.996 237.545C106.045 236.091 104.51 234.15 103.545 231.917L107.149 226.287H111.344C110.892 235.625 111.528 243.742 112.77 250.665Z" fill="white"/>
<path d="M111.917 253.821C111.855 253.897 109.693 256.394 99.9646 256.394C99.145 255.375 98.3817 254.312 97.678 253.21C95.9586 250.561 94.5817 247.704 93.5801 244.709L100.733 236.317L103.55 231.917C104.515 234.149 106.047 236.089 107.994 237.545C107.994 237.545 107.694 246.031 111.917 253.821Z" fill="#A9B5FF"/>
<path d="M279.598 222.614C279.081 222.748 273.527 224.185 272.062 225.152C270.987 224.601 270.461 223.747 271.139 222.236C271.136 222.415 271.191 222.591 271.296 222.736V222.736C272.42 224.264 279.033 222.746 279.598 222.614Z" fill="#5869F9"/>
<path d="M108.849 205.475C108.789 205.2 106.773 196.386 100.939 195.177L105.03 194.826C105.03 194.826 110.215 199.404 108.849 205.475Z" fill="white"/>
<path d="M111.792 218.717C111.792 218.929 111.792 219.143 111.792 219.358C111.769 220.403 111.677 221.485 111.594 222.605C111.492 223.85 111.416 225.08 111.363 226.296H107.154L107.249 226.128C107.274 226.086 107.297 226.04 107.32 225.994C107.369 225.904 107.417 225.807 107.463 225.708C107.491 225.659 107.512 225.609 107.537 225.558C107.563 225.507 107.604 225.417 107.634 225.346C107.731 225.133 107.83 224.903 107.927 224.653C107.973 224.545 108.015 224.434 108.059 224.321C108.188 223.982 108.317 223.629 108.442 223.241C108.483 223.114 108.527 222.985 108.566 222.856C108.649 222.591 108.73 222.321 108.811 222.044C108.85 221.903 108.889 221.762 108.926 221.619C109.045 221.19 109.156 220.747 109.259 220.29C110.308 215.715 110.71 209.831 108.857 205.477C109.012 205.643 109.154 205.821 109.282 206.01L109.349 206.104L109.487 206.314C109.547 206.407 109.607 206.506 109.669 206.614C109.732 206.723 109.796 206.845 109.861 206.97L109.939 207.124C109.953 207.15 109.965 207.175 109.976 207.2C109.988 207.226 110.02 207.29 110.041 207.339C110.183 207.644 110.308 207.957 110.415 208.276C110.456 208.391 110.493 208.506 110.53 208.629C110.551 208.705 110.574 208.786 110.597 208.859C110.641 209.007 110.678 209.157 110.715 209.321C110.793 209.642 110.867 209.972 110.945 210.308C111.536 213.072 111.82 215.891 111.792 218.717Z" fill="white"/>
<path d="M255.577 186.75C253.062 185.671 249.808 185.802 248.369 185.758L246.14 186.45L243.92 187.143C244.03 186.073 244.199 185.01 244.428 183.958C244.441 183.919 244.453 183.875 244.469 183.836C245.12 186.058 250.607 183.76 255.475 185.957C255.483 186.224 255.517 186.49 255.577 186.75V186.75Z" fill="white"/>
<path d="M257.871 189.374C248.805 187.777 244.998 192.011 244.998 192.011C244.998 192.011 246.152 188.502 246.152 186.448L248.381 185.756C248.381 185.756 246.996 188.721 246.849 189.798C246.837 189.801 251.59 186.826 257.871 189.374Z" fill="white"/>
<path d="M52.2209 226.289H43.0375C40.3886 222.415 42.5899 215.548 52.2209 210.908C43.2105 216.001 48.5337 226.289 52.2209 226.289Z" fill="white"/>
<path d="M108.848 205.47C102.739 196.748 93.5598 197.558 90.2787 202.26C90.2579 201.552 90.2141 200.777 90.1425 199.925C89.5749 193.1 87.2768 194.81 86.2546 189.129C85.2324 183.448 88.9842 184.014 88.9842 184.014L89.9072 187.735C91.5477 189.376 96.2779 192.35 97.5492 193.137L100.936 195.172C106.781 196.381 108.788 205.195 108.848 205.47Z" fill="#E0AC89"/>
<path d="M90.2878 202.595C90.2878 202.484 90.2878 202.376 90.2878 202.262C90.2832 202.373 90.2855 202.484 90.2878 202.595Z" fill="white"/>
<path d="M80.3639 206.651L80.3477 206.686C80.3361 206.714 80.3222 206.742 80.3105 206.774C80.3185 206.745 80.3286 206.716 80.3407 206.688C80.3474 206.675 80.3551 206.663 80.3639 206.651V206.651Z" fill="white"/>
<path d="M86.431 217.614C85.1758 216.631 81.8278 214.317 75.7617 212.062C76.3409 208.906 77.8776 205.419 83.0923 202.54C80.8333 203.837 79.2551 206.232 80.268 209.58L80.2819 209.63C80.3026 209.693 80.3188 209.76 80.3419 209.822L80.3649 209.884C80.3649 209.91 80.3788 209.933 80.388 209.958C80.3972 209.983 80.388 209.958 80.388 209.974C80.4042 210.02 80.4203 210.066 80.4388 210.113C80.4572 210.159 80.4872 210.242 80.5126 210.306C80.538 210.371 80.5611 210.424 80.5865 210.482C80.7395 210.839 80.9128 211.187 81.1056 211.525C81.1471 211.601 81.1933 211.682 81.2394 211.755L81.2533 211.779L81.311 211.869C81.3364 211.915 81.364 211.961 81.394 212.009C81.394 212.009 81.394 212.028 81.4148 212.039L81.5348 212.231L81.5763 212.293C81.6132 212.351 81.6502 212.411 81.6917 212.466C81.8509 212.697 82.0147 212.928 82.1855 213.158C82.2085 213.193 82.2339 213.225 82.2593 213.26L82.287 213.297L82.3562 213.387L82.4739 213.537L82.5316 213.611C82.5593 213.648 82.5916 213.684 82.6216 213.721C82.7 213.821 82.7785 213.917 82.8523 214.014L83.0484 214.245C83.1107 214.321 83.1753 214.395 83.2446 214.476C83.5468 214.827 83.8583 215.168 84.1675 215.477L84.1929 215.503L84.276 215.588L84.6221 215.939L84.749 216.066L84.8759 216.19C85.4619 216.76 85.988 217.231 86.3711 217.563L86.431 217.614Z" fill="white"/>
<path d="M203.727 106.539C203.727 106.539 194.752 102.3 199.235 98.7999C203.718 95.2996 213.464 99.7967 213.464 99.7967C213.464 99.7967 215.712 90.3018 225.209 91.3078C234.706 92.3138 235.694 100.537 235.694 100.537C235.694 100.537 243.437 94.4551 254.067 92.7638C269.951 90.2418 274.453 95.9641 275.554 100.787C298.628 94.2613 290.69 106.539 290.69 106.539H203.727Z" fill="#A9B5FF"/>
</svg>
