<svg width="48" height="48" viewBox="0 0 48 48" fill="none" xmlns="http://www.w3.org/2000/svg">
<rect width="48" height="48" rx="24" fill="#F5F8FF"/>
<path d="M22.8889 18.2222C22.8889 18.8368 23.3854 19.3333 24 19.3333C24.6146 19.3333 25.1111 18.8368 25.1111 18.2222V16H27.7083C28.6493 16 29.4861 16.5931 29.8021 17.4802L33.8924 29.0278C33.9618 29.2292 34 29.4444 34 29.6597C34 30.7049 33.1493 31.5556 32.1042 31.5556H25.1111V29.3333C25.1111 28.7187 24.6146 28.2222 24 28.2222C23.3854 28.2222 22.8889 28.7187 22.8889 29.3333V31.5556H15.8962C14.849 31.5556 14 30.7049 14 29.6597C14 29.4444 14.0368 29.2292 14.1088 29.0278L18.1979 17.4802C18.4826 16.5931 19.3507 16 20.2917 16H22.8576L22.8889 18.2222ZM25.1111 22.6667C25.1111 22.0521 24.6146 21.5556 24 21.5556C23.3854 21.5556 22.8889 22.0521 22.8889 22.6667V24.8889C22.8889 25.5035 23.3854 26 24 26C24.6146 26 25.1111 25.5035 25.1111 24.8889V22.6667Z" fill="#5868FA"/>
</svg>
