<svg width="624" height="493" viewBox="0 0 624 493" fill="none" xmlns="http://www.w3.org/2000/svg">
<path d="M317.193 272.556C223.035 272.556 191.046 408.535 186.016 483.886C185.717 488.366 189.309 492.085 193.799 492.085H242.82C247.268 492.085 250.83 488.445 250.794 483.998C250.305 423.66 263.083 317.154 319.358 317.154C375.652 317.154 389.211 423.729 389.161 484.057C389.158 488.481 392.711 492.085 397.135 492.085H445.587C450.15 492.085 453.77 488.251 453.356 483.706C446.503 408.319 411.277 272.556 317.193 272.556Z" fill="#DEE5F6" stroke="#F5F8FF" stroke-width="0.788671"/>
<path d="M317.192 284.262C414.92 284.262 436.184 409.37 434.792 476.381C434.705 480.585 431.23 483.858 427.025 483.858H409.003C404.678 483.858 401.167 480.41 401.029 476.086C399.057 414.456 380.252 301.567 317.192 301.567C254.231 301.567 239.348 414.103 239.566 475.797C239.581 480.235 236.023 483.858 231.585 483.858H211.94C207.809 483.858 204.369 480.694 204.179 476.567C201.11 409.602 219.373 284.262 317.192 284.262Z" fill="#B2BDF7" stroke="#ECF2FF"/>
<path d="M558.14 74.0142C562.245 79.8172 564.298 92.9282 564.298 112.813C564.298 141.478 560.203 149.668 560.203 166.048V216.843C560.203 218.585 558.791 220 557.048 220H439.551C437.809 220 436.397 218.588 436.397 216.845V163.794C436.397 163.634 436.385 163.48 436.361 163.321C434.413 150.624 430.587 122.733 430.587 110.855C430.587 98.0812 431.604 90.5705 433.029 85.6439C425.346 101.219 415.352 130.827 420.363 198.681C420.498 200.518 419.054 202.143 417.212 202.143H397.476C395.8 202.143 394.419 200.852 394.315 199.18C391.86 159.863 381.561 81.0418 404.861 57.7423C413.029 49.7097 434.143 33.7707 454.115 33.2725C454.737 33.257 455.344 33.0828 455.849 32.7185C460.504 29.3626 468.259 21.6666 469.753 12.3354C470.029 10.6151 471.419 9.19385 473.161 9.19385H526.454C527.706 9.19385 528.833 9.93087 529.364 11.0638C533.305 19.4667 541.291 33.2606 547.601 33.2606C556.108 33.2606 582.041 45.294 594.49 57.7423C606.83 70.0826 608.161 77.1219 608.183 198.92C608.184 200.662 606.771 202.143 605.029 202.143H579.145C577.337 202.143 575.9 200.629 575.96 198.822C577.114 164.023 569.822 90.036 558.14 74.0142Z" fill="#B2BDF7"/>
<path d="M556.108 71.8633C561.568 75.9583 564.298 89.8812 564.298 112.813C564.298 141.478 560.203 149.668 560.203 166.048C560.203 178.516 560.203 196.331 560.203 216.843C560.203 218.585 558.791 220 557.048 220H439.551C437.809 220 436.397 218.588 436.397 216.845V163.794C436.397 163.634 436.385 163.48 436.361 163.321C434.413 150.624 430.587 122.733 430.587 110.855C430.587 78.9044 436.95 79.8813 440.131 71.8633C436.105 83.3319 413.292 102.917 420.363 198.681C420.498 200.518 419.054 202.143 417.212 202.143H397.476C395.8 202.143 394.419 200.852 394.315 199.18C391.86 159.863 381.561 81.0418 404.861 57.7423C413.029 49.7097 434.143 33.7707 454.115 33.2725C454.737 33.257 455.344 33.0828 455.849 32.7185C460.504 29.3626 468.259 21.6666 469.753 12.3354C470.029 10.6151 471.419 9.19385 473.161 9.19385H526.454C527.706 9.19385 528.833 9.93087 529.364 11.0638C533.305 19.4667 541.291 33.2606 547.601 33.2606C556.108 33.2606 582.041 45.294 594.49 57.7423C606.83 70.0826 608.161 77.1219 608.183 198.92C608.184 200.662 606.771 202.143 605.029 202.143H579.145C577.337 202.143 575.9 200.629 575.96 198.822C577.179 162.047 568.966 81.5072 556.108 71.8633Z" stroke="#F5F8FF" stroke-width="0.788671"/>
<line x1="498.996" y1="71.3729" x2="498.996" y2="84.7748" stroke="white" stroke-width="2.36601" stroke-linecap="round"/>
<line x1="498.996" y1="48.1361" x2="498.996" y2="61.538" stroke="white" stroke-width="2.36601" stroke-linecap="round"/>
<line x1="498.996" y1="94.6103" x2="498.996" y2="108.012" stroke="white" stroke-width="2.36601" stroke-linecap="round"/>
<path d="M500.141 110.073C519.565 109.421 542.708 91.7146 553.748 81.0896C554.576 80.2937 554.579 78.9885 553.783 78.1607L546.702 70.7885C545.943 69.9985 544.706 69.9201 543.854 70.608L499.062 106.755C497.617 107.921 498.286 110.135 500.141 110.073Z" fill="#E6EAF2" stroke="#ECF2FF" stroke-width="0.788671"/>
<path d="M548.75 60.8755C544.763 63.9358 545.041 66.3623 545.678 67.1931L555.236 79.6536C566.241 81.1014 633.245 31.6614 621.769 16.708C610.293 1.75389 553.734 57.0501 548.75 60.8755Z" fill="#262548" stroke="#ECF2FF" stroke-width="0.788671"/>
<rect x="557.13" y="64.1076" width="4.66344" height="4.66344" rx="2.11107" transform="rotate(7.49388 557.13 64.1076)" fill="#C4C4C4" stroke="#667085" stroke-width="4.22213"/>
<path fill-rule="evenodd" clip-rule="evenodd" d="M0.289062 25.0679C0.6807 55.2129 4.02807 87.6694 14.5574 98.1987C25.9255 109.567 48.9492 116.564 63.1015 120.285C69.7418 122.031 77.124 118.75 80.3135 112.67C84.6234 104.454 79.566 94.7216 70.3862 93.3781C53.8039 90.9511 32.1056 87.0332 26.671 81.5985C20.9228 75.8504 16.5814 53.2369 13.9192 33.115C13.5668 30.4517 13.2887 27.7613 13.1168 25.0679H0.289062ZM243.251 25.0679C243.1 28.8682 242.714 32.6766 242.156 36.4322C239.374 55.181 234.877 75.2864 228.564 81.5985C222.475 87.6882 203.212 90.4355 188.029 91.4878C179.06 92.1095 172.223 101.486 175.139 109.99C177.565 117.068 185.906 121.036 193.05 118.812C209.548 113.677 235.579 105.541 245.165 95.9554C254.76 86.3595 256.111 53.2264 255.542 25.0679H243.251Z" fill="#262548"/>
<path d="M219.805 156.075H210.196C208.859 156.075 207.668 156.917 207.222 158.177L202.141 172.522C201.336 174.797 203.269 177.069 205.614 176.497C220.064 172.974 243.81 163.592 243.81 146.205C243.81 128.574 219.713 116.311 203.801 111.015C201.479 110.242 199.341 112.401 200.008 114.756L205.012 132.436C205.153 132.934 205.414 133.389 205.772 133.762L222.079 150.735C224.006 152.74 222.585 156.075 219.805 156.075Z" fill="#262548"/>
<path d="M14.5492 156.075C28.6681 170.194 45.3246 175.612 51.5868 177.145C53.0862 177.513 54.2567 176.492 54.4995 174.968L56.2994 163.667C56.5431 162.137 55.6389 160.656 54.166 160.173L36.8701 154.507C34.3681 153.688 33.9116 150.345 36.1023 148.885L49.7982 139.754C50.497 139.289 50.9813 138.563 51.1436 137.739L55.64 114.911C56.1151 112.499 53.7858 110.505 51.5098 111.435C29.4663 120.437 -2.36347 139.163 14.5492 156.075Z" fill="#262548"/>
<path d="M212.412 148.897C212.412 199.864 155.284 211.11 126.719 210.362C99.0525 210.362 43.7188 198.069 43.7188 148.897C43.7188 110.735 77.047 69.7444 104.905 43.5841C117.353 31.8945 136.313 31.5824 149.077 42.9259C177.872 68.5153 212.412 109.267 212.412 148.897Z" fill="#B2BDF7" stroke="#F5F8FF" stroke-width="0.788671"/>
<path d="M186.381 154.73C186.381 186.315 147.198 195.407 127.607 196.006C107.418 194.361 67.0391 183.802 67.0391 154.73C67.0391 118.389 105.623 65.8965 127.607 65.8965C149.591 65.8965 186.381 115.248 186.381 154.73Z" fill="#DEE5F6" stroke="#ECF2FF" stroke-width="0.788671"/>
<circle cx="127.602" cy="154.28" r="36.2895" fill="white" stroke="#ECF2FF"/>
<mask id="path-16-inside-1_710_97218" fill="white">
<path fill-rule="evenodd" clip-rule="evenodd" d="M157.221 150.692V221.956C157.221 230.668 150.159 237.73 141.448 237.73H112.875C104.164 237.73 97.1016 230.668 97.1016 221.956V150.692V149.801C97.1016 149.797 97.1046 149.794 97.1084 149.794V149.794C97.1122 149.794 97.1152 149.791 97.1153 149.787C97.6006 133.852 110.867 121.081 127.161 121.081C143.456 121.081 156.722 133.852 157.207 149.787C157.207 149.791 157.21 149.794 157.214 149.794V149.794C157.218 149.794 157.221 149.797 157.221 149.801V150.692Z"/>
</mask>
<path fill-rule="evenodd" clip-rule="evenodd" d="M157.221 150.692V221.956C157.221 230.668 150.159 237.73 141.448 237.73H112.875C104.164 237.73 97.1016 230.668 97.1016 221.956V150.692V149.801C97.1016 149.797 97.1046 149.794 97.1084 149.794V149.794C97.1122 149.794 97.1152 149.791 97.1153 149.787C97.6006 133.852 110.867 121.081 127.161 121.081C143.456 121.081 156.722 133.852 157.207 149.787C157.207 149.791 157.21 149.794 157.214 149.794V149.794C157.218 149.794 157.221 149.797 157.221 149.801V150.692Z" fill="#E2EBFF"/>
<path d="M97.1153 149.787L95.5387 149.739L97.1153 149.787ZM157.207 149.787L158.784 149.739L157.207 149.787ZM155.644 150.692V221.956H158.798V150.692H155.644ZM141.448 236.152H112.875V239.307H141.448V236.152ZM98.6789 221.956V150.692H95.5242V221.956H98.6789ZM98.6789 150.692V149.801H95.5242V150.692H98.6789ZM98.6919 149.835C99.1507 134.771 111.7 122.658 127.161 122.658V119.503C110.033 119.503 96.0505 132.933 95.5387 149.739L98.6919 149.835ZM127.161 122.658C142.622 122.658 155.172 134.771 155.631 149.835L158.784 149.739C158.272 132.933 144.289 119.503 127.161 119.503V122.658ZM155.644 149.801V150.692H158.798V149.801H155.644ZM157.214 151.371C156.347 151.371 155.644 150.668 155.644 149.801H158.798C158.798 148.926 158.089 148.217 157.214 148.217V151.371ZM97.1084 151.371C97.9753 151.371 98.6662 150.68 98.6919 149.835L95.5387 149.739C95.5642 148.902 96.249 148.217 97.1084 148.217V151.371ZM98.6789 149.801C98.6789 150.668 97.9758 151.371 97.1084 151.371V148.217C96.2335 148.217 95.5242 148.926 95.5242 149.801H98.6789ZM155.631 149.835C155.656 150.681 156.348 151.371 157.214 151.371V148.217C158.073 148.217 158.758 148.901 158.784 149.739L155.631 149.835ZM112.875 236.152C105.035 236.152 98.6789 229.797 98.6789 221.956H95.5242C95.5242 231.539 103.292 239.307 112.875 239.307V236.152ZM155.644 221.956C155.644 229.797 149.288 236.152 141.448 236.152V239.307C151.03 239.307 158.798 231.539 158.798 221.956H155.644Z" fill="#F5F8FF" mask="url(#path-16-inside-1_710_97218)"/>
<mask id="mask0_710_97218" style="mask-type:alpha" maskUnits="userSpaceOnUse" x="98" y="122" width="58" height="115">
<mask id="path-18-inside-2_710_97218" fill="white">
<path fill-rule="evenodd" clip-rule="evenodd" d="M155.475 151.803V221.06C155.475 229.771 148.413 236.833 139.702 236.833H114.719C106.007 236.833 98.9453 229.771 98.9453 221.06V151.803V150.933C98.9453 150.93 98.9482 150.927 98.9518 150.927V150.927C98.9553 150.927 98.9581 150.924 98.9582 150.92C99.4142 135.352 111.889 122.875 127.21 122.875C142.532 122.875 155.007 135.352 155.463 150.92C155.463 150.924 155.466 150.927 155.469 150.927V150.927C155.473 150.927 155.475 150.93 155.475 150.933V151.803Z"/>
</mask>
<path fill-rule="evenodd" clip-rule="evenodd" d="M155.475 151.803V221.06C155.475 229.771 148.413 236.833 139.702 236.833H114.719C106.007 236.833 98.9453 229.771 98.9453 221.06V151.803V150.933C98.9453 150.93 98.9482 150.927 98.9518 150.927V150.927C98.9553 150.927 98.9581 150.924 98.9582 150.92C99.4142 135.352 111.889 122.875 127.21 122.875C142.532 122.875 155.007 135.352 155.463 150.92C155.463 150.924 155.466 150.927 155.469 150.927V150.927C155.473 150.927 155.475 150.93 155.475 150.933V151.803Z" fill="#F5F8FF"/>
<path d="M98.9582 150.92L100.535 150.966L98.9582 150.92ZM155.463 150.92L157.039 150.874L155.463 150.92ZM153.898 151.803V221.06H157.053V151.803H153.898ZM139.702 235.256H114.719V238.41H139.702V235.256ZM100.523 221.06V151.803H97.368V221.06H100.523ZM100.523 151.803V150.933H97.368V151.803H100.523ZM100.535 150.966C100.967 136.216 112.777 124.453 127.21 124.453V121.298C111 121.298 97.8615 134.489 97.3816 150.874L100.535 150.966ZM127.21 124.453C141.644 124.453 153.454 136.216 153.886 150.966L157.039 150.874C156.559 134.489 143.421 121.298 127.21 121.298V124.453ZM153.898 150.933V151.803H157.053V150.933H153.898ZM155.469 152.504C154.601 152.504 153.898 151.801 153.898 150.933H157.053C157.053 150.058 156.344 149.349 155.469 149.349V152.504ZM98.9518 152.504C99.8193 152.504 100.51 151.812 100.535 150.966L97.3816 150.874C97.4061 150.036 98.0913 149.349 98.9518 149.349V152.504ZM100.523 150.933C100.523 151.801 99.8193 152.504 98.9518 152.504V149.349C98.0771 149.349 97.368 150.058 97.368 150.933H100.523ZM153.886 150.966C153.911 151.812 154.602 152.504 155.469 152.504V149.349C156.329 149.349 157.015 150.036 157.039 150.874L153.886 150.966ZM114.719 235.256C106.878 235.256 100.523 228.9 100.523 221.06H97.368C97.368 230.642 105.136 238.41 114.719 238.41V235.256ZM153.898 221.06C153.898 228.9 147.542 235.256 139.702 235.256V238.41C149.285 238.41 157.053 230.642 157.053 221.06H153.898Z" fill="#C9DBFE" mask="url(#path-18-inside-2_710_97218)"/>
</mask>
<g mask="url(#mask0_710_97218)">
<line x1="98.9453" y1="216.303" x2="155.475" y2="216.303" stroke="#D6E2FE" stroke-width="1.57734"/>
<line x1="98.9453" y1="223.481" x2="155.475" y2="223.481" stroke="#D6E2FE" stroke-width="1.57734"/>
<line x1="98.9453" y1="230.66" x2="155.475" y2="230.66" stroke="#D6E2FE" stroke-width="1.57734"/>
<line x1="98.9453" y1="209.124" x2="155.475" y2="209.124" stroke="#D6E2FE" stroke-width="1.57734"/>
<line x1="98.9453" y1="201.946" x2="155.475" y2="201.946" stroke="#D6E2FE" stroke-width="1.57734"/>
<line x1="98.9453" y1="194.767" x2="155.475" y2="194.767" stroke="#D6E2FE" stroke-width="1.57734"/>
<line x1="98.9453" y1="187.589" x2="155.475" y2="187.589" stroke="#D6E2FE" stroke-width="1.57734"/>
<line x1="98.9453" y1="180.411" x2="155.475" y2="180.411" stroke="#D6E2FE" stroke-width="1.57734"/>
<line x1="98.9453" y1="173.232" x2="155.475" y2="173.232" stroke="#D6E2FE" stroke-width="1.57734"/>
<line x1="98.9453" y1="166.054" x2="155.475" y2="166.054" stroke="#D6E2FE" stroke-width="1.57734"/>
<line x1="98.9453" y1="158.876" x2="155.475" y2="158.876" stroke="#D6E2FE" stroke-width="1.57734"/>
<line x1="98.9453" y1="151.697" x2="155.475" y2="151.697" stroke="#D6E2FE" stroke-width="1.57734"/>
<line x1="98.9453" y1="144.518" x2="155.475" y2="144.518" stroke="#D6E2FE" stroke-width="1.57734"/>
<line x1="98.9453" y1="137.34" x2="155.475" y2="137.34" stroke="#D6E2FE" stroke-width="1.57734"/>
<line x1="98.9453" y1="130.162" x2="155.475" y2="130.162" stroke="#D6E2FE" stroke-width="1.57734"/>
<line x1="98.9453" y1="122.983" x2="155.475" y2="122.983" stroke="#D6E2FE" stroke-width="1.57734"/>
</g>
<path d="M254.942 24.126C250.198 20.182 245.784 21.8466 243.664 23.8412C243.167 24.3089 242.961 24.9888 242.961 25.6714V30.6558C242.961 32.3108 244.24 33.6845 245.891 33.8024L252.301 34.2603C254.068 34.3865 255.593 33.0333 255.677 31.2637L255.905 26.4625C255.948 25.5747 255.625 24.6943 254.942 24.126Z" fill="#262548"/>
<path d="M12.3454 23.3351C7.593 19.3283 3.15247 21.2631 0.99508 23.3294C0.466659 23.8355 0.260355 24.5706 0.29358 25.3015L0.563095 31.2308C0.635888 32.8323 1.89814 34.1245 3.49743 34.2348L10.186 34.6962C12.0616 34.8256 13.6333 33.2961 13.555 31.4176L13.3043 25.4002C13.2714 24.6096 12.9503 23.8451 12.3454 23.3351Z" fill="#262548"/>
</svg>
